{
  "header": {
    "formatType": 1,
    "trackCount": 2,
    "ticksPerBeat": 480
  },
  "tracks": [
    [
      {
        "type": "midi",
        "subType": "programChange",
        "typeByte": 192,
        "deltaTime": 0,
        "channel": 0,
        "program": 0
      },
      {
        "type": "midi",
        "subType": "controller",
        "typeByte": 176,
        "deltaTime": 0,
        "channel": 0,
        "controllerType": 64,
        "value": 127
      },
      {
        "type": "midi",
        "subType": "controller",
        "typeByte": 176,
        "deltaTime": 0,
        "channel": 0,
        "controllerType": 64,
        "value": 127
      },
      {
        "type": "meta",
        "subType": "setTempo",
        "typeByte": 255,
        "subTypeByte": 81,
        "deltaTime": 0,
        "microsecondsPerBeat": 1100000
      },
      {
        "type": "meta",
        "subType": "timeSignature",
        "typeByte": 255,
        "subTypeByte": 88,
        "deltaTime": 0,
        "numerator": 4,
        "denominator": 4,
        "metronome": 24,
        "thirtySeconds": 8
      },
      {
        "type": "midi",
        "subType": "noteOn",
        "typeByte": 144,
        "deltaTime": 120,
        "channel": 0,
        "note": 64,
        "velocity": 38
      },
      {
        "type": "midi",
        "subType": "noteOff",
        "typeByte": 128,
        "deltaTime": 120,
        "channel": 0,
        "note": 64,
        "velocity": 0
      },
      {
        "type": "midi",
        "subType": "noteOn",
        "typeByte": 144,
        "deltaTime": 0,
        "channel": 0,
        "note": 69,
        "velocity": 77
      },
      {
        "type": "midi",
        "subType": "noteOff",
        "typeByte": 128,
        "deltaTime": 120,
        "channel": 0,
        "note": 69,
        "velocity": 0
      },
      {
        "type": "midi",
        "subType": "noteOn",
        "typeByte": 144,
        "deltaTime": 0,
        "channel": 0,
        "note": 72,
        "velocity": 72
      },
      {
        "type": "midi",
        "subType": "controller",
        "typeByte": 176,
        "deltaTime": 118,
        "channel": 0,
        "controllerType": 64,
        "value": 0
      },
      {
        "type": "midi",
        "subType": "controller",
        "typeByte": 176,
        "deltaTime": 0,
        "channel": 0,
        "controllerType": 64,
        "value": 0
      },
      {
        "type": "midi",
        "subType": "noteOff",
        "typeByte": 128,
        "deltaTime": 2,
        "channel": 0,
        "note": 72,
        "velocity": 0
      },
      {
        "type": "midi",
        "subType": "controller",
        "typeByte": 176,
        "deltaTime": 0,
        "channel": 0,
        "controllerType": 64,
        "value": 127
      },
      {
        "type": "midi",
        "subType": "controller",
        "typeByte": 176,
        "deltaTime": 0,
        "channel": 0,
        "controllerType": 64,
        "value": 127
      },
      {
        "type": "midi",
        "subType": "noteOn",
        "typeByte": 144,
        "deltaTime": 0,
        "channel": 0,
        "note": 71,
        "velocity": 63
      },
      {
        "type": "midi",
        "subType": "noteOff",
        "typeByte": 128,
        "deltaTime": 120,
        "channel": 0,
        "note": 71,
        "velocity": 0
      },
      {
        "type": "midi",
        "subType": "noteOn",
        "typeByte": 144,
        "deltaTime": 0,
        "channel": 0,
        "note": 64,
        "velocity": 55
      },
      {
        "type": "midi",
        "subType": "noteOff",
        "typeByte": 128,
        "deltaTime": 120,
        "channel": 0,
        "note": 64,
        "velocity": 0
      },
      {
        "type": "midi",
        "subType": "noteOn",
        "typeByte": 144,
        "deltaTime": 0,
        "channel": 0,
        "note": 71,
        "velocity": 51
      },
      {
        "type": "midi",
        "subType": "noteOff",
        "typeByte": 128,
        "deltaTime": 120,
        "channel": 0,
        "note": 71,
        "velocity": 0
      },
      {
        "type": "midi",
        "subType": "noteOn",
        "typeByte": 144,
        "deltaTime": 0,
        "channel": 0,
        "note": 74,
        "velocity": 72
      },
      {
        "type": "midi",
        "subType": "controller",
        "typeByte": 176,
        "deltaTime": 118,
        "channel": 0,
        "controllerType": 64,
        "value": 0
      },
      {
        "type": "midi",
        "subType": "controller",
        "typeByte": 176,
        "deltaTime": 0,
        "channel": 0,
        "controllerType": 64,
        "value": 0
      },
      {
        "type": "midi",
        "subType": "noteOff",
        "typeByte": 128,
        "deltaTime": 2,
        "channel": 0,
        "note": 74,
        "velocity": 0
      },
      {
        "type": "midi",
        "subType": "controller",
        "typeByte": 176,
        "deltaTime": 0,
        "channel": 0,
        "controllerType": 64,
        "value": 127
      },
      {
        "type": "midi",
        "subType": "controller",
        "typeByte": 176,
        "deltaTime": 0,
        "channel": 0,
        "controllerType": 64,
        "value": 127
      },
      {
        "type": "midi",
        "subType": "noteOn",
        "typeByte": 144,
        "deltaTime": 0,
        "channel": 0,
        "note": 72,
        "velocity": 70
      },
      {
        "type": "midi",
        "subType": "noteOff",
        "typeByte": 128,
        "deltaTime": 240,
        "channel": 0,
        "note": 72,
        "velocity": 0
      },
      {
        "type": "midi",
        "subType": "noteOn",
        "typeByte": 144,
        "deltaTime": 0,
        "channel": 0,
        "note": 76,
        "velocity": 71
      },
      {
        "type": "midi",
        "subType": "controller",
        "typeByte": 176,
        "deltaTime": 238,
        "channel": 0,
        "controllerType": 64,
        "value": 0
      },
      {
        "type": "midi",
        "subType": "controller",
        "typeByte": 176,
        "deltaTime": 0,
        "channel": 0,
        "controllerType": 64,
        "value": 0
      },
      {
        "type": "midi",
        "subType": "noteOff",
        "typeByte": 128,
        "deltaTime": 2,
        "channel": 0,
        "note": 76,
        "velocity": 0
      },
      {
        "type": "midi",
        "subType": "controller",
        "typeByte": 176,
        "deltaTime": 0,
        "channel": 0,
        "controllerType": 64,
        "value": 127
      },
      {
        "type": "midi",
        "subType": "controller",
        "typeByte": 176,
        "deltaTime": 0,
        "channel": 0,
        "controllerType": 64,
        "value": 127
      },
      {
        "type": "midi",
        "subType": "noteOn",
        "typeByte": 144,
        "deltaTime": 0,
        "channel": 0,
        "note": 68,
        "velocity": 58
      },
      {
        "type": "midi",
        "subType": "noteOff",
        "typeByte": 128,
        "deltaTime": 240,
        "channel": 0,
        "note": 68,
        "velocity": 0
      },
      {
        "type": "midi",
        "subType": "noteOn",
        "typeByte": 144,
        "deltaTime": 0,
        "channel": 0,
        "note": 76,
        "velocity": 59
      },
      {
        "type": "midi",
        "subType": "controller",
        "typeByte": 176,
        "deltaTime": 238,
        "channel": 0,
        "controllerType": 64,
        "value": 0
      },
      {
        "type": "midi",
        "subType": "controller",
        "typeByte": 176,
        "deltaTime": 0,
        "channel": 0,
        "controllerType": 64,
        "value": 0
      },
      {
        "type": "midi",
        "subType": "noteOff",
        "typeByte": 128,
        "deltaTime": 2,
        "channel": 0,
        "note": 76,
        "velocity": 0
      },
      {
        "type": "midi",
        "subType": "controller",
        "typeByte": 176,
        "deltaTime": 0,
        "channel": 0,
        "controllerType": 64,
        "value": 127
      },
      {
        "type": "midi",
        "subType": "controller",
        "typeByte": 176,
        "deltaTime": 0,
        "channel": 0,
        "controllerType": 64,
        "value": 127
      },
      {
        "type": "midi",
        "subType": "noteOn",
        "typeByte": 144,
        "deltaTime": 0,
        "channel": 0,
        "note": 69,
        "velocity": 57
      },
      {
        "type": "midi",
        "subType": "noteOff",
        "typeByte": 128,
        "deltaTime": 120,
        "channel": 0,
        "note": 69,
        "velocity": 0
      },
      {
        "type": "midi",
        "subType": "noteOn",
        "typeByte": 144,
        "deltaTime": 0,
        "channel": 0,
        "note": 64,
        "velocity": 50
      },
      {
        "type": "midi",
        "subType": "noteOff",
        "typeByte": 128,
        "deltaTime": 120,
        "channel": 0,
        "note": 64,
        "velocity": 0
      },
      {
        "type": "midi",
        "subType": "noteOn",
        "typeByte": 144,
        "deltaTime": 0,
        "channel": 0,
        "note": 69,
        "velocity": 67
      },
      {
        "type": "midi",
        "subType": "noteOff",
        "typeByte": 128,
        "deltaTime": 120,
        "channel": 0,
        "note": 69,
        "velocity": 0
      },
      {
        "type": "midi",
        "subType": "noteOn",
        "typeByte": 144,
        "deltaTime": 0,
        "channel": 0,
        "note": 72,
        "velocity": 67
      },
      {
        "type": "midi",
        "subType": "controller",
        "typeByte": 176,
        "deltaTime": 118,
        "channel": 0,
        "controllerType": 64,
        "value": 0
      },
      {
        "type": "midi",
        "subType": "controller",
        "typeByte": 176,
        "deltaTime": 0,
        "channel": 0,
        "controllerType": 64,
        "value": 0
      },
      {
        "type": "midi",
        "subType": "noteOff",
        "typeByte": 128,
        "deltaTime": 2,
        "channel": 0,
        "note": 72,
        "velocity": 0
      },
      {
        "type": "midi",
        "subType": "controller",
        "typeByte": 176,
        "deltaTime": 0,
        "channel": 0,
        "controllerType": 64,
        "value": 127
      },
      {
        "type": "midi",
        "subType": "controller",
        "typeByte": 176,
        "deltaTime": 0,
        "channel": 0,
        "controllerType": 64,
        "value": 127
      },
      {
        "type": "midi",
        "subType": "noteOn",
        "typeByte": 144,
        "deltaTime": 0,
        "channel": 0,
        "note": 71,
        "velocity": 62
      },
      {
        "type": "midi",
        "subType": "noteOff",
        "typeByte": 128,
        "deltaTime": 120,
        "channel": 0,
        "note": 71,
        "velocity": 0
      },
      {
        "type": "midi",
        "subType": "noteOn",
        "typeByte": 144,
        "deltaTime": 0,
        "channel": 0,
        "note": 64,
        "velocity": 52
      },
      {
        "type": "midi",
        "subType": "noteOff",
        "typeByte": 128,
        "deltaTime": 120,
        "channel": 0,
        "note": 64,
        "velocity": 0
      },
      {
        "type": "midi",
        "subType": "noteOn",
        "typeByte": 144,
        "deltaTime": 0,
        "channel": 0,
        "note": 71,
        "velocity": 55
      },
      {
        "type": "midi",
        "subType": "noteOff",
        "typeByte": 128,
        "deltaTime": 120,
        "channel": 0,
        "note": 71,
        "velocity": 0
      },
      {
        "type": "midi",
        "subType": "noteOn",
        "typeByte": 144,
        "deltaTime": 0,
        "channel": 0,
        "note": 74,
        "velocity": 70
      },
      {
        "type": "midi",
        "subType": "controller",
        "typeByte": 176,
        "deltaTime": 118,
        "channel": 0,
        "controllerType": 64,
        "value": 0
      },
      {
        "type": "midi",
        "subType": "controller",
        "typeByte": 176,
        "deltaTime": 0,
        "channel": 0,
        "controllerType": 64,
        "value": 0
      },
      {
        "type": "midi",
        "subType": "noteOff",
        "typeByte": 128,
        "deltaTime": 2,
        "channel": 0,
        "note": 74,
        "velocity": 0
      },
      {
        "type": "midi",
        "subType": "controller",
        "typeByte": 176,
        "deltaTime": 0,
        "channel": 0,
        "controllerType": 64,
        "value": 127
      },
      {
        "type": "midi",
        "subType": "controller",
        "typeByte": 176,
        "deltaTime": 0,
        "channel": 0,
        "controllerType": 64,
        "value": 127
      },
      {
        "type": "midi",
        "subType": "noteOn",
        "typeByte": 144,
        "deltaTime": 0,
        "channel": 0,
        "note": 72,
        "velocity": 71
      },
      {
        "type": "midi",
        "subType": "noteOff",
        "typeByte": 128,
        "deltaTime": 240,
        "channel": 0,
        "note": 72,
        "velocity": 0
      },
      {
        "type": "midi",
        "subType": "noteOn",
        "typeByte": 144,
        "deltaTime": 0,
        "channel": 0,
        "note": 69,
        "velocity": 63
      },
      {
        "type": "midi",
        "subType": "controller",
        "typeByte": 176,
        "deltaTime": 238,
        "channel": 0,
        "controllerType": 64,
        "value": 0
      },
      {
        "type": "midi",
        "subType": "controller",
        "typeByte": 176,
        "deltaTime": 0,
        "channel": 0,
        "controllerType": 64,
        "value": 0
      },
      {
        "type": "midi",
        "subType": "noteOff",
        "typeByte": 128,
        "deltaTime": 2,
        "channel": 0,
        "note": 69,
        "velocity": 0
      },
      {
        "type": "midi",
        "subType": "controller",
        "typeByte": 176,
        "deltaTime": 0,
        "channel": 0,
        "controllerType": 64,
        "value": 127
      },
      {
        "type": "midi",
        "subType": "controller",
        "typeByte": 176,
        "deltaTime": 0,
        "channel": 0,
        "controllerType": 64,
        "value": 127
      },
      {
        "type": "midi",
        "subType": "controller",
        "typeByte": 176,
        "deltaTime": 478,
        "channel": 0,
        "controllerType": 64,
        "value": 0
      },
      {
        "type": "midi",
        "subType": "controller",
        "typeByte": 176,
        "deltaTime": 0,
        "channel": 0,
        "controllerType": 64,
        "value": 0
      },
      {
        "type": "midi",
        "subType": "controller",
        "typeByte": 176,
        "deltaTime": 2,
        "channel": 0,
        "controllerType": 64,
        "value": 127
      },
      {
        "type": "midi",
        "subType": "controller",
        "typeByte": 176,
        "deltaTime": 0,
        "channel": 0,
        "controllerType": 64,
        "value": 127
      },
      {
        "type": "midi",
        "subType": "noteOn",
        "typeByte": 144,
        "deltaTime": 120,
        "channel": 0,
        "note": 76,
        "velocity": 68
      },
      {
        "type": "midi",
        "subType": "noteOff",
        "typeByte": 128,
        "deltaTime": 120,
        "channel": 0,
        "note": 76,
        "velocity": 0
      },
      {
        "type": "midi",
        "subType": "noteOn",
        "typeByte": 144,
        "deltaTime": 0,
        "channel": 0,
        "note": 72,
        "velocity": 62
      },
      {
        "type": "midi",
        "subType": "noteOff",
        "typeByte": 128,
        "deltaTime": 120,
        "channel": 0,
        "note": 72,
        "velocity": 0
      },
      {
        "type": "midi",
        "subType": "noteOn",
        "typeByte": 144,
        "deltaTime": 0,
        "channel": 0,
        "note": 76,
        "velocity": 67
      },
      {
        "type": "midi",
        "subType": "controller",
        "typeByte": 176,
        "deltaTime": 118,
        "channel": 0,
        "controllerType": 64,
        "value": 0
      },
      {
        "type": "midi",
        "subType": "controller",
        "typeByte": 176,
        "deltaTime": 0,
        "channel": 0,
        "controllerType": 64,
        "value": 0
      },
      {
        "type": "midi",
        "subType": "noteOff",
        "typeByte": 128,
        "deltaTime": 2,
        "channel": 0,
        "note": 76,
        "velocity": 0
      },
      {
        "type": "midi",
        "subType": "controller",
        "typeByte": 176,
        "deltaTime": 0,
        "channel": 0,
        "controllerType": 64,
        "value": 127
      },
      {
        "type": "midi",
        "subType": "controller",
        "typeByte": 176,
        "deltaTime": 0,
        "channel": 0,
        "controllerType": 64,
        "value": 127
      },
      {
        "type": "midi",
        "subType": "noteOn",
        "typeByte": 144,
        "deltaTime": 0,
        "channel": 0,
        "note": 69,
        "velocity": 61
      },
      {
        "type": "midi",
        "subType": "noteOff",
        "typeByte": 128,
        "deltaTime": 120,
        "channel": 0,
        "note": 69,
        "velocity": 0
      },
      {
        "type": "midi",
        "subType": "noteOn",
        "typeByte": 144,
        "deltaTime": 0,
        "channel": 0,
        "note": 72,
        "velocity": 56
      },
      {
        "type": "midi",
        "subType": "noteOff",
        "typeByte": 128,
        "deltaTime": 120,
        "channel": 0,
        "note": 72,
        "velocity": 0
      },
      {
        "type": "midi",
        "subType": "noteOn",
        "typeByte": 144,
        "deltaTime": 0,
        "channel": 0,
        "note": 64,
        "velocity": 46
      },
      {
        "type": "midi",
        "subType": "noteOff",
        "typeByte": 128,
        "deltaTime": 120,
        "channel": 0,
        "note": 64,
        "velocity": 0
      },
      {
        "type": "midi",
        "subType": "noteOn",
        "typeByte": 144,
        "deltaTime": 0,
        "channel": 0,
        "note": 67,
        "velocity": 59
      },
      {
        "type": "midi",
        "subType": "controller",
        "typeByte": 176,
        "deltaTime": 118,
        "channel": 0,
        "controllerType": 64,
        "value": 0
      },
      {
        "type": "midi",
        "subType": "controller",
        "typeByte": 176,
        "deltaTime": 0,
        "channel": 0,
        "controllerType": 64,
        "value": 0
      },
      {
        "type": "midi",
        "subType": "noteOff",
        "typeByte": 128,
        "deltaTime": 2,
        "channel": 0,
        "note": 67,
        "velocity": 0
      },
      {
        "type": "midi",
        "subType": "controller",
        "typeByte": 176,
        "deltaTime": 0,
        "channel": 0,
        "controllerType": 64,
        "value": 127
      },
      {
        "type": "midi",
        "subType": "controller",
        "typeByte": 176,
        "deltaTime": 0,
        "channel": 0,
        "controllerType": 64,
        "value": 127
      },
      {
        "type": "midi",
        "subType": "noteOn",
        "typeByte": 144,
        "deltaTime": 0,
        "channel": 0,
        "note": 65,
        "velocity": 72
      },
      {
        "type": "midi",
        "subType": "noteOff",
        "typeByte": 128,
        "deltaTime": 240,
        "channel": 0,
        "note": 65,
        "velocity": 0
      },
      {
        "type": "midi",
        "subType": "noteOn",
        "typeByte": 144,
        "deltaTime": 0,
        "channel": 0,
        "note": 69,
        "velocity": 67
      },
      {
        "type": "midi",
        "subType": "controller",
        "typeByte": 176,
        "deltaTime": 238,
        "channel": 0,
        "controllerType": 64,
        "value": 0
      },
      {
        "type": "midi",
        "subType": "controller",
        "typeByte": 176,
        "deltaTime": 0,
        "channel": 0,
        "controllerType": 64,
        "value": 0
      },
      {
        "type": "midi",
        "subType": "noteOff",
        "typeByte": 128,
        "deltaTime": 2,
        "channel": 0,
        "note": 69,
        "velocity": 0
      },
      {
        "type": "midi",
        "subType": "controller",
        "typeByte": 176,
        "deltaTime": 0,
        "channel": 0,
        "controllerType": 64,
        "value": 127
      },
      {
        "type": "midi",
        "subType": "controller",
        "typeByte": 176,
        "deltaTime": 0,
        "channel": 0,
        "controllerType": 64,
        "value": 127
      },
      {
        "type": "midi",
        "subType": "noteOn",
        "typeByte": 144,
        "deltaTime": 0,
        "channel": 0,
        "note": 74,
        "velocity": 81
      },
      {
        "type": "midi",
        "subType": "noteOff",
        "typeByte": 128,
        "deltaTime": 240,
        "channel": 0,
        "note": 74,
        "velocity": 0
      },
      {
        "type": "midi",
        "subType": "noteOn",
        "typeByte": 144,
        "deltaTime": 0,
        "channel": 0,
        "note": 77,
        "velocity": 80
      },
      {
        "type": "midi",
        "subType": "controller",
        "typeByte": 176,
        "deltaTime": 238,
        "channel": 0,
        "controllerType": 64,
        "value": 0
      },
      {
        "type": "midi",
        "subType": "controller",
        "typeByte": 176,
        "deltaTime": 0,
        "channel": 0,
        "controllerType": 64,
        "value": 0
      },
      {
        "type": "midi",
        "subType": "noteOff",
        "typeByte": 128,
        "deltaTime": 2,
        "channel": 0,
        "note": 77,
        "velocity": 0
      },
      {
        "type": "midi",
        "subType": "controller",
        "typeByte": 176,
        "deltaTime": 0,
        "channel": 0,
        "controllerType": 64,
        "value": 127
      },
      {
        "type": "midi",
        "subType": "controller",
        "typeByte": 176,
        "deltaTime": 0,
        "channel": 0,
        "controllerType": 64,
        "value": 127
      },
      {
        "type": "midi",
        "subType": "noteOn",
        "typeByte": 144,
        "deltaTime": 120,
        "channel": 0,
        "note": 74,
        "velocity": 69
      },
      {
        "type": "midi",
        "subType": "noteOff",
        "typeByte": 128,
        "deltaTime": 120,
        "channel": 0,
        "note": 74,
        "velocity": 0
      },
      {
        "type": "midi",
        "subType": "noteOn",
        "typeByte": 144,
        "deltaTime": 0,
        "channel": 0,
        "note": 71,
        "velocity": 64
      },
      {
        "type": "midi",
        "subType": "noteOff",
        "typeByte": 128,
        "deltaTime": 120,
        "channel": 0,
        "note": 71,
        "velocity": 0
      },
      {
        "type": "midi",
        "subType": "noteOn",
        "typeByte": 144,
        "deltaTime": 0,
        "channel": 0,
        "note": 74,
        "velocity": 50
      },
      {
        "type": "midi",
        "subType": "controller",
        "typeByte": 176,
        "deltaTime": 118,
        "channel": 0,
        "controllerType": 64,
        "value": 0
      },
      {
        "type": "midi",
        "subType": "controller",
        "typeByte": 176,
        "deltaTime": 0,
        "channel": 0,
        "controllerType": 64,
        "value": 0
      },
      {
        "type": "midi",
        "subType": "noteOff",
        "typeByte": 128,
        "deltaTime": 2,
        "channel": 0,
        "note": 74,
        "velocity": 0
      },
      {
        "type": "midi",
        "subType": "controller",
        "typeByte": 176,
        "deltaTime": 0,
        "channel": 0,
        "controllerType": 64,
        "value": 127
      },
      {
        "type": "midi",
        "subType": "controller",
        "typeByte": 176,
        "deltaTime": 0,
        "channel": 0,
        "controllerType": 64,
        "value": 127
      },
      {
        "type": "midi",
        "subType": "noteOn",
        "typeByte": 144,
        "deltaTime": 0,
        "channel": 0,
        "note": 67,
        "velocity": 69
      },
      {
        "type": "midi",
        "subType": "noteOff",
        "typeByte": 128,
        "deltaTime": 120,
        "channel": 0,
        "note": 67,
        "velocity": 0
      },
      {
        "type": "midi",
        "subType": "noteOn",
        "typeByte": 144,
        "deltaTime": 0,
        "channel": 0,
        "note": 71,
        "velocity": 63
      },
      {
        "type": "midi",
        "subType": "noteOff",
        "typeByte": 128,
        "deltaTime": 120,
        "channel": 0,
        "note": 71,
        "velocity": 0
      },
      {
        "type": "midi",
        "subType": "noteOn",
        "typeByte": 144,
        "deltaTime": 0,
        "channel": 0,
        "note": 62,
        "velocity": 48
      },
      {
        "type": "midi",
        "subType": "noteOff",
        "typeByte": 128,
        "deltaTime": 120,
        "channel": 0,
        "note": 62,
        "velocity": 0
      },
      {
        "type": "midi",
        "subType": "noteOn",
        "typeByte": 144,
        "deltaTime": 0,
        "channel": 0,
        "note": 65,
        "velocity": 47
      },
      {
        "type": "midi",
        "subType": "controller",
        "typeByte": 176,
        "deltaTime": 118,
        "channel": 0,
        "controllerType": 64,
        "value": 0
      },
      {
        "type": "midi",
        "subType": "controller",
        "typeByte": 176,
        "deltaTime": 0,
        "channel": 0,
        "controllerType": 64,
        "value": 0
      },
      {
        "type": "midi",
        "subType": "noteOff",
        "typeByte": 128,
        "deltaTime": 2,
        "channel": 0,
        "note": 65,
        "velocity": 0
      },
      {
        "type": "midi",
        "subType": "controller",
        "typeByte": 176,
        "deltaTime": 0,
        "channel": 0,
        "controllerType": 64,
        "value": 127
      },
      {
        "type": "midi",
        "subType": "controller",
        "typeByte": 176,
        "deltaTime": 0,
        "channel": 0,
        "controllerType": 64,
        "value": 127
      },
      {
        "type": "midi",
        "subType": "noteOn",
        "typeByte": 144,
        "deltaTime": 0,
        "channel": 0,
        "note": 64,
        "velocity": 50
      },
      {
        "type": "midi",
        "subType": "noteOff",
        "typeByte": 128,
        "deltaTime": 240,
        "channel": 0,
        "note": 64,
        "velocity": 0
      },
      {
        "type": "midi",
        "subType": "noteOn",
        "typeByte": 144,
        "deltaTime": 0,
        "channel": 0,
        "note": 67,
        "velocity": 63
      },
      {
        "type": "midi",
        "subType": "controller",
        "typeByte": 176,
        "deltaTime": 238,
        "channel": 0,
        "controllerType": 64,
        "value": 0
      },
      {
        "type": "midi",
        "subType": "controller",
        "typeByte": 176,
        "deltaTime": 0,
        "channel": 0,
        "controllerType": 64,
        "value": 0
      },
      {
        "type": "midi",
        "subType": "noteOff",
        "typeByte": 128,
        "deltaTime": 2,
        "channel": 0,
        "note": 67,
        "velocity": 0
      },
      {
        "type": "midi",
        "subType": "controller",
        "typeByte": 176,
        "deltaTime": 0,
        "channel": 0,
        "controllerType": 64,
        "value": 127
      },
      {
        "type": "midi",
        "subType": "controller",
        "typeByte": 176,
        "deltaTime": 0,
        "channel": 0,
        "controllerType": 64,
        "value": 127
      },
      {
        "type": "midi",
        "subType": "noteOn",
        "typeByte": 144,
        "deltaTime": 0,
        "channel": 0,
        "note": 72,
        "velocity": 77
      },
      {
        "type": "midi",
        "subType": "noteOff",
        "typeByte": 128,
        "deltaTime": 240,
        "channel": 0,
        "note": 72,
        "velocity": 0
      },
      {
        "type": "midi",
        "subType": "noteOn",
        "typeByte": 144,
        "deltaTime": 0,
        "channel": 0,
        "note": 76,
        "velocity": 67
      },
      {
        "type": "midi",
        "subType": "controller",
        "typeByte": 176,
        "deltaTime": 238,
        "channel": 0,
        "controllerType": 64,
        "value": 0
      },
      {
        "type": "midi",
        "subType": "controller",
        "typeByte": 176,
        "deltaTime": 0,
        "channel": 0,
        "controllerType": 64,
        "value": 0
      },
      {
        "type": "midi",
        "subType": "noteOff",
        "typeByte": 128,
        "deltaTime": 2,
        "channel": 0,
        "note": 76,
        "velocity": 0
      },
      {
        "type": "midi",
        "subType": "controller",
        "typeByte": 176,
        "deltaTime": 0,
        "channel": 0,
        "controllerType": 64,
        "value": 127
      },
      {
        "type": "midi",
        "subType": "controller",
        "typeByte": 176,
        "deltaTime": 0,
        "channel": 0,
        "controllerType": 64,
        "value": 127
      },
      {
        "type": "midi",
        "subType": "noteOn",
        "typeByte": 144,
        "deltaTime": 120,
        "channel": 0,
        "note": 72,
        "velocity": 67
      },
      {
        "type": "midi",
        "subType": "noteOff",
        "typeByte": 128,
        "deltaTime": 120,
        "channel": 0,
        "note": 72,
        "velocity": 0
      },
      {
        "type": "midi",
        "subType": "noteOn",
        "typeByte": 144,
        "deltaTime": 0,
        "channel": 0,
        "note": 69,
        "velocity": 59
      },
      {
        "type": "midi",
        "subType": "noteOff",
        "typeByte": 128,
        "deltaTime": 120,
        "channel": 0,
        "note": 69,
        "velocity": 0
      },
      {
        "type": "midi",
        "subType": "noteOn",
        "typeByte": 144,
        "deltaTime": 0,
        "channel": 0,
        "note": 72,
        "velocity": 67
      },
      {
        "type": "midi",
        "subType": "controller",
        "typeByte": 176,
        "deltaTime": 118,
        "channel": 0,
        "controllerType": 64,
        "value": 0
      },
      {
        "type": "midi",
        "subType": "controller",
        "typeByte": 176,
        "deltaTime": 0,
        "channel": 0,
        "controllerType": 64,
        "value": 0
      },
      {
        "type": "midi",
        "subType": "noteOff",
        "typeByte": 128,
        "deltaTime": 2,
        "channel": 0,
        "note": 72,
        "velocity": 0
      },
      {
        "type": "midi",
        "subType": "controller",
        "typeByte": 176,
        "deltaTime": 0,
        "channel": 0,
        "controllerType": 64,
        "value": 127
      },
      {
        "type": "midi",
        "subType": "controller",
        "typeByte": 176,
        "deltaTime": 0,
        "channel": 0,
        "controllerType": 64,
        "value": 127
      },
      {
        "type": "midi",
        "subType": "noteOn",
        "typeByte": 144,
        "deltaTime": 0,
        "channel": 0,
        "note": 65,
        "velocity": 72
      },
      {
        "type": "midi",
        "subType": "noteOff",
        "typeByte": 128,
        "deltaTime": 240,
        "channel": 0,
        "note": 65,
        "velocity": 0
      },
      {
        "type": "midi",
        "subType": "noteOn",
        "typeByte": 144,
        "deltaTime": 0,
        "channel": 0,
        "note": 74,
        "velocity": 73
      },
      {
        "type": "midi",
        "subType": "controller",
        "typeByte": 176,
        "deltaTime": 238,
        "channel": 0,
        "controllerType": 64,
        "value": 0
      },
      {
        "type": "midi",
        "subType": "controller",
        "typeByte": 176,
        "deltaTime": 0,
        "channel": 0,
        "controllerType": 64,
        "value": 0
      },
      {
        "type": "midi",
        "subType": "noteOff",
        "typeByte": 128,
        "deltaTime": 2,
        "channel": 0,
        "note": 74,
        "velocity": 0
      },
      {
        "type": "midi",
        "subType": "controller",
        "typeByte": 176,
        "deltaTime": 0,
        "channel": 0,
        "controllerType": 64,
        "value": 127
      },
      {
        "type": "midi",
        "subType": "controller",
        "typeByte": 176,
        "deltaTime": 0,
        "channel": 0,
        "controllerType": 64,
        "value": 127
      },
      {
        "type": "midi",
        "subType": "noteOn",
        "typeByte": 144,
        "deltaTime": 120,
        "channel": 0,
        "note": 71,
        "velocity": 62
      },
      {
        "type": "midi",
        "subType": "noteOff",
        "typeByte": 128,
        "deltaTime": 120,
        "channel": 0,
        "note": 71,
        "velocity": 0
      },
      {
        "type": "midi",
        "subType": "noteOn",
        "typeByte": 144,
        "deltaTime": 0,
        "channel": 0,
        "note": 67,
        "velocity": 54
      },
      {
        "type": "midi",
        "subType": "noteOff",
        "typeByte": 128,
        "deltaTime": 120,
        "channel": 0,
        "note": 67,
        "velocity": 0
      },
      {
        "type": "midi",
        "subType": "noteOn",
        "typeByte": 144,
        "deltaTime": 0,
        "channel": 0,
        "note": 71,
        "velocity": 68
      },
      {
        "type": "midi",
        "subType": "controller",
        "typeByte": 176,
        "deltaTime": 118,
        "channel": 0,
        "controllerType": 64,
        "value": 0
      },
      {
        "type": "midi",
        "subType": "controller",
        "typeByte": 176,
        "deltaTime": 0,
        "channel": 0,
        "controllerType": 64,
        "value": 0
      },
      {
        "type": "midi",
        "subType": "noteOff",
        "typeByte": 128,
        "deltaTime": 2,
        "channel": 0,
        "note": 71,
        "velocity": 0
      },
      {
        "type": "midi",
        "subType": "controller",
        "typeByte": 176,
        "deltaTime": 0,
        "channel": 0,
        "controllerType": 64,
        "value": 127
      },
      {
        "type": "midi",
        "subType": "controller",
        "typeByte": 176,
        "deltaTime": 0,
        "channel": 0,
        "controllerType": 64,
        "value": 127
      },
      {
        "type": "midi",
        "subType": "noteOn",
        "typeByte": 144,
        "deltaTime": 0,
        "channel": 0,
        "note": 64,
        "velocity": 64
      },
      {
        "type": "midi",
        "subType": "noteOff",
        "typeByte": 128,
        "deltaTime": 240,
        "channel": 0,
        "note": 64,
        "velocity": 0
      },
      {
        "type": "midi",
        "subType": "noteOn",
        "typeByte": 144,
        "deltaTime": 0,
        "channel": 0,
        "note": 72,
        "velocity": 79
      },
      {
        "type": "midi",
        "subType": "controller",
        "typeByte": 176,
        "deltaTime": 238,
        "channel": 0,
        "controllerType": 64,
        "value": 0
      },
      {
        "type": "midi",
        "subType": "controller",
        "typeByte": 176,
        "deltaTime": 0,
        "channel": 0,
        "controllerType": 64,
        "value": 0
      },
      {
        "type": "midi",
        "subType": "noteOff",
        "typeByte": 128,
        "deltaTime": 2,
        "channel": 0,
        "note": 72,
        "velocity": 0
      },
      {
        "type": "midi",
        "subType": "controller",
        "typeByte": 176,
        "deltaTime": 0,
        "channel": 0,
        "controllerType": 64,
        "value": 127
      },
      {
        "type": "midi",
        "subType": "controller",
        "typeByte": 176,
        "deltaTime": 0,
        "channel": 0,
        "controllerType": 64,
        "value": 127
      },
      {
        "type": "midi",
        "subType": "noteOn",
        "typeByte": 144,
        "deltaTime": 120,
        "channel": 0,
        "note": 69,
        "velocity": 61
      },
      {
        "type": "midi",
        "subType": "noteOff",
        "typeByte": 128,
        "deltaTime": 120,
        "channel": 0,
        "note": 69,
        "velocity": 0
      },
      {
        "type": "midi",
        "subType": "noteOn",
        "typeByte": 144,
        "deltaTime": 0,
        "channel": 0,
        "note": 65,
        "velocity": 56
      },
      {
        "type": "midi",
        "subType": "noteOff",
        "typeByte": 128,
        "deltaTime": 120,
        "channel": 0,
        "note": 65,
        "velocity": 0
      },
      {
        "type": "midi",
        "subType": "noteOn",
        "typeByte": 144,
        "deltaTime": 0,
        "channel": 0,
        "note": 69,
        "velocity": 60
      },
      {
        "type": "midi",
        "subType": "controller",
        "typeByte": 176,
        "deltaTime": 118,
        "channel": 0,
        "controllerType": 64,
        "value": 0
      },
      {
        "type": "midi",
        "subType": "controller",
        "typeByte": 176,
        "deltaTime": 0,
        "channel": 0,
        "controllerType": 64,
        "value": 0
      },
      {
        "type": "midi",
        "subType": "noteOff",
        "typeByte": 128,
        "deltaTime": 2,
        "channel": 0,
        "note": 69,
        "velocity": 0
      },
      {
        "type": "midi",
        "subType": "controller",
        "typeByte": 176,
        "deltaTime": 0,
        "channel": 0,
        "controllerType": 64,
        "value": 127
      },
      {
        "type": "midi",
        "subType": "controller",
        "typeByte": 176,
        "deltaTime": 0,
        "channel": 0,
        "controllerType": 64,
        "value": 127
      },
      {
        "type": "midi",
        "subType": "noteOn",
        "typeByte": 144,
        "deltaTime": 0,
        "channel": 0,
        "note": 62,
        "velocity": 56
      },
      {
        "type": "midi",
        "subType": "noteOff",
        "typeByte": 128,
        "deltaTime": 240,
        "channel": 0,
        "note": 62,
        "velocity": 0
      },
      {
        "type": "midi",
        "subType": "noteOn",
        "typeByte": 144,
        "deltaTime": 0,
        "channel": 0,
        "note": 71,
        "velocity": 77
      },
      {
        "type": "midi",
        "subType": "controller",
        "typeByte": 176,
        "deltaTime": 238,
        "channel": 0,
        "controllerType": 64,
        "value": 0
      },
      {
        "type": "midi",
        "subType": "controller",
        "typeByte": 176,
        "deltaTime": 0,
        "channel": 0,
        "controllerType": 64,
        "value": 0
      },
      {
        "type": "midi",
        "subType": "noteOff",
        "typeByte": 128,
        "deltaTime": 2,
        "channel": 0,
        "note": 71,
        "velocity": 0
      },
      {
        "type": "midi",
        "subType": "controller",
        "typeByte": 176,
        "deltaTime": 0,
        "channel": 0,
        "controllerType": 64,
        "value": 127
      },
      {
        "type": "midi",
        "subType": "controller",
        "typeByte": 176,
        "deltaTime": 0,
        "channel": 0,
        "controllerType": 64,
        "value": 127
      },
      {
        "type": "midi",
        "subType": "noteOn",
        "typeByte": 144,
        "deltaTime": 0,
        "channel": 0,
        "note": 72,
        "velocity": 89
      },
      {
        "type": "midi",
        "subType": "controller",
        "typeByte": 176,
        "deltaTime": 478,
        "channel": 0,
        "controllerType": 64,
        "value": 0
      },
      {
        "type": "midi",
        "subType": "controller",
        "typeByte": 176,
        "deltaTime": 0,
        "channel": 0,
        "controllerType": 64,
        "value": 0
      },
      {
        "type": "midi",
        "subType": "noteOff",
        "typeByte": 128,
        "deltaTime": 2,
        "channel": 0,
        "note": 72,
        "velocity": 0
      },
      {
        "type": "midi",
        "subType": "controller",
        "typeByte": 176,
        "deltaTime": 0,
        "channel": 0,
        "controllerType": 64,
        "value": 127
      },
      {
        "type": "midi",
        "subType": "controller",
        "typeByte": 176,
        "deltaTime": 0,
        "channel": 0,
        "controllerType": 64,
        "value": 127
      },
      {
        "type": "midi",
        "subType": "controller",
        "typeByte": 176,
        "deltaTime": 478,
        "channel": 0,
        "controllerType": 64,
        "value": 0
      },
      {
        "type": "midi",
        "subType": "controller",
        "typeByte": 176,
        "deltaTime": 0,
        "channel": 0,
        "controllerType": 64,
        "value": 0
      },
      {
        "type": "midi",
        "subType": "controller",
        "typeByte": 176,
        "deltaTime": 2,
        "channel": 0,
        "controllerType": 64,
        "value": 127
      },
      {
        "type": "midi",
        "subType": "controller",
        "typeByte": 176,
        "deltaTime": 0,
        "channel": 0,
        "controllerType": 64,
        "value": 127
      },
      {
        "type": "midi",
        "subType": "noteOn",
        "typeByte": 144,
        "deltaTime": 120,
        "channel": 0,
        "note": 67,
        "velocity": 50
      },
      {
        "type": "midi",
        "subType": "noteOff",
        "typeByte": 128,
        "deltaTime": 120,
        "channel": 0,
        "note": 67,
        "velocity": 0
      },
      {
        "type": "midi",
        "subType": "noteOn",
        "typeByte": 144,
        "deltaTime": 0,
        "channel": 0,
        "note": 72,
        "velocity": 66
      },
      {
        "type": "midi",
        "subType": "noteOff",
        "typeByte": 128,
        "deltaTime": 120,
        "channel": 0,
        "note": 72,
        "velocity": 0
      },
      {
        "type": "midi",
        "subType": "noteOn",
        "typeByte": 144,
        "deltaTime": 0,
        "channel": 0,
        "note": 76,
        "velocity": 63
      },
      {
        "type": "midi",
        "subType": "controller",
        "typeByte": 176,
        "deltaTime": 118,
        "channel": 0,
        "controllerType": 64,
        "value": 0
      },
      {
        "type": "midi",
        "subType": "controller",
        "typeByte": 176,
        "deltaTime": 0,
        "channel": 0,
        "controllerType": 64,
        "value": 0
      },
      {
        "type": "midi",
        "subType": "noteOff",
        "typeByte": 128,
        "deltaTime": 2,
        "channel": 0,
        "note": 76,
        "velocity": 0
      },
      {
        "type": "midi",
        "subType": "controller",
        "typeByte": 176,
        "deltaTime": 0,
        "channel": 0,
        "controllerType": 64,
        "value": 127
      },
      {
        "type": "midi",
        "subType": "controller",
        "typeByte": 176,
        "deltaTime": 0,
        "channel": 0,
        "controllerType": 64,
        "value": 127
      },
      {
        "type": "midi",
        "subType": "noteOn",
        "typeByte": 144,
        "deltaTime": 0,
        "channel": 0,
        "note": 74,
        "velocity": 72
      },
      {
        "type": "midi",
        "subType": "noteOff",
        "typeByte": 128,
        "deltaTime": 120,
        "channel": 0,
        "note": 74,
        "velocity": 0
      },
      {
        "type": "midi",
        "subType": "noteOn",
        "typeByte": 144,
        "deltaTime": 0,
        "channel": 0,
        "note": 67,
        "velocity": 63
      },
      {
        "type": "midi",
        "subType": "noteOff",
        "typeByte": 128,
        "deltaTime": 120,
        "channel": 0,
        "note": 67,
        "velocity": 0
      },
      {
        "type": "midi",
        "subType": "noteOn",
        "typeByte": 144,
        "deltaTime": 0,
        "channel": 0,
        "note": 74,
        "velocity": 72
      },
      {
        "type": "midi",
        "subType": "noteOff",
        "typeByte": 128,
        "deltaTime": 120,
        "channel": 0,
        "note": 74,
        "velocity": 0
      },
      {
        "type": "midi",
        "subType": "noteOn",
        "typeByte": 144,
        "deltaTime": 0,
        "channel": 0,
        "note": 77,
        "velocity": 66
      },
      {
        "type": "midi",
        "subType": "controller",
        "typeByte": 176,
        "deltaTime": 118,
        "channel": 0,
        "controllerType": 64,
        "value": 0
      },
      {
        "type": "midi",
        "subType": "controller",
        "typeByte": 176,
        "deltaTime": 0,
        "channel": 0,
        "controllerType": 64,
        "value": 0
      },
      {
        "type": "midi",
        "subType": "noteOff",
        "typeByte": 128,
        "deltaTime": 2,
        "channel": 0,
        "note": 77,
        "velocity": 0
      },
      {
        "type": "midi",
        "subType": "controller",
        "typeByte": 176,
        "deltaTime": 0,
        "channel": 0,
        "controllerType": 64,
        "value": 127
      },
      {
        "type": "midi",
        "subType": "controller",
        "typeByte": 176,
        "deltaTime": 0,
        "channel": 0,
        "controllerType": 64,
        "value": 127
      },
      {
        "type": "midi",
        "subType": "noteOn",
        "typeByte": 144,
        "deltaTime": 0,
        "channel": 0,
        "note": 76,
        "velocity": 84
      },
      {
        "type": "midi",
        "subType": "noteOff",
        "typeByte": 128,
        "deltaTime": 240,
        "channel": 0,
        "note": 76,
        "velocity": 0
      },
      {
        "type": "midi",
        "subType": "noteOn",
        "typeByte": 144,
        "deltaTime": 0,
        "channel": 0,
        "note": 79,
        "velocity": 84
      },
      {
        "type": "midi",
        "subType": "controller",
        "typeByte": 176,
        "deltaTime": 238,
        "channel": 0,
        "controllerType": 64,
        "value": 0
      },
      {
        "type": "midi",
        "subType": "controller",
        "typeByte": 176,
        "deltaTime": 0,
        "channel": 0,
        "controllerType": 64,
        "value": 0
      },
      {
        "type": "midi",
        "subType": "noteOff",
        "typeByte": 128,
        "deltaTime": 2,
        "channel": 0,
        "note": 79,
        "velocity": 0
      },
      {
        "type": "midi",
        "subType": "controller",
        "typeByte": 176,
        "deltaTime": 0,
        "channel": 0,
        "controllerType": 64,
        "value": 127
      },
      {
        "type": "midi",
        "subType": "controller",
        "typeByte": 176,
        "deltaTime": 0,
        "channel": 0,
        "controllerType": 64,
        "value": 127
      },
      {
        "type": "midi",
        "subType": "noteOn",
        "typeByte": 144,
        "deltaTime": 0,
        "channel": 0,
        "note": 71,
        "velocity": 68
      },
      {
        "type": "midi",
        "subType": "noteOff",
        "typeByte": 128,
        "deltaTime": 240,
        "channel": 0,
        "note": 71,
        "velocity": 0
      },
      {
        "type": "midi",
        "subType": "noteOn",
        "typeByte": 144,
        "deltaTime": 0,
        "channel": 0,
        "note": 79,
        "velocity": 76
      },
      {
        "type": "midi",
        "subType": "controller",
        "typeByte": 176,
        "deltaTime": 238,
        "channel": 0,
        "controllerType": 64,
        "value": 0
      },
      {
        "type": "midi",
        "subType": "controller",
        "typeByte": 176,
        "deltaTime": 0,
        "channel": 0,
        "controllerType": 64,
        "value": 0
      },
      {
        "type": "midi",
        "subType": "noteOff",
        "typeByte": 128,
        "deltaTime": 2,
        "channel": 0,
        "note": 79,
        "velocity": 0
      },
      {
        "type": "midi",
        "subType": "controller",
        "typeByte": 176,
        "deltaTime": 0,
        "channel": 0,
        "controllerType": 64,
        "value": 127
      },
      {
        "type": "midi",
        "subType": "controller",
        "typeByte": 176,
        "deltaTime": 0,
        "channel": 0,
        "controllerType": 64,
        "value": 127
      },
      {
        "type": "midi",
        "subType": "noteOn",
        "typeByte": 144,
        "deltaTime": 0,
        "channel": 0,
        "note": 72,
        "velocity": 65
      },
      {
        "type": "midi",
        "subType": "noteOff",
        "typeByte": 128,
        "deltaTime": 120,
        "channel": 0,
        "note": 72,
        "velocity": 0
      },
      {
        "type": "midi",
        "subType": "noteOn",
        "typeByte": 144,
        "deltaTime": 0,
        "channel": 0,
        "note": 67,
        "velocity": 55
      },
      {
        "type": "midi",
        "subType": "noteOff",
        "typeByte": 128,
        "deltaTime": 120,
        "channel": 0,
        "note": 67,
        "velocity": 0
      },
      {
        "type": "midi",
        "subType": "noteOn",
        "typeByte": 144,
        "deltaTime": 0,
        "channel": 0,
        "note": 72,
        "velocity": 65
      },
      {
        "type": "midi",
        "subType": "noteOff",
        "typeByte": 128,
        "deltaTime": 120,
        "channel": 0,
        "note": 72,
        "velocity": 0
      },
      {
        "type": "midi",
        "subType": "noteOn",
        "typeByte": 144,
        "deltaTime": 0,
        "channel": 0,
        "note": 76,
        "velocity": 67
      },
      {
        "type": "midi",
        "subType": "controller",
        "typeByte": 176,
        "deltaTime": 118,
        "channel": 0,
        "controllerType": 64,
        "value": 0
      },
      {
        "type": "midi",
        "subType": "controller",
        "typeByte": 176,
        "deltaTime": 0,
        "channel": 0,
        "controllerType": 64,
        "value": 0
      },
      {
        "type": "midi",
        "subType": "noteOff",
        "typeByte": 128,
        "deltaTime": 2,
        "channel": 0,
        "note": 76,
        "velocity": 0
      },
      {
        "type": "midi",
        "subType": "controller",
        "typeByte": 176,
        "deltaTime": 0,
        "channel": 0,
        "controllerType": 64,
        "value": 127
      },
      {
        "type": "midi",
        "subType": "controller",
        "typeByte": 176,
        "deltaTime": 0,
        "channel": 0,
        "controllerType": 64,
        "value": 127
      },
      {
        "type": "midi",
        "subType": "noteOn",
        "typeByte": 144,
        "deltaTime": 0,
        "channel": 0,
        "note": 74,
        "velocity": 73
      },
      {
        "type": "midi",
        "subType": "noteOff",
        "typeByte": 128,
        "deltaTime": 120,
        "channel": 0,
        "note": 74,
        "velocity": 0
      },
      {
        "type": "midi",
        "subType": "noteOn",
        "typeByte": 144,
        "deltaTime": 0,
        "channel": 0,
        "note": 67,
        "velocity": 51
      },
      {
        "type": "midi",
        "subType": "noteOff",
        "typeByte": 128,
        "deltaTime": 120,
        "channel": 0,
        "note": 67,
        "velocity": 0
      },
      {
        "type": "midi",
        "subType": "noteOn",
        "typeByte": 144,
        "deltaTime": 0,
        "channel": 0,
        "note": 74,
        "velocity": 50
      },
      {
        "type": "midi",
        "subType": "noteOff",
        "typeByte": 128,
        "deltaTime": 120,
        "channel": 0,
        "note": 74,
        "velocity": 0
      },
      {
        "type": "midi",
        "subType": "noteOn",
        "typeByte": 144,
        "deltaTime": 0,
        "channel": 0,
        "note": 77,
        "velocity": 73
      },
      {
        "type": "midi",
        "subType": "controller",
        "typeByte": 176,
        "deltaTime": 118,
        "channel": 0,
        "controllerType": 64,
        "value": 0
      },
      {
        "type": "midi",
        "subType": "controller",
        "typeByte": 176,
        "deltaTime": 0,
        "channel": 0,
        "controllerType": 64,
        "value": 0
      },
      {
        "type": "midi",
        "subType": "noteOff",
        "typeByte": 128,
        "deltaTime": 2,
        "channel": 0,
        "note": 77,
        "velocity": 0
      },
      {
        "type": "midi",
        "subType": "controller",
        "typeByte": 176,
        "deltaTime": 0,
        "channel": 0,
        "controllerType": 64,
        "value": 127
      },
      {
        "type": "midi",
        "subType": "controller",
        "typeByte": 176,
        "deltaTime": 0,
        "channel": 0,
        "controllerType": 64,
        "value": 127
      },
      {
        "type": "midi",
        "subType": "noteOn",
        "typeByte": 144,
        "deltaTime": 0,
        "channel": 0,
        "note": 76,
        "velocity": 71
      },
      {
        "type": "midi",
        "subType": "noteOff",
        "typeByte": 128,
        "deltaTime": 240,
        "channel": 0,
        "note": 76,
        "velocity": 0
      },
      {
        "type": "midi",
        "subType": "noteOn",
        "typeByte": 144,
        "deltaTime": 0,
        "channel": 0,
        "note": 72,
        "velocity": 70
      },
      {
        "type": "midi",
        "subType": "controller",
        "typeByte": 176,
        "deltaTime": 238,
        "channel": 0,
        "controllerType": 64,
        "value": 0
      },
      {
        "type": "midi",
        "subType": "controller",
        "typeByte": 176,
        "deltaTime": 0,
        "channel": 0,
        "controllerType": 64,
        "value": 0
      },
      {
        "type": "midi",
        "subType": "noteOff",
        "typeByte": 128,
        "deltaTime": 2,
        "channel": 0,
        "note": 72,
        "velocity": 0
      },
      {
        "type": "midi",
        "subType": "controller",
        "typeByte": 176,
        "deltaTime": 0,
        "channel": 0,
        "controllerType": 64,
        "value": 127
      },
      {
        "type": "midi",
        "subType": "controller",
        "typeByte": 176,
        "deltaTime": 0,
        "channel": 0,
        "controllerType": 64,
        "value": 127
      },
      {
        "type": "midi",
        "subType": "noteOn",
        "typeByte": 144,
        "deltaTime": 0,
        "channel": 0,
        "note": 79,
        "velocity": 74
      },
      {
        "type": "midi",
        "subType": "noteOff",
        "typeByte": 128,
        "deltaTime": 240,
        "channel": 0,
        "note": 79,
        "velocity": 0
      },
      {
        "type": "midi",
        "subType": "noteOn",
        "typeByte": 144,
        "deltaTime": 0,
        "channel": 0,
        "note": 76,
        "velocity": 77
      },
      {
        "type": "midi",
        "subType": "controller",
        "typeByte": 176,
        "deltaTime": 238,
        "channel": 0,
        "controllerType": 64,
        "value": 0
      },
      {
        "type": "midi",
        "subType": "controller",
        "typeByte": 176,
        "deltaTime": 0,
        "channel": 0,
        "controllerType": 64,
        "value": 0
      },
      {
        "type": "midi",
        "subType": "noteOff",
        "typeByte": 128,
        "deltaTime": 2,
        "channel": 0,
        "note": 76,
        "velocity": 0
      },
      {
        "type": "midi",
        "subType": "controller",
        "typeByte": 176,
        "deltaTime": 0,
        "channel": 0,
        "controllerType": 64,
        "value": 127
      },
      {
        "type": "midi",
        "subType": "controller",
        "typeByte": 176,
        "deltaTime": 0,
        "channel": 0,
        "controllerType": 64,
        "value": 127
      },
      {
        "type": "midi",
        "subType": "noteOn",
        "typeByte": 144,
        "deltaTime": 0,
        "channel": 0,
        "note": 84,
        "velocity": 88
      },
      {
        "type": "midi",
        "subType": "noteOff",
        "typeByte": 128,
        "deltaTime": 120,
        "channel": 0,
        "note": 84,
        "velocity": 0
      },
      {
        "type": "midi",
        "subType": "noteOn",
        "typeByte": 144,
        "deltaTime": 0,
        "channel": 0,
        "note": 81,
        "velocity": 83
      },
      {
        "type": "midi",
        "subType": "noteOff",
        "typeByte": 128,
        "deltaTime": 120,
        "channel": 0,
        "note": 81,
        "velocity": 0
      },
      {
        "type": "midi",
        "subType": "noteOn",
        "typeByte": 144,
        "deltaTime": 0,
        "channel": 0,
        "note": 76,
        "velocity": 86
      },
      {
        "type": "midi",
        "subType": "noteOff",
        "typeByte": 128,
        "deltaTime": 120,
        "channel": 0,
        "note": 76,
        "velocity": 0
      },
      {
        "type": "midi",
        "subType": "noteOn",
        "typeByte": 144,
        "deltaTime": 0,
        "channel": 0,
        "note": 81,
        "velocity": 61
      },
      {
        "type": "midi",
        "subType": "controller",
        "typeByte": 176,
        "deltaTime": 118,
        "channel": 0,
        "controllerType": 64,
        "value": 0
      },
      {
        "type": "midi",
        "subType": "controller",
        "typeByte": 176,
        "deltaTime": 0,
        "channel": 0,
        "controllerType": 64,
        "value": 0
      },
      {
        "type": "midi",
        "subType": "noteOff",
        "typeByte": 128,
        "deltaTime": 2,
        "channel": 0,
        "note": 81,
        "velocity": 0
      },
      {
        "type": "midi",
        "subType": "controller",
        "typeByte": 176,
        "deltaTime": 0,
        "channel": 0,
        "controllerType": 64,
        "value": 127
      },
      {
        "type": "midi",
        "subType": "controller",
        "typeByte": 176,
        "deltaTime": 0,
        "channel": 0,
        "controllerType": 64,
        "value": 127
      },
      {
        "type": "midi",
        "subType": "noteOn",
        "typeByte": 144,
        "deltaTime": 0,
        "channel": 0,
        "note": 72,
        "velocity": 62
      },
      {
        "type": "midi",
        "subType": "noteOff",
        "typeByte": 128,
        "deltaTime": 120,
        "channel": 0,
        "note": 72,
        "velocity": 0
      },
      {
        "type": "midi",
        "subType": "noteOn",
        "typeByte": 144,
        "deltaTime": 0,
        "channel": 0,
        "note": 76,
        "velocity": 69
      },
      {
        "type": "midi",
        "subType": "noteOff",
        "typeByte": 128,
        "deltaTime": 120,
        "channel": 0,
        "note": 76,
        "velocity": 0
      },
      {
        "type": "midi",
        "subType": "noteOn",
        "typeByte": 144,
        "deltaTime": 0,
        "channel": 0,
        "note": 69,
        "velocity": 75
      },
      {
        "type": "midi",
        "subType": "noteOff",
        "typeByte": 128,
        "deltaTime": 120,
        "channel": 0,
        "note": 69,
        "velocity": 0
      },
      {
        "type": "midi",
        "subType": "noteOn",
        "typeByte": 144,
        "deltaTime": 0,
        "channel": 0,
        "note": 72,
        "velocity": 77
      },
      {
        "type": "midi",
        "subType": "controller",
        "typeByte": 176,
        "deltaTime": 118,
        "channel": 0,
        "controllerType": 64,
        "value": 0
      },
      {
        "type": "midi",
        "subType": "controller",
        "typeByte": 176,
        "deltaTime": 0,
        "channel": 0,
        "controllerType": 64,
        "value": 0
      },
      {
        "type": "midi",
        "subType": "noteOff",
        "typeByte": 128,
        "deltaTime": 2,
        "channel": 0,
        "note": 72,
        "velocity": 0
      },
      {
        "type": "midi",
        "subType": "controller",
        "typeByte": 176,
        "deltaTime": 0,
        "channel": 0,
        "controllerType": 64,
        "value": 127
      },
      {
        "type": "midi",
        "subType": "controller",
        "typeByte": 176,
        "deltaTime": 0,
        "channel": 0,
        "controllerType": 64,
        "value": 127
      },
      {
        "type": "midi",
        "subType": "noteOn",
        "typeByte": 144,
        "deltaTime": 0,
        "channel": 0,
        "note": 74,
        "velocity": 79
      },
      {
        "type": "midi",
        "subType": "noteOff",
        "typeByte": 128,
        "deltaTime": 240,
        "channel": 0,
        "note": 74,
        "velocity": 0
      },
      {
        "type": "midi",
        "subType": "noteOn",
        "typeByte": 144,
        "deltaTime": 0,
        "channel": 0,
        "note": 78,
        "velocity": 82
      },
      {
        "type": "midi",
        "subType": "controller",
        "typeByte": 176,
        "deltaTime": 238,
        "channel": 0,
        "controllerType": 64,
        "value": 0
      },
      {
        "type": "midi",
        "subType": "controller",
        "typeByte": 176,
        "deltaTime": 0,
        "channel": 0,
        "controllerType": 64,
        "value": 0
      },
      {
        "type": "midi",
        "subType": "noteOff",
        "typeByte": 128,
        "deltaTime": 2,
        "channel": 0,
        "note": 78,
        "velocity": 0
      },
      {
        "type": "midi",
        "subType": "controller",
        "typeByte": 176,
        "deltaTime": 0,
        "channel": 0,
        "controllerType": 64,
        "value": 127
      },
      {
        "type": "midi",
        "subType": "controller",
        "typeByte": 176,
        "deltaTime": 0,
        "channel": 0,
        "controllerType": 64,
        "value": 127
      },
      {
        "type": "midi",
        "subType": "noteOn",
        "typeByte": 144,
        "deltaTime": 0,
        "channel": 0,
        "note": 81,
        "velocity": 75
      },
      {
        "type": "midi",
        "subType": "noteOff",
        "typeByte": 128,
        "deltaTime": 240,
        "channel": 0,
        "note": 81,
        "velocity": 0
      },
      {
        "type": "midi",
        "subType": "noteOn",
        "typeByte": 144,
        "deltaTime": 0,
        "channel": 0,
        "note": 84,
        "velocity": 86
      },
      {
        "type": "midi",
        "subType": "controller",
        "typeByte": 176,
        "deltaTime": 238,
        "channel": 0,
        "controllerType": 64,
        "value": 0
      },
      {
        "type": "midi",
        "subType": "controller",
        "typeByte": 176,
        "deltaTime": 0,
        "channel": 0,
        "controllerType": 64,
        "value": 0
      },
      {
        "type": "midi",
        "subType": "noteOff",
        "typeByte": 128,
        "deltaTime": 2,
        "channel": 0,
        "note": 84,
        "velocity": 0
      },
      {
        "type": "midi",
        "subType": "controller",
        "typeByte": 176,
        "deltaTime": 0,
        "channel": 0,
        "controllerType": 64,
        "value": 127
      },
      {
        "type": "midi",
        "subType": "controller",
        "typeByte": 176,
        "deltaTime": 0,
        "channel": 0,
        "controllerType": 64,
        "value": 127
      },
      {
        "type": "midi",
        "subType": "noteOn",
        "typeByte": 144,
        "deltaTime": 0,
        "channel": 0,
        "note": 83,
        "velocity": 54
      },
      {
        "type": "midi",
        "subType": "noteOff",
        "typeByte": 128,
        "deltaTime": 120,
        "channel": 0,
        "note": 83,
        "velocity": 0
      },
      {
        "type": "midi",
        "subType": "noteOn",
        "typeByte": 144,
        "deltaTime": 0,
        "channel": 0,
        "note": 79,
        "velocity": 82
      },
      {
        "type": "midi",
        "subType": "noteOff",
        "typeByte": 128,
        "deltaTime": 120,
        "channel": 0,
        "note": 79,
        "velocity": 0
      },
      {
        "type": "midi",
        "subType": "noteOn",
        "typeByte": 144,
        "deltaTime": 0,
        "channel": 0,
        "note": 74,
        "velocity": 60
      },
      {
        "type": "midi",
        "subType": "noteOff",
        "typeByte": 128,
        "deltaTime": 120,
        "channel": 0,
        "note": 74,
        "velocity": 0
      },
      {
        "type": "midi",
        "subType": "noteOn",
        "typeByte": 144,
        "deltaTime": 0,
        "channel": 0,
        "note": 79,
        "velocity": 67
      },
      {
        "type": "midi",
        "subType": "controller",
        "typeByte": 176,
        "deltaTime": 118,
        "channel": 0,
        "controllerType": 64,
        "value": 0
      },
      {
        "type": "midi",
        "subType": "controller",
        "typeByte": 176,
        "deltaTime": 0,
        "channel": 0,
        "controllerType": 64,
        "value": 0
      },
      {
        "type": "midi",
        "subType": "noteOff",
        "typeByte": 128,
        "deltaTime": 2,
        "channel": 0,
        "note": 79,
        "velocity": 0
      },
      {
        "type": "midi",
        "subType": "controller",
        "typeByte": 176,
        "deltaTime": 0,
        "channel": 0,
        "controllerType": 64,
        "value": 127
      },
      {
        "type": "midi",
        "subType": "controller",
        "typeByte": 176,
        "deltaTime": 0,
        "channel": 0,
        "controllerType": 64,
        "value": 127
      },
      {
        "type": "midi",
        "subType": "noteOn",
        "typeByte": 144,
        "deltaTime": 0,
        "channel": 0,
        "note": 71,
        "velocity": 59
      },
      {
        "type": "midi",
        "subType": "noteOff",
        "typeByte": 128,
        "deltaTime": 120,
        "channel": 0,
        "note": 71,
        "velocity": 0
      },
      {
        "type": "midi",
        "subType": "noteOn",
        "typeByte": 144,
        "deltaTime": 0,
        "channel": 0,
        "note": 74,
        "velocity": 58
      },
      {
        "type": "midi",
        "subType": "noteOff",
        "typeByte": 128,
        "deltaTime": 120,
        "channel": 0,
        "note": 74,
        "velocity": 0
      },
      {
        "type": "midi",
        "subType": "noteOn",
        "typeByte": 144,
        "deltaTime": 0,
        "channel": 0,
        "note": 67,
        "velocity": 68
      },
      {
        "type": "midi",
        "subType": "noteOff",
        "typeByte": 128,
        "deltaTime": 120,
        "channel": 0,
        "note": 67,
        "velocity": 0
      },
      {
        "type": "midi",
        "subType": "noteOn",
        "typeByte": 144,
        "deltaTime": 0,
        "channel": 0,
        "note": 71,
        "velocity": 68
      },
      {
        "type": "midi",
        "subType": "controller",
        "typeByte": 176,
        "deltaTime": 118,
        "channel": 0,
        "controllerType": 64,
        "value": 0
      },
      {
        "type": "midi",
        "subType": "controller",
        "typeByte": 176,
        "deltaTime": 0,
        "channel": 0,
        "controllerType": 64,
        "value": 0
      },
      {
        "type": "midi",
        "subType": "noteOff",
        "typeByte": 128,
        "deltaTime": 2,
        "channel": 0,
        "note": 71,
        "velocity": 0
      },
      {
        "type": "midi",
        "subType": "controller",
        "typeByte": 176,
        "deltaTime": 0,
        "channel": 0,
        "controllerType": 64,
        "value": 127
      },
      {
        "type": "midi",
        "subType": "controller",
        "typeByte": 176,
        "deltaTime": 0,
        "channel": 0,
        "controllerType": 64,
        "value": 127
      },
      {
        "type": "midi",
        "subType": "noteOn",
        "typeByte": 144,
        "deltaTime": 0,
        "channel": 0,
        "note": 72,
        "velocity": 84
      },
      {
        "type": "midi",
        "subType": "noteOff",
        "typeByte": 128,
        "deltaTime": 240,
        "channel": 0,
        "note": 72,
        "velocity": 0
      },
      {
        "type": "midi",
        "subType": "noteOn",
        "typeByte": 144,
        "deltaTime": 0,
        "channel": 0,
        "note": 76,
        "velocity": 72
      },
      {
        "type": "midi",
        "subType": "controller",
        "typeByte": 176,
        "deltaTime": 238,
        "channel": 0,
        "controllerType": 64,
        "value": 0
      },
      {
        "type": "midi",
        "subType": "controller",
        "typeByte": 176,
        "deltaTime": 0,
        "channel": 0,
        "controllerType": 64,
        "value": 0
      },
      {
        "type": "midi",
        "subType": "noteOff",
        "typeByte": 128,
        "deltaTime": 2,
        "channel": 0,
        "note": 76,
        "velocity": 0
      },
      {
        "type": "midi",
        "subType": "controller",
        "typeByte": 176,
        "deltaTime": 0,
        "channel": 0,
        "controllerType": 64,
        "value": 127
      },
      {
        "type": "midi",
        "subType": "controller",
        "typeByte": 176,
        "deltaTime": 0,
        "channel": 0,
        "controllerType": 64,
        "value": 127
      },
      {
        "type": "midi",
        "subType": "noteOn",
        "typeByte": 144,
        "deltaTime": 0,
        "channel": 0,
        "note": 79,
        "velocity": 74
      },
      {
        "type": "midi",
        "subType": "noteOff",
        "typeByte": 128,
        "deltaTime": 240,
        "channel": 0,
        "note": 79,
        "velocity": 0
      },
      {
        "type": "midi",
        "subType": "noteOn",
        "typeByte": 144,
        "deltaTime": 0,
        "channel": 0,
        "note": 83,
        "velocity": 81
      },
      {
        "type": "midi",
        "subType": "controller",
        "typeByte": 176,
        "deltaTime": 238,
        "channel": 0,
        "controllerType": 64,
        "value": 0
      },
      {
        "type": "midi",
        "subType": "controller",
        "typeByte": 176,
        "deltaTime": 0,
        "channel": 0,
        "controllerType": 64,
        "value": 0
      },
      {
        "type": "midi",
        "subType": "noteOff",
        "typeByte": 128,
        "deltaTime": 2,
        "channel": 0,
        "note": 83,
        "velocity": 0
      },
      {
        "type": "midi",
        "subType": "controller",
        "typeByte": 176,
        "deltaTime": 0,
        "channel": 0,
        "controllerType": 64,
        "value": 127
      },
      {
        "type": "midi",
        "subType": "controller",
        "typeByte": 176,
        "deltaTime": 0,
        "channel": 0,
        "controllerType": 64,
        "value": 127
      },
      {
        "type": "midi",
        "subType": "noteOn",
        "typeByte": 144,
        "deltaTime": 0,
        "channel": 0,
        "note": 81,
        "velocity": 88
      },
      {
        "type": "midi",
        "subType": "noteOff",
        "typeByte": 128,
        "deltaTime": 120,
        "channel": 0,
        "note": 81,
        "velocity": 0
      },
      {
        "type": "midi",
        "subType": "noteOn",
        "typeByte": 144,
        "deltaTime": 0,
        "channel": 0,
        "note": 78,
        "velocity": 78
      },
      {
        "type": "midi",
        "subType": "noteOff",
        "typeByte": 128,
        "deltaTime": 120,
        "channel": 0,
        "note": 78,
        "velocity": 0
      },
      {
        "type": "midi",
        "subType": "noteOn",
        "typeByte": 144,
        "deltaTime": 0,
        "channel": 0,
        "note": 75,
        "velocity": 91
      },
      {
        "type": "midi",
        "subType": "noteOff",
        "typeByte": 128,
        "deltaTime": 120,
        "channel": 0,
        "note": 75,
        "velocity": 0
      },
      {
        "type": "midi",
        "subType": "noteOn",
        "typeByte": 144,
        "deltaTime": 0,
        "channel": 0,
        "note": 78,
        "velocity": 63
      },
      {
        "type": "midi",
        "subType": "controller",
        "typeByte": 176,
        "deltaTime": 118,
        "channel": 0,
        "controllerType": 64,
        "value": 0
      },
      {
        "type": "midi",
        "subType": "controller",
        "typeByte": 176,
        "deltaTime": 0,
        "channel": 0,
        "controllerType": 64,
        "value": 0
      },
      {
        "type": "midi",
        "subType": "noteOff",
        "typeByte": 128,
        "deltaTime": 2,
        "channel": 0,
        "note": 78,
        "velocity": 0
      },
      {
        "type": "midi",
        "subType": "controller",
        "typeByte": 176,
        "deltaTime": 0,
        "channel": 0,
        "controllerType": 64,
        "value": 127
      },
      {
        "type": "midi",
        "subType": "controller",
        "typeByte": 176,
        "deltaTime": 0,
        "channel": 0,
        "controllerType": 64,
        "value": 127
      },
      {
        "type": "midi",
        "subType": "noteOn",
        "typeByte": 144,
        "deltaTime": 0,
        "channel": 0,
        "note": 71,
        "velocity": 69
      },
      {
        "type": "midi",
        "subType": "noteOff",
        "typeByte": 128,
        "deltaTime": 120,
        "channel": 0,
        "note": 71,
        "velocity": 0
      },
      {
        "type": "midi",
        "subType": "noteOn",
        "typeByte": 144,
        "deltaTime": 0,
        "channel": 0,
        "note": 75,
        "velocity": 69
      },
      {
        "type": "midi",
        "subType": "noteOff",
        "typeByte": 128,
        "deltaTime": 120,
        "channel": 0,
        "note": 75,
        "velocity": 0
      },
      {
        "type": "midi",
        "subType": "noteOn",
        "typeByte": 144,
        "deltaTime": 0,
        "channel": 0,
        "note": 66,
        "velocity": 52
      },
      {
        "type": "midi",
        "subType": "noteOff",
        "typeByte": 128,
        "deltaTime": 120,
        "channel": 0,
        "note": 66,
        "velocity": 0
      },
      {
        "type": "midi",
        "subType": "noteOn",
        "typeByte": 144,
        "deltaTime": 0,
        "channel": 0,
        "note": 69,
        "velocity": 63
      },
      {
        "type": "midi",
        "subType": "controller",
        "typeByte": 176,
        "deltaTime": 118,
        "channel": 0,
        "controllerType": 64,
        "value": 0
      },
      {
        "type": "midi",
        "subType": "controller",
        "typeByte": 176,
        "deltaTime": 0,
        "channel": 0,
        "controllerType": 64,
        "value": 0
      },
      {
        "type": "midi",
        "subType": "noteOff",
        "typeByte": 128,
        "deltaTime": 2,
        "channel": 0,
        "note": 69,
        "velocity": 0
      },
      {
        "type": "midi",
        "subType": "controller",
        "typeByte": 176,
        "deltaTime": 0,
        "channel": 0,
        "controllerType": 64,
        "value": 127
      },
      {
        "type": "midi",
        "subType": "controller",
        "typeByte": 176,
        "deltaTime": 0,
        "channel": 0,
        "controllerType": 64,
        "value": 127
      },
      {
        "type": "midi",
        "subType": "noteOn",
        "typeByte": 144,
        "deltaTime": 0,
        "channel": 0,
        "note": 67,
        "velocity": 79
      },
      {
        "type": "midi",
        "subType": "noteOff",
        "typeByte": 128,
        "deltaTime": 240,
        "channel": 0,
        "note": 67,
        "velocity": 0
      },
      {
        "type": "midi",
        "subType": "noteOn",
        "typeByte": 144,
        "deltaTime": 0,
        "channel": 0,
        "note": 79,
        "velocity": 85
      },
      {
        "type": "midi",
        "subType": "controller",
        "typeByte": 176,
        "deltaTime": 238,
        "channel": 0,
        "controllerType": 64,
        "value": 0
      },
      {
        "type": "midi",
        "subType": "controller",
        "typeByte": 176,
        "deltaTime": 0,
        "channel": 0,
        "controllerType": 64,
        "value": 0
      },
      {
        "type": "midi",
        "subType": "noteOff",
        "typeByte": 128,
        "deltaTime": 2,
        "channel": 0,
        "note": 79,
        "velocity": 0
      },
      {
        "type": "midi",
        "subType": "controller",
        "typeByte": 176,
        "deltaTime": 0,
        "channel": 0,
        "controllerType": 64,
        "value": 127
      },
      {
        "type": "midi",
        "subType": "controller",
        "typeByte": 176,
        "deltaTime": 0,
        "channel": 0,
        "controllerType": 64,
        "value": 127
      },
      {
        "type": "midi",
        "subType": "noteOn",
        "typeByte": 144,
        "deltaTime": 120,
        "channel": 0,
        "note": 76,
        "velocity": 59
      },
      {
        "type": "midi",
        "subType": "noteOff",
        "typeByte": 128,
        "deltaTime": 120,
        "channel": 0,
        "note": 76,
        "velocity": 0
      },
      {
        "type": "midi",
        "subType": "noteOn",
        "typeByte": 144,
        "deltaTime": 0,
        "channel": 0,
        "note": 72,
        "velocity": 59
      },
      {
        "type": "midi",
        "subType": "noteOff",
        "typeByte": 128,
        "deltaTime": 120,
        "channel": 0,
        "note": 72,
        "velocity": 0
      },
      {
        "type": "midi",
        "subType": "noteOn",
        "typeByte": 144,
        "deltaTime": 0,
        "channel": 0,
        "note": 76,
        "velocity": 76
      },
      {
        "type": "midi",
        "subType": "controller",
        "typeByte": 176,
        "deltaTime": 118,
        "channel": 0,
        "controllerType": 64,
        "value": 0
      },
      {
        "type": "midi",
        "subType": "controller",
        "typeByte": 176,
        "deltaTime": 0,
        "channel": 0,
        "controllerType": 64,
        "value": 0
      },
      {
        "type": "midi",
        "subType": "noteOff",
        "typeByte": 128,
        "deltaTime": 2,
        "channel": 0,
        "note": 76,
        "velocity": 0
      },
      {
        "type": "midi",
        "subType": "controller",
        "typeByte": 176,
        "deltaTime": 0,
        "channel": 0,
        "controllerType": 64,
        "value": 127
      },
      {
        "type": "midi",
        "subType": "controller",
        "typeByte": 176,
        "deltaTime": 0,
        "channel": 0,
        "controllerType": 64,
        "value": 127
      },
      {
        "type": "midi",
        "subType": "noteOn",
        "typeByte": 144,
        "deltaTime": 0,
        "channel": 0,
        "note": 69,
        "velocity": 60
      },
      {
        "type": "midi",
        "subType": "noteOff",
        "typeByte": 128,
        "deltaTime": 240,
        "channel": 0,
        "note": 69,
        "velocity": 0
      },
      {
        "type": "midi",
        "subType": "noteOn",
        "typeByte": 144,
        "deltaTime": 0,
        "channel": 0,
        "note": 78,
        "velocity": 84
      },
      {
        "type": "midi",
        "subType": "controller",
        "typeByte": 176,
        "deltaTime": 238,
        "channel": 0,
        "controllerType": 64,
        "value": 0
      },
      {
        "type": "midi",
        "subType": "controller",
        "typeByte": 176,
        "deltaTime": 0,
        "channel": 0,
        "controllerType": 64,
        "value": 0
      },
      {
        "type": "midi",
        "subType": "noteOff",
        "typeByte": 128,
        "deltaTime": 2,
        "channel": 0,
        "note": 78,
        "velocity": 0
      },
      {
        "type": "midi",
        "subType": "controller",
        "typeByte": 176,
        "deltaTime": 0,
        "channel": 0,
        "controllerType": 64,
        "value": 127
      },
      {
        "type": "midi",
        "subType": "controller",
        "typeByte": 176,
        "deltaTime": 0,
        "channel": 0,
        "controllerType": 64,
        "value": 127
      },
      {
        "type": "midi",
        "subType": "noteOn",
        "typeByte": 144,
        "deltaTime": 120,
        "channel": 0,
        "note": 74,
        "velocity": 67
      },
      {
        "type": "midi",
        "subType": "noteOff",
        "typeByte": 128,
        "deltaTime": 120,
        "channel": 0,
        "note": 74,
        "velocity": 0
      },
      {
        "type": "midi",
        "subType": "noteOn",
        "typeByte": 144,
        "deltaTime": 0,
        "channel": 0,
        "note": 71,
        "velocity": 72
      },
      {
        "type": "midi",
        "subType": "noteOff",
        "typeByte": 128,
        "deltaTime": 120,
        "channel": 0,
        "note": 71,
        "velocity": 0
      },
      {
        "type": "midi",
        "subType": "noteOn",
        "typeByte": 144,
        "deltaTime": 0,
        "channel": 0,
        "note": 74,
        "velocity": 68
      },
      {
        "type": "midi",
        "subType": "controller",
        "typeByte": 176,
        "deltaTime": 118,
        "channel": 0,
        "controllerType": 64,
        "value": 0
      },
      {
        "type": "midi",
        "subType": "controller",
        "typeByte": 176,
        "deltaTime": 0,
        "channel": 0,
        "controllerType": 64,
        "value": 0
      },
      {
        "type": "midi",
        "subType": "noteOff",
        "typeByte": 128,
        "deltaTime": 2,
        "channel": 0,
        "note": 74,
        "velocity": 0
      },
      {
        "type": "midi",
        "subType": "controller",
        "typeByte": 176,
        "deltaTime": 0,
        "channel": 0,
        "controllerType": 64,
        "value": 127
      },
      {
        "type": "midi",
        "subType": "controller",
        "typeByte": 176,
        "deltaTime": 0,
        "channel": 0,
        "controllerType": 64,
        "value": 127
      },
      {
        "type": "midi",
        "subType": "noteOn",
        "typeByte": 144,
        "deltaTime": 0,
        "channel": 0,
        "note": 67,
        "velocity": 67
      },
      {
        "type": "midi",
        "subType": "noteOff",
        "typeByte": 128,
        "deltaTime": 240,
        "channel": 0,
        "note": 67,
        "velocity": 0
      },
      {
        "type": "midi",
        "subType": "noteOn",
        "typeByte": 144,
        "deltaTime": 0,
        "channel": 0,
        "note": 76,
        "velocity": 84
      },
      {
        "type": "midi",
        "subType": "controller",
        "typeByte": 176,
        "deltaTime": 238,
        "channel": 0,
        "controllerType": 64,
        "value": 0
      },
      {
        "type": "midi",
        "subType": "controller",
        "typeByte": 176,
        "deltaTime": 0,
        "channel": 0,
        "controllerType": 64,
        "value": 0
      },
      {
        "type": "midi",
        "subType": "noteOff",
        "typeByte": 128,
        "deltaTime": 2,
        "channel": 0,
        "note": 76,
        "velocity": 0
      },
      {
        "type": "midi",
        "subType": "controller",
        "typeByte": 176,
        "deltaTime": 0,
        "channel": 0,
        "controllerType": 64,
        "value": 127
      },
      {
        "type": "midi",
        "subType": "controller",
        "typeByte": 176,
        "deltaTime": 0,
        "channel": 0,
        "controllerType": 64,
        "value": 127
      },
      {
        "type": "midi",
        "subType": "noteOn",
        "typeByte": 144,
        "deltaTime": 120,
        "channel": 0,
        "note": 72,
        "velocity": 67
      },
      {
        "type": "midi",
        "subType": "noteOff",
        "typeByte": 128,
        "deltaTime": 120,
        "channel": 0,
        "note": 72,
        "velocity": 0
      },
      {
        "type": "midi",
        "subType": "noteOn",
        "typeByte": 144,
        "deltaTime": 0,
        "channel": 0,
        "note": 69,
        "velocity": 60
      },
      {
        "type": "midi",
        "subType": "noteOff",
        "typeByte": 128,
        "deltaTime": 120,
        "channel": 0,
        "note": 69,
        "velocity": 0
      },
      {
        "type": "midi",
        "subType": "noteOn",
        "typeByte": 144,
        "deltaTime": 0,
        "channel": 0,
        "note": 72,
        "velocity": 79
      },
      {
        "type": "midi",
        "subType": "controller",
        "typeByte": 176,
        "deltaTime": 118,
        "channel": 0,
        "controllerType": 64,
        "value": 0
      },
      {
        "type": "midi",
        "subType": "controller",
        "typeByte": 176,
        "deltaTime": 0,
        "channel": 0,
        "controllerType": 64,
        "value": 0
      },
      {
        "type": "midi",
        "subType": "noteOff",
        "typeByte": 128,
        "deltaTime": 2,
        "channel": 0,
        "note": 72,
        "velocity": 0
      },
      {
        "type": "midi",
        "subType": "controller",
        "typeByte": 176,
        "deltaTime": 0,
        "channel": 0,
        "controllerType": 64,
        "value": 127
      },
      {
        "type": "midi",
        "subType": "controller",
        "typeByte": 176,
        "deltaTime": 0,
        "channel": 0,
        "controllerType": 64,
        "value": 127
      },
      {
        "type": "midi",
        "subType": "noteOn",
        "typeByte": 144,
        "deltaTime": 0,
        "channel": 0,
        "note": 66,
        "velocity": 61
      },
      {
        "type": "midi",
        "subType": "noteOff",
        "typeByte": 128,
        "deltaTime": 120,
        "channel": 0,
        "note": 66,
        "velocity": 0
      },
      {
        "type": "midi",
        "subType": "noteOn",
        "typeByte": 144,
        "deltaTime": 0,
        "channel": 0,
        "note": 79,
        "velocity": 91
      },
      {
        "type": "midi",
        "subType": "noteOff",
        "typeByte": 128,
        "deltaTime": 120,
        "channel": 0,
        "note": 79,
        "velocity": 0
      },
      {
        "type": "midi",
        "subType": "noteOn",
        "typeByte": 144,
        "deltaTime": 0,
        "channel": 0,
        "note": 78,
        "velocity": 73
      },
      {
        "type": "midi",
        "subType": "noteOff",
        "typeByte": 128,
        "deltaTime": 120,
        "channel": 0,
        "note": 78,
        "velocity": 0
      },
      {
        "type": "midi",
        "subType": "noteOn",
        "typeByte": 144,
        "deltaTime": 0,
        "channel": 0,
        "note": 76,
        "velocity": 81
      },
      {
        "type": "midi",
        "subType": "controller",
        "typeByte": 176,
        "deltaTime": 118,
        "channel": 0,
        "controllerType": 64,
        "value": 0
      },
      {
        "type": "midi",
        "subType": "controller",
        "typeByte": 176,
        "deltaTime": 0,
        "channel": 0,
        "controllerType": 64,
        "value": 0
      },
      {
        "type": "midi",
        "subType": "noteOff",
        "typeByte": 128,
        "deltaTime": 2,
        "channel": 0,
        "note": 76,
        "velocity": 0
      },
      {
        "type": "midi",
        "subType": "controller",
        "typeByte": 176,
        "deltaTime": 0,
        "channel": 0,
        "controllerType": 64,
        "value": 127
      },
      {
        "type": "midi",
        "subType": "controller",
        "typeByte": 176,
        "deltaTime": 0,
        "channel": 0,
        "controllerType": 64,
        "value": 127
      },
      {
        "type": "midi",
        "subType": "noteOn",
        "typeByte": 144,
        "deltaTime": 0,
        "channel": 0,
        "note": 75,
        "velocity": 74
      },
      {
        "type": "midi",
        "subType": "noteOff",
        "typeByte": 128,
        "deltaTime": 120,
        "channel": 0,
        "note": 75,
        "velocity": 0
      },
      {
        "type": "midi",
        "subType": "noteOn",
        "typeByte": 144,
        "deltaTime": 0,
        "channel": 0,
        "note": 78,
        "velocity": 66
      },
      {
        "type": "midi",
        "subType": "noteOff",
        "typeByte": 128,
        "deltaTime": 120,
        "channel": 0,
        "note": 78,
        "velocity": 0
      },
      {
        "type": "midi",
        "subType": "noteOn",
        "typeByte": 144,
        "deltaTime": 0,
        "channel": 0,
        "note": 71,
        "velocity": 67
      },
      {
        "type": "midi",
        "subType": "noteOff",
        "typeByte": 128,
        "deltaTime": 120,
        "channel": 0,
        "note": 71,
        "velocity": 0
      },
      {
        "type": "midi",
        "subType": "noteOn",
        "typeByte": 144,
        "deltaTime": 0,
        "channel": 0,
        "note": 75,
        "velocity": 64
      },
      {
        "type": "midi",
        "subType": "controller",
        "typeByte": 176,
        "deltaTime": 118,
        "channel": 0,
        "controllerType": 64,
        "value": 0
      },
      {
        "type": "midi",
        "subType": "controller",
        "typeByte": 176,
        "deltaTime": 0,
        "channel": 0,
        "controllerType": 64,
        "value": 0
      },
      {
        "type": "midi",
        "subType": "noteOff",
        "typeByte": 128,
        "deltaTime": 2,
        "channel": 0,
        "note": 75,
        "velocity": 0
      },
      {
        "type": "midi",
        "subType": "controller",
        "typeByte": 176,
        "deltaTime": 0,
        "channel": 0,
        "controllerType": 64,
        "value": 127
      },
      {
        "type": "midi",
        "subType": "controller",
        "typeByte": 176,
        "deltaTime": 0,
        "channel": 0,
        "controllerType": 64,
        "value": 127
      },
      {
        "type": "midi",
        "subType": "noteOn",
        "typeByte": 144,
        "deltaTime": 0,
        "channel": 0,
        "note": 76,
        "velocity": 84
      },
      {
        "type": "midi",
        "subType": "controller",
        "typeByte": 176,
        "deltaTime": 478,
        "channel": 0,
        "controllerType": 64,
        "value": 0
      },
      {
        "type": "midi",
        "subType": "controller",
        "typeByte": 176,
        "deltaTime": 0,
        "channel": 0,
        "controllerType": 64,
        "value": 0
      },
      {
        "type": "midi",
        "subType": "noteOff",
        "typeByte": 128,
        "deltaTime": 2,
        "channel": 0,
        "note": 76,
        "velocity": 0
      },
      {
        "type": "midi",
        "subType": "controller",
        "typeByte": 176,
        "deltaTime": 0,
        "channel": 0,
        "controllerType": 64,
        "value": 127
      },
      {
        "type": "midi",
        "subType": "controller",
        "typeByte": 176,
        "deltaTime": 0,
        "channel": 0,
        "controllerType": 64,
        "value": 127
      },
      {
        "type": "midi",
        "subType": "controller",
        "typeByte": 176,
        "deltaTime": 478,
        "channel": 0,
        "controllerType": 64,
        "value": 0
      },
      {
        "type": "midi",
        "subType": "controller",
        "typeByte": 176,
        "deltaTime": 0,
        "channel": 0,
        "controllerType": 64,
        "value": 0
      },
      {
        "type": "midi",
        "subType": "controller",
        "typeByte": 176,
        "deltaTime": 2,
        "channel": 0,
        "controllerType": 64,
        "value": 127
      },
      {
        "type": "midi",
        "subType": "controller",
        "typeByte": 176,
        "deltaTime": 0,
        "channel": 0,
        "controllerType": 64,
        "value": 127
      },
      {
        "type": "midi",
        "subType": "noteOn",
        "typeByte": 144,
        "deltaTime": 120,
        "channel": 0,
        "note": 79,
        "velocity": 89
      },
      {
        "type": "midi",
        "subType": "noteOff",
        "typeByte": 128,
        "deltaTime": 120,
        "channel": 0,
        "note": 79,
        "velocity": 0
      },
      {
        "type": "midi",
        "subType": "noteOn",
        "typeByte": 144,
        "deltaTime": 0,
        "channel": 0,
        "note": 82,
        "velocity": 88
      },
      {
        "type": "midi",
        "subType": "noteOff",
        "typeByte": 128,
        "deltaTime": 120,
        "channel": 0,
        "note": 82,
        "velocity": 0
      },
      {
        "type": "midi",
        "subType": "noteOn",
        "typeByte": 144,
        "deltaTime": 0,
        "channel": 0,
        "note": 79,
        "velocity": 88
      },
      {
        "type": "midi",
        "subType": "controller",
        "typeByte": 176,
        "deltaTime": 118,
        "channel": 0,
        "controllerType": 64,
        "value": 0
      },
      {
        "type": "midi",
        "subType": "controller",
        "typeByte": 176,
        "deltaTime": 0,
        "channel": 0,
        "controllerType": 64,
        "value": 0
      },
      {
        "type": "midi",
        "subType": "noteOff",
        "typeByte": 128,
        "deltaTime": 2,
        "channel": 0,
        "note": 79,
        "velocity": 0
      },
      {
        "type": "midi",
        "subType": "controller",
        "typeByte": 176,
        "deltaTime": 0,
        "channel": 0,
        "controllerType": 64,
        "value": 127
      },
      {
        "type": "midi",
        "subType": "controller",
        "typeByte": 176,
        "deltaTime": 0,
        "channel": 0,
        "controllerType": 64,
        "value": 127
      },
      {
        "type": "midi",
        "subType": "noteOn",
        "typeByte": 144,
        "deltaTime": 0,
        "channel": 0,
        "note": 76,
        "velocity": 79
      },
      {
        "type": "midi",
        "subType": "noteOff",
        "typeByte": 128,
        "deltaTime": 120,
        "channel": 0,
        "note": 76,
        "velocity": 0
      },
      {
        "type": "midi",
        "subType": "noteOn",
        "typeByte": 144,
        "deltaTime": 0,
        "channel": 0,
        "note": 79,
        "velocity": 84
      },
      {
        "type": "midi",
        "subType": "noteOff",
        "typeByte": 128,
        "deltaTime": 120,
        "channel": 0,
        "note": 79,
        "velocity": 0
      },
      {
        "type": "midi",
        "subType": "noteOn",
        "typeByte": 144,
        "deltaTime": 0,
        "channel": 0,
        "note": 73,
        "velocity": 86
      },
      {
        "type": "midi",
        "subType": "noteOff",
        "typeByte": 128,
        "deltaTime": 120,
        "channel": 0,
        "note": 73,
        "velocity": 0
      },
      {
        "type": "midi",
        "subType": "noteOn",
        "typeByte": 144,
        "deltaTime": 0,
        "channel": 0,
        "note": 76,
        "velocity": 84
      },
      {
        "type": "midi",
        "subType": "controller",
        "typeByte": 176,
        "deltaTime": 118,
        "channel": 0,
        "controllerType": 64,
        "value": 0
      },
      {
        "type": "midi",
        "subType": "controller",
        "typeByte": 176,
        "deltaTime": 0,
        "channel": 0,
        "controllerType": 64,
        "value": 0
      },
      {
        "type": "midi",
        "subType": "noteOff",
        "typeByte": 128,
        "deltaTime": 2,
        "channel": 0,
        "note": 76,
        "velocity": 0
      },
      {
        "type": "midi",
        "subType": "controller",
        "typeByte": 176,
        "deltaTime": 0,
        "channel": 0,
        "controllerType": 64,
        "value": 127
      },
      {
        "type": "midi",
        "subType": "controller",
        "typeByte": 176,
        "deltaTime": 0,
        "channel": 0,
        "controllerType": 64,
        "value": 127
      },
      {
        "type": "midi",
        "subType": "noteOn",
        "typeByte": 144,
        "deltaTime": 0,
        "channel": 0,
        "note": 79,
        "velocity": 96
      },
      {
        "type": "midi",
        "subType": "noteOff",
        "typeByte": 128,
        "deltaTime": 120,
        "channel": 0,
        "note": 79,
        "velocity": 0
      },
      {
        "type": "midi",
        "subType": "noteOn",
        "typeByte": 144,
        "deltaTime": 0,
        "channel": 0,
        "note": 76,
        "velocity": 80
      },
      {
        "type": "midi",
        "subType": "noteOff",
        "typeByte": 128,
        "deltaTime": 120,
        "channel": 0,
        "note": 76,
        "velocity": 0
      },
      {
        "type": "midi",
        "subType": "noteOn",
        "typeByte": 144,
        "deltaTime": 0,
        "channel": 0,
        "note": 73,
        "velocity": 85
      },
      {
        "type": "midi",
        "subType": "noteOff",
        "typeByte": 128,
        "deltaTime": 120,
        "channel": 0,
        "note": 73,
        "velocity": 0
      },
      {
        "type": "midi",
        "subType": "noteOn",
        "typeByte": 144,
        "deltaTime": 0,
        "channel": 0,
        "note": 76,
        "velocity": 70
      },
      {
        "type": "midi",
        "subType": "controller",
        "typeByte": 176,
        "deltaTime": 118,
        "channel": 0,
        "controllerType": 64,
        "value": 0
      },
      {
        "type": "midi",
        "subType": "controller",
        "typeByte": 176,
        "deltaTime": 0,
        "channel": 0,
        "controllerType": 64,
        "value": 0
      },
      {
        "type": "midi",
        "subType": "noteOff",
        "typeByte": 128,
        "deltaTime": 2,
        "channel": 0,
        "note": 76,
        "velocity": 0
      },
      {
        "type": "midi",
        "subType": "controller",
        "typeByte": 176,
        "deltaTime": 0,
        "channel": 0,
        "controllerType": 64,
        "value": 127
      },
      {
        "type": "midi",
        "subType": "controller",
        "typeByte": 176,
        "deltaTime": 0,
        "channel": 0,
        "controllerType": 64,
        "value": 127
      },
      {
        "type": "midi",
        "subType": "noteOn",
        "typeByte": 144,
        "deltaTime": 0,
        "channel": 0,
        "note": 69,
        "velocity": 84
      },
      {
        "type": "midi",
        "subType": "noteOff",
        "typeByte": 128,
        "deltaTime": 240,
        "channel": 0,
        "note": 69,
        "velocity": 0
      },
      {
        "type": "midi",
        "subType": "controller",
        "typeByte": 176,
        "deltaTime": 238,
        "channel": 0,
        "controllerType": 64,
        "value": 0
      },
      {
        "type": "midi",
        "subType": "controller",
        "typeByte": 176,
        "deltaTime": 0,
        "channel": 0,
        "controllerType": 64,
        "value": 0
      },
      {
        "type": "midi",
        "subType": "controller",
        "typeByte": 176,
        "deltaTime": 2,
        "channel": 0,
        "controllerType": 64,
        "value": 127
      },
      {
        "type": "midi",
        "subType": "controller",
        "typeByte": 176,
        "deltaTime": 0,
        "channel": 0,
        "controllerType": 64,
        "value": 127
      },
      {
        "type": "midi",
        "subType": "noteOn",
        "typeByte": 144,
        "deltaTime": 120,
        "channel": 0,
        "note": 77,
        "velocity": 81
      },
      {
        "type": "midi",
        "subType": "noteOn",
        "typeByte": 144,
        "deltaTime": 120,
        "channel": 0,
        "note": 81,
        "velocity": 99
      },
      {
        "type": "midi",
        "subType": "noteOff",
        "typeByte": 128,
        "deltaTime": 120,
        "channel": 0,
        "note": 81,
        "velocity": 0
      },
      {
        "type": "midi",
        "subType": "noteOn",
        "typeByte": 144,
        "deltaTime": 0,
        "channel": 0,
        "note": 77,
        "velocity": 81
      },
      {
        "type": "midi",
        "subType": "controller",
        "typeByte": 176,
        "deltaTime": 118,
        "channel": 0,
        "controllerType": 64,
        "value": 0
      },
      {
        "type": "midi",
        "subType": "controller",
        "typeByte": 176,
        "deltaTime": 0,
        "channel": 0,
        "controllerType": 64,
        "value": 0
      },
      {
        "type": "midi",
        "subType": "noteOff",
        "typeByte": 128,
        "deltaTime": 2,
        "channel": 0,
        "note": 77,
        "velocity": 0
      },
      {
        "type": "midi",
        "subType": "controller",
        "typeByte": 176,
        "deltaTime": 0,
        "channel": 0,
        "controllerType": 64,
        "value": 127
      },
      {
        "type": "midi",
        "subType": "controller",
        "typeByte": 176,
        "deltaTime": 0,
        "channel": 0,
        "controllerType": 64,
        "value": 127
      },
      {
        "type": "midi",
        "subType": "noteOn",
        "typeByte": 144,
        "deltaTime": 0,
        "channel": 0,
        "note": 74,
        "velocity": 80
      },
      {
        "type": "midi",
        "subType": "noteOff",
        "typeByte": 128,
        "deltaTime": 120,
        "channel": 0,
        "note": 74,
        "velocity": 0
      },
      {
        "type": "midi",
        "subType": "noteOff",
        "typeByte": 128,
        "deltaTime": 0,
        "channel": 0,
        "note": 77,
        "velocity": 0
      },
      {
        "type": "midi",
        "subType": "noteOn",
        "typeByte": 144,
        "deltaTime": 0,
        "channel": 0,
        "note": 77,
        "velocity": 72
      },
      {
        "type": "midi",
        "subType": "noteOff",
        "typeByte": 128,
        "deltaTime": 120,
        "channel": 0,
        "note": 77,
        "velocity": 0
      },
      {
        "type": "midi",
        "subType": "noteOn",
        "typeByte": 144,
        "deltaTime": 0,
        "channel": 0,
        "note": 71,
        "velocity": 66
      },
      {
        "type": "midi",
        "subType": "noteOff",
        "typeByte": 128,
        "deltaTime": 120,
        "channel": 0,
        "note": 71,
        "velocity": 0
      },
      {
        "type": "midi",
        "subType": "noteOn",
        "typeByte": 144,
        "deltaTime": 0,
        "channel": 0,
        "note": 74,
        "velocity": 74
      },
      {
        "type": "midi",
        "subType": "controller",
        "typeByte": 176,
        "deltaTime": 118,
        "channel": 0,
        "controllerType": 64,
        "value": 0
      },
      {
        "type": "midi",
        "subType": "controller",
        "typeByte": 176,
        "deltaTime": 0,
        "channel": 0,
        "controllerType": 64,
        "value": 0
      },
      {
        "type": "midi",
        "subType": "noteOff",
        "typeByte": 128,
        "deltaTime": 2,
        "channel": 0,
        "note": 74,
        "velocity": 0
      },
      {
        "type": "midi",
        "subType": "controller",
        "typeByte": 176,
        "deltaTime": 0,
        "channel": 0,
        "controllerType": 64,
        "value": 127
      },
      {
        "type": "midi",
        "subType": "controller",
        "typeByte": 176,
        "deltaTime": 0,
        "channel": 0,
        "controllerType": 64,
        "value": 127
      },
      {
        "type": "midi",
        "subType": "noteOn",
        "typeByte": 144,
        "deltaTime": 0,
        "channel": 0,
        "note": 77,
        "velocity": 73
      },
      {
        "type": "midi",
        "subType": "noteOff",
        "typeByte": 128,
        "deltaTime": 120,
        "channel": 0,
        "note": 77,
        "velocity": 0
      },
      {
        "type": "midi",
        "subType": "noteOn",
        "typeByte": 144,
        "deltaTime": 0,
        "channel": 0,
        "note": 74,
        "velocity": 59
      },
      {
        "type": "midi",
        "subType": "noteOff",
        "typeByte": 128,
        "deltaTime": 120,
        "channel": 0,
        "note": 74,
        "velocity": 0
      },
      {
        "type": "midi",
        "subType": "noteOn",
        "typeByte": 144,
        "deltaTime": 0,
        "channel": 0,
        "note": 71,
        "velocity": 71
      },
      {
        "type": "midi",
        "subType": "noteOff",
        "typeByte": 128,
        "deltaTime": 120,
        "channel": 0,
        "note": 71,
        "velocity": 0
      },
      {
        "type": "midi",
        "subType": "noteOn",
        "typeByte": 144,
        "deltaTime": 0,
        "channel": 0,
        "note": 74,
        "velocity": 69
      },
      {
        "type": "midi",
        "subType": "controller",
        "typeByte": 176,
        "deltaTime": 118,
        "channel": 0,
        "controllerType": 64,
        "value": 0
      },
      {
        "type": "midi",
        "subType": "controller",
        "typeByte": 176,
        "deltaTime": 0,
        "channel": 0,
        "controllerType": 64,
        "value": 0
      },
      {
        "type": "midi",
        "subType": "noteOff",
        "typeByte": 128,
        "deltaTime": 2,
        "channel": 0,
        "note": 74,
        "velocity": 0
      },
      {
        "type": "midi",
        "subType": "controller",
        "typeByte": 176,
        "deltaTime": 0,
        "channel": 0,
        "controllerType": 64,
        "value": 127
      },
      {
        "type": "midi",
        "subType": "controller",
        "typeByte": 176,
        "deltaTime": 0,
        "channel": 0,
        "controllerType": 64,
        "value": 127
      },
      {
        "type": "midi",
        "subType": "noteOn",
        "typeByte": 144,
        "deltaTime": 0,
        "channel": 0,
        "note": 67,
        "velocity": 62
      },
      {
        "type": "midi",
        "subType": "controller",
        "typeByte": 176,
        "deltaTime": 478,
        "channel": 0,
        "controllerType": 64,
        "value": 0
      },
      {
        "type": "midi",
        "subType": "controller",
        "typeByte": 176,
        "deltaTime": 0,
        "channel": 0,
        "controllerType": 64,
        "value": 0
      },
      {
        "type": "midi",
        "subType": "noteOff",
        "typeByte": 128,
        "deltaTime": 2,
        "channel": 0,
        "note": 67,
        "velocity": 0
      },
      {
        "type": "midi",
        "subType": "controller",
        "typeByte": 176,
        "deltaTime": 0,
        "channel": 0,
        "controllerType": 64,
        "value": 127
      },
      {
        "type": "midi",
        "subType": "controller",
        "typeByte": 176,
        "deltaTime": 0,
        "channel": 0,
        "controllerType": 64,
        "value": 127
      },
      {
        "type": "midi",
        "subType": "noteOn",
        "typeByte": 144,
        "deltaTime": 120,
        "channel": 0,
        "note": 76,
        "velocity": 67
      },
      {
        "type": "midi",
        "subType": "noteOff",
        "typeByte": 128,
        "deltaTime": 120,
        "channel": 0,
        "note": 76,
        "velocity": 0
      },
      {
        "type": "midi",
        "subType": "noteOn",
        "typeByte": 144,
        "deltaTime": 0,
        "channel": 0,
        "note": 79,
        "velocity": 79
      },
      {
        "type": "midi",
        "subType": "noteOff",
        "typeByte": 128,
        "deltaTime": 120,
        "channel": 0,
        "note": 79,
        "velocity": 0
      },
      {
        "type": "midi",
        "subType": "noteOn",
        "typeByte": 144,
        "deltaTime": 0,
        "channel": 0,
        "note": 76,
        "velocity": 54
      },
      {
        "type": "midi",
        "subType": "controller",
        "typeByte": 176,
        "deltaTime": 118,
        "channel": 0,
        "controllerType": 64,
        "value": 0
      },
      {
        "type": "midi",
        "subType": "controller",
        "typeByte": 176,
        "deltaTime": 0,
        "channel": 0,
        "controllerType": 64,
        "value": 0
      },
      {
        "type": "midi",
        "subType": "noteOff",
        "typeByte": 128,
        "deltaTime": 2,
        "channel": 0,
        "note": 76,
        "velocity": 0
      },
      {
        "type": "midi",
        "subType": "controller",
        "typeByte": 176,
        "deltaTime": 0,
        "channel": 0,
        "controllerType": 64,
        "value": 127
      },
      {
        "type": "midi",
        "subType": "controller",
        "typeByte": 176,
        "deltaTime": 0,
        "channel": 0,
        "controllerType": 64,
        "value": 127
      },
      {
        "type": "midi",
        "subType": "noteOn",
        "typeByte": 144,
        "deltaTime": 0,
        "channel": 0,
        "note": 72,
        "velocity": 67
      },
      {
        "type": "midi",
        "subType": "noteOff",
        "typeByte": 128,
        "deltaTime": 120,
        "channel": 0,
        "note": 72,
        "velocity": 0
      },
      {
        "type": "midi",
        "subType": "noteOn",
        "typeByte": 144,
        "deltaTime": 0,
        "channel": 0,
        "note": 76,
        "velocity": 79
      },
      {
        "type": "midi",
        "subType": "noteOff",
        "typeByte": 128,
        "deltaTime": 120,
        "channel": 0,
        "note": 76,
        "velocity": 0
      },
      {
        "type": "midi",
        "subType": "noteOn",
        "typeByte": 144,
        "deltaTime": 0,
        "channel": 0,
        "note": 69,
        "velocity": 69
      },
      {
        "type": "midi",
        "subType": "noteOff",
        "typeByte": 128,
        "deltaTime": 120,
        "channel": 0,
        "note": 69,
        "velocity": 0
      },
      {
        "type": "midi",
        "subType": "noteOn",
        "typeByte": 144,
        "deltaTime": 0,
        "channel": 0,
        "note": 72,
        "velocity": 68
      },
      {
        "type": "midi",
        "subType": "controller",
        "typeByte": 176,
        "deltaTime": 118,
        "channel": 0,
        "controllerType": 64,
        "value": 0
      },
      {
        "type": "midi",
        "subType": "controller",
        "typeByte": 176,
        "deltaTime": 0,
        "channel": 0,
        "controllerType": 64,
        "value": 0
      },
      {
        "type": "midi",
        "subType": "noteOff",
        "typeByte": 128,
        "deltaTime": 2,
        "channel": 0,
        "note": 72,
        "velocity": 0
      },
      {
        "type": "midi",
        "subType": "controller",
        "typeByte": 176,
        "deltaTime": 0,
        "channel": 0,
        "controllerType": 64,
        "value": 127
      },
      {
        "type": "midi",
        "subType": "controller",
        "typeByte": 176,
        "deltaTime": 0,
        "channel": 0,
        "controllerType": 64,
        "value": 127
      },
      {
        "type": "midi",
        "subType": "noteOn",
        "typeByte": 144,
        "deltaTime": 0,
        "channel": 0,
        "note": 75,
        "velocity": 57
      },
      {
        "type": "midi",
        "subType": "noteOff",
        "typeByte": 128,
        "deltaTime": 120,
        "channel": 0,
        "note": 75,
        "velocity": 0
      },
      {
        "type": "midi",
        "subType": "noteOn",
        "typeByte": 144,
        "deltaTime": 0,
        "channel": 0,
        "note": 72,
        "velocity": 82
      },
      {
        "type": "midi",
        "subType": "noteOff",
        "typeByte": 128,
        "deltaTime": 120,
        "channel": 0,
        "note": 72,
        "velocity": 0
      },
      {
        "type": "midi",
        "subType": "noteOn",
        "typeByte": 144,
        "deltaTime": 0,
        "channel": 0,
        "note": 69,
        "velocity": 80
      },
      {
        "type": "midi",
        "subType": "noteOff",
        "typeByte": 128,
        "deltaTime": 120,
        "channel": 0,
        "note": 69,
        "velocity": 0
      },
      {
        "type": "midi",
        "subType": "noteOn",
        "typeByte": 144,
        "deltaTime": 0,
        "channel": 0,
        "note": 72,
        "velocity": 82
      },
      {
        "type": "midi",
        "subType": "controller",
        "typeByte": 176,
        "deltaTime": 118,
        "channel": 0,
        "controllerType": 64,
        "value": 0
      },
      {
        "type": "midi",
        "subType": "controller",
        "typeByte": 176,
        "deltaTime": 0,
        "channel": 0,
        "controllerType": 64,
        "value": 0
      },
      {
        "type": "midi",
        "subType": "noteOff",
        "typeByte": 128,
        "deltaTime": 2,
        "channel": 0,
        "note": 72,
        "velocity": 0
      },
      {
        "type": "midi",
        "subType": "controller",
        "typeByte": 176,
        "deltaTime": 0,
        "channel": 0,
        "controllerType": 64,
        "value": 127
      },
      {
        "type": "midi",
        "subType": "controller",
        "typeByte": 176,
        "deltaTime": 0,
        "channel": 0,
        "controllerType": 64,
        "value": 127
      },
      {
        "type": "midi",
        "subType": "noteOn",
        "typeByte": 144,
        "deltaTime": 0,
        "channel": 0,
        "note": 66,
        "velocity": 70
      },
      {
        "type": "midi",
        "subType": "controller",
        "typeByte": 176,
        "deltaTime": 478,
        "channel": 0,
        "controllerType": 64,
        "value": 0
      },
      {
        "type": "midi",
        "subType": "controller",
        "typeByte": 176,
        "deltaTime": 0,
        "channel": 0,
        "controllerType": 64,
        "value": 0
      },
      {
        "type": "midi",
        "subType": "noteOff",
        "typeByte": 128,
        "deltaTime": 2,
        "channel": 0,
        "note": 66,
        "velocity": 0
      },
      {
        "type": "midi",
        "subType": "controller",
        "typeByte": 176,
        "deltaTime": 0,
        "channel": 0,
        "controllerType": 64,
        "value": 127
      },
      {
        "type": "midi",
        "subType": "controller",
        "typeByte": 176,
        "deltaTime": 0,
        "channel": 0,
        "controllerType": 64,
        "value": 127
      },
      {
        "type": "midi",
        "subType": "noteOn",
        "typeByte": 144,
        "deltaTime": 120,
        "channel": 0,
        "note": 74,
        "velocity": 81
      },
      {
        "type": "midi",
        "subType": "noteOff",
        "typeByte": 128,
        "deltaTime": 120,
        "channel": 0,
        "note": 74,
        "velocity": 0
      },
      {
        "type": "midi",
        "subType": "noteOn",
        "typeByte": 144,
        "deltaTime": 0,
        "channel": 0,
        "note": 77,
        "velocity": 70
      },
      {
        "type": "midi",
        "subType": "noteOff",
        "typeByte": 128,
        "deltaTime": 120,
        "channel": 0,
        "note": 77,
        "velocity": 0
      },
      {
        "type": "midi",
        "subType": "noteOn",
        "typeByte": 144,
        "deltaTime": 0,
        "channel": 0,
        "note": 74,
        "velocity": 63
      },
      {
        "type": "midi",
        "subType": "controller",
        "typeByte": 176,
        "deltaTime": 118,
        "channel": 0,
        "controllerType": 64,
        "value": 0
      },
      {
        "type": "midi",
        "subType": "controller",
        "typeByte": 176,
        "deltaTime": 0,
        "channel": 0,
        "controllerType": 64,
        "value": 0
      },
      {
        "type": "midi",
        "subType": "noteOff",
        "typeByte": 128,
        "deltaTime": 2,
        "channel": 0,
        "note": 74,
        "velocity": 0
      },
      {
        "type": "midi",
        "subType": "controller",
        "typeByte": 176,
        "deltaTime": 0,
        "channel": 0,
        "controllerType": 64,
        "value": 127
      },
      {
        "type": "midi",
        "subType": "controller",
        "typeByte": 176,
        "deltaTime": 0,
        "channel": 0,
        "controllerType": 64,
        "value": 127
      },
      {
        "type": "midi",
        "subType": "noteOn",
        "typeByte": 144,
        "deltaTime": 0,
        "channel": 0,
        "note": 71,
        "velocity": 57
      },
      {
        "type": "midi",
        "subType": "noteOff",
        "typeByte": 128,
        "deltaTime": 120,
        "channel": 0,
        "note": 71,
        "velocity": 0
      },
      {
        "type": "midi",
        "subType": "noteOn",
        "typeByte": 144,
        "deltaTime": 0,
        "channel": 0,
        "note": 74,
        "velocity": 67
      },
      {
        "type": "midi",
        "subType": "noteOff",
        "typeByte": 128,
        "deltaTime": 120,
        "channel": 0,
        "note": 74,
        "velocity": 0
      },
      {
        "type": "midi",
        "subType": "noteOn",
        "typeByte": 144,
        "deltaTime": 0,
        "channel": 0,
        "note": 68,
        "velocity": 48
      },
      {
        "type": "midi",
        "subType": "noteOff",
        "typeByte": 128,
        "deltaTime": 120,
        "channel": 0,
        "note": 68,
        "velocity": 0
      },
      {
        "type": "midi",
        "subType": "noteOn",
        "typeByte": 144,
        "deltaTime": 0,
        "channel": 0,
        "note": 71,
        "velocity": 66
      },
      {
        "type": "midi",
        "subType": "controller",
        "typeByte": 176,
        "deltaTime": 118,
        "channel": 0,
        "controllerType": 64,
        "value": 0
      },
      {
        "type": "midi",
        "subType": "controller",
        "typeByte": 176,
        "deltaTime": 0,
        "channel": 0,
        "controllerType": 64,
        "value": 0
      },
      {
        "type": "midi",
        "subType": "noteOff",
        "typeByte": 128,
        "deltaTime": 2,
        "channel": 0,
        "note": 71,
        "velocity": 0
      },
      {
        "type": "midi",
        "subType": "controller",
        "typeByte": 176,
        "deltaTime": 0,
        "channel": 0,
        "controllerType": 64,
        "value": 127
      },
      {
        "type": "midi",
        "subType": "controller",
        "typeByte": 176,
        "deltaTime": 0,
        "channel": 0,
        "controllerType": 64,
        "value": 127
      },
      {
        "type": "midi",
        "subType": "noteOn",
        "typeByte": 144,
        "deltaTime": 0,
        "channel": 0,
        "note": 74,
        "velocity": 53
      },
      {
        "type": "midi",
        "subType": "noteOff",
        "typeByte": 128,
        "deltaTime": 120,
        "channel": 0,
        "note": 74,
        "velocity": 0
      },
      {
        "type": "midi",
        "subType": "noteOn",
        "typeByte": 144,
        "deltaTime": 0,
        "channel": 0,
        "note": 71,
        "velocity": 75
      },
      {
        "type": "midi",
        "subType": "noteOff",
        "typeByte": 128,
        "deltaTime": 120,
        "channel": 0,
        "note": 71,
        "velocity": 0
      },
      {
        "type": "midi",
        "subType": "noteOn",
        "typeByte": 144,
        "deltaTime": 0,
        "channel": 0,
        "note": 68,
        "velocity": 52
      },
      {
        "type": "midi",
        "subType": "noteOff",
        "typeByte": 128,
        "deltaTime": 120,
        "channel": 0,
        "note": 68,
        "velocity": 0
      },
      {
        "type": "midi",
        "subType": "noteOn",
        "typeByte": 144,
        "deltaTime": 0,
        "channel": 0,
        "note": 71,
        "velocity": 58
      },
      {
        "type": "midi",
        "subType": "controller",
        "typeByte": 176,
        "deltaTime": 118,
        "channel": 0,
        "controllerType": 64,
        "value": 0
      },
      {
        "type": "midi",
        "subType": "controller",
        "typeByte": 176,
        "deltaTime": 0,
        "channel": 0,
        "controllerType": 64,
        "value": 0
      },
      {
        "type": "midi",
        "subType": "noteOff",
        "typeByte": 128,
        "deltaTime": 2,
        "channel": 0,
        "note": 71,
        "velocity": 0
      },
      {
        "type": "midi",
        "subType": "controller",
        "typeByte": 176,
        "deltaTime": 0,
        "channel": 0,
        "controllerType": 64,
        "value": 127
      },
      {
        "type": "midi",
        "subType": "controller",
        "typeByte": 176,
        "deltaTime": 0,
        "channel": 0,
        "controllerType": 64,
        "value": 127
      },
      {
        "type": "midi",
        "subType": "noteOn",
        "typeByte": 144,
        "deltaTime": 0,
        "channel": 0,
        "note": 64,
        "velocity": 69
      },
      {
        "type": "midi",
        "subType": "controller",
        "typeByte": 176,
        "deltaTime": 478,
        "channel": 0,
        "controllerType": 64,
        "value": 0
      },
      {
        "type": "midi",
        "subType": "controller",
        "typeByte": 176,
        "deltaTime": 0,
        "channel": 0,
        "controllerType": 64,
        "value": 0
      },
      {
        "type": "midi",
        "subType": "noteOff",
        "typeByte": 128,
        "deltaTime": 2,
        "channel": 0,
        "note": 64,
        "velocity": 0
      },
      {
        "type": "midi",
        "subType": "controller",
        "typeByte": 176,
        "deltaTime": 0,
        "channel": 0,
        "controllerType": 64,
        "value": 127
      },
      {
        "type": "midi",
        "subType": "controller",
        "typeByte": 176,
        "deltaTime": 0,
        "channel": 0,
        "controllerType": 64,
        "value": 127
      },
      {
        "type": "midi",
        "subType": "noteOn",
        "typeByte": 144,
        "deltaTime": 120,
        "channel": 0,
        "note": 64,
        "velocity": 49
      },
      {
        "type": "midi",
        "subType": "noteOff",
        "typeByte": 128,
        "deltaTime": 120,
        "channel": 0,
        "note": 64,
        "velocity": 0
      },
      {
        "type": "midi",
        "subType": "noteOn",
        "typeByte": 144,
        "deltaTime": 0,
        "channel": 0,
        "note": 69,
        "velocity": 60
      },
      {
        "type": "midi",
        "subType": "noteOff",
        "typeByte": 128,
        "deltaTime": 120,
        "channel": 0,
        "note": 69,
        "velocity": 0
      },
      {
        "type": "midi",
        "subType": "noteOn",
        "typeByte": 144,
        "deltaTime": 0,
        "channel": 0,
        "note": 72,
        "velocity": 62
      },
      {
        "type": "midi",
        "subType": "controller",
        "typeByte": 176,
        "deltaTime": 118,
        "channel": 0,
        "controllerType": 64,
        "value": 0
      },
      {
        "type": "midi",
        "subType": "controller",
        "typeByte": 176,
        "deltaTime": 0,
        "channel": 0,
        "controllerType": 64,
        "value": 0
      },
      {
        "type": "midi",
        "subType": "noteOff",
        "typeByte": 128,
        "deltaTime": 2,
        "channel": 0,
        "note": 72,
        "velocity": 0
      },
      {
        "type": "midi",
        "subType": "controller",
        "typeByte": 176,
        "deltaTime": 0,
        "channel": 0,
        "controllerType": 64,
        "value": 127
      },
      {
        "type": "midi",
        "subType": "controller",
        "typeByte": 176,
        "deltaTime": 0,
        "channel": 0,
        "controllerType": 64,
        "value": 127
      },
      {
        "type": "midi",
        "subType": "noteOn",
        "typeByte": 144,
        "deltaTime": 0,
        "channel": 0,
        "note": 71,
        "velocity": 50
      },
      {
        "type": "midi",
        "subType": "noteOff",
        "typeByte": 128,
        "deltaTime": 120,
        "channel": 0,
        "note": 71,
        "velocity": 0
      },
      {
        "type": "midi",
        "subType": "noteOn",
        "typeByte": 144,
        "deltaTime": 0,
        "channel": 0,
        "note": 64,
        "velocity": 46
      },
      {
        "type": "midi",
        "subType": "noteOff",
        "typeByte": 128,
        "deltaTime": 120,
        "channel": 0,
        "note": 64,
        "velocity": 0
      },
      {
        "type": "midi",
        "subType": "noteOn",
        "typeByte": 144,
        "deltaTime": 0,
        "channel": 0,
        "note": 71,
        "velocity": 58
      },
      {
        "type": "midi",
        "subType": "noteOff",
        "typeByte": 128,
        "deltaTime": 120,
        "channel": 0,
        "note": 71,
        "velocity": 0
      },
      {
        "type": "midi",
        "subType": "noteOn",
        "typeByte": 144,
        "deltaTime": 0,
        "channel": 0,
        "note": 74,
        "velocity": 71
      },
      {
        "type": "midi",
        "subType": "controller",
        "typeByte": 176,
        "deltaTime": 118,
        "channel": 0,
        "controllerType": 64,
        "value": 0
      },
      {
        "type": "midi",
        "subType": "controller",
        "typeByte": 176,
        "deltaTime": 0,
        "channel": 0,
        "controllerType": 64,
        "value": 0
      },
      {
        "type": "midi",
        "subType": "noteOff",
        "typeByte": 128,
        "deltaTime": 2,
        "channel": 0,
        "note": 74,
        "velocity": 0
      },
      {
        "type": "midi",
        "subType": "controller",
        "typeByte": 176,
        "deltaTime": 0,
        "channel": 0,
        "controllerType": 64,
        "value": 127
      },
      {
        "type": "midi",
        "subType": "controller",
        "typeByte": 176,
        "deltaTime": 0,
        "channel": 0,
        "controllerType": 64,
        "value": 127
      },
      {
        "type": "midi",
        "subType": "noteOn",
        "typeByte": 144,
        "deltaTime": 0,
        "channel": 0,
        "note": 72,
        "velocity": 67
      },
      {
        "type": "midi",
        "subType": "noteOff",
        "typeByte": 128,
        "deltaTime": 240,
        "channel": 0,
        "note": 72,
        "velocity": 0
      },
      {
        "type": "midi",
        "subType": "noteOn",
        "typeByte": 144,
        "deltaTime": 0,
        "channel": 0,
        "note": 69,
        "velocity": 58
      },
      {
        "type": "midi",
        "subType": "controller",
        "typeByte": 176,
        "deltaTime": 238,
        "channel": 0,
        "controllerType": 64,
        "value": 0
      },
      {
        "type": "midi",
        "subType": "controller",
        "typeByte": 176,
        "deltaTime": 0,
        "channel": 0,
        "controllerType": 64,
        "value": 0
      },
      {
        "type": "midi",
        "subType": "noteOff",
        "typeByte": 128,
        "deltaTime": 2,
        "channel": 0,
        "note": 69,
        "velocity": 0
      },
      {
        "type": "midi",
        "subType": "controller",
        "typeByte": 176,
        "deltaTime": 0,
        "channel": 0,
        "controllerType": 64,
        "value": 127
      },
      {
        "type": "midi",
        "subType": "controller",
        "typeByte": 176,
        "deltaTime": 0,
        "channel": 0,
        "controllerType": 64,
        "value": 127
      },
      {
        "type": "midi",
        "subType": "noteOn",
        "typeByte": 144,
        "deltaTime": 0,
        "channel": 0,
        "note": 68,
        "velocity": 72
      },
      {
        "type": "midi",
        "subType": "noteOff",
        "typeByte": 128,
        "deltaTime": 240,
        "channel": 0,
        "note": 68,
        "velocity": 0
      },
      {
        "type": "midi",
        "subType": "noteOn",
        "typeByte": 144,
        "deltaTime": 0,
        "channel": 0,
        "note": 64,
        "velocity": 47
      },
      {
        "type": "midi",
        "subType": "controller",
        "typeByte": 176,
        "deltaTime": 238,
        "channel": 0,
        "controllerType": 64,
        "value": 0
      },
      {
        "type": "midi",
        "subType": "controller",
        "typeByte": 176,
        "deltaTime": 0,
        "channel": 0,
        "controllerType": 64,
        "value": 0
      },
      {
        "type": "midi",
        "subType": "noteOff",
        "typeByte": 128,
        "deltaTime": 2,
        "channel": 0,
        "note": 64,
        "velocity": 0
      },
      {
        "type": "midi",
        "subType": "controller",
        "typeByte": 176,
        "deltaTime": 0,
        "channel": 0,
        "controllerType": 64,
        "value": 127
      },
      {
        "type": "midi",
        "subType": "controller",
        "typeByte": 176,
        "deltaTime": 0,
        "channel": 0,
        "controllerType": 64,
        "value": 127
      },
      {
        "type": "midi",
        "subType": "noteOn",
        "typeByte": 144,
        "deltaTime": 0,
        "channel": 0,
        "note": 69,
        "velocity": 60
      },
      {
        "type": "midi",
        "subType": "noteOff",
        "typeByte": 128,
        "deltaTime": 120,
        "channel": 0,
        "note": 69,
        "velocity": 0
      },
      {
        "type": "midi",
        "subType": "noteOn",
        "typeByte": 144,
        "deltaTime": 0,
        "channel": 0,
        "note": 72,
        "velocity": 63
      },
      {
        "type": "midi",
        "subType": "noteOff",
        "typeByte": 128,
        "deltaTime": 120,
        "channel": 0,
        "note": 72,
        "velocity": 0
      },
      {
        "type": "midi",
        "subType": "noteOn",
        "typeByte": 144,
        "deltaTime": 0,
        "channel": 0,
        "note": 76,
        "velocity": 58
      },
      {
        "type": "midi",
        "subType": "noteOff",
        "typeByte": 128,
        "deltaTime": 120,
        "channel": 0,
        "note": 76,
        "velocity": 0
      },
      {
        "type": "midi",
        "subType": "noteOn",
        "typeByte": 144,
        "deltaTime": 0,
        "channel": 0,
        "note": 72,
        "velocity": 59
      },
      {
        "type": "midi",
        "subType": "controller",
        "typeByte": 176,
        "deltaTime": 118,
        "channel": 0,
        "controllerType": 64,
        "value": 0
      },
      {
        "type": "midi",
        "subType": "controller",
        "typeByte": 176,
        "deltaTime": 0,
        "channel": 0,
        "controllerType": 64,
        "value": 0
      },
      {
        "type": "midi",
        "subType": "noteOff",
        "typeByte": 128,
        "deltaTime": 2,
        "channel": 0,
        "note": 72,
        "velocity": 0
      },
      {
        "type": "midi",
        "subType": "controller",
        "typeByte": 176,
        "deltaTime": 0,
        "channel": 0,
        "controllerType": 64,
        "value": 127
      },
      {
        "type": "midi",
        "subType": "controller",
        "typeByte": 176,
        "deltaTime": 0,
        "channel": 0,
        "controllerType": 64,
        "value": 127
      },
      {
        "type": "midi",
        "subType": "noteOn",
        "typeByte": 144,
        "deltaTime": 0,
        "channel": 0,
        "note": 69,
        "velocity": 79
      },
      {
        "type": "midi",
        "subType": "noteOff",
        "typeByte": 128,
        "deltaTime": 120,
        "channel": 0,
        "note": 69,
        "velocity": 0
      },
      {
        "type": "midi",
        "subType": "noteOn",
        "typeByte": 144,
        "deltaTime": 0,
        "channel": 0,
        "note": 72,
        "velocity": 57
      },
      {
        "type": "midi",
        "subType": "noteOff",
        "typeByte": 128,
        "deltaTime": 120,
        "channel": 0,
        "note": 72,
        "velocity": 0
      },
      {
        "type": "midi",
        "subType": "noteOn",
        "typeByte": 144,
        "deltaTime": 0,
        "channel": 0,
        "note": 66,
        "velocity": 52
      },
      {
        "type": "midi",
        "subType": "noteOff",
        "typeByte": 128,
        "deltaTime": 120,
        "channel": 0,
        "note": 66,
        "velocity": 0
      },
      {
        "type": "midi",
        "subType": "noteOn",
        "typeByte": 144,
        "deltaTime": 0,
        "channel": 0,
        "note": 69,
        "velocity": 64
      },
      {
        "type": "midi",
        "subType": "controller",
        "typeByte": 176,
        "deltaTime": 118,
        "channel": 0,
        "controllerType": 64,
        "value": 0
      },
      {
        "type": "midi",
        "subType": "controller",
        "typeByte": 176,
        "deltaTime": 0,
        "channel": 0,
        "controllerType": 64,
        "value": 0
      },
      {
        "type": "midi",
        "subType": "noteOff",
        "typeByte": 128,
        "deltaTime": 2,
        "channel": 0,
        "note": 69,
        "velocity": 0
      },
      {
        "type": "midi",
        "subType": "controller",
        "typeByte": 176,
        "deltaTime": 0,
        "channel": 0,
        "controllerType": 64,
        "value": 127
      },
      {
        "type": "midi",
        "subType": "controller",
        "typeByte": 176,
        "deltaTime": 0,
        "channel": 0,
        "controllerType": 64,
        "value": 127
      },
      {
        "type": "midi",
        "subType": "noteOn",
        "typeByte": 144,
        "deltaTime": 0,
        "channel": 0,
        "note": 72,
        "velocity": 71
      },
      {
        "type": "midi",
        "subType": "noteOff",
        "typeByte": 128,
        "deltaTime": 120,
        "channel": 0,
        "note": 72,
        "velocity": 0
      },
      {
        "type": "midi",
        "subType": "noteOn",
        "typeByte": 144,
        "deltaTime": 0,
        "channel": 0,
        "note": 69,
        "velocity": 51
      },
      {
        "type": "midi",
        "subType": "noteOff",
        "typeByte": 128,
        "deltaTime": 120,
        "channel": 0,
        "note": 69,
        "velocity": 0
      },
      {
        "type": "midi",
        "subType": "noteOn",
        "typeByte": 144,
        "deltaTime": 0,
        "channel": 0,
        "note": 66,
        "velocity": 55
      },
      {
        "type": "midi",
        "subType": "noteOff",
        "typeByte": 128,
        "deltaTime": 120,
        "channel": 0,
        "note": 66,
        "velocity": 0
      },
      {
        "type": "midi",
        "subType": "noteOn",
        "typeByte": 144,
        "deltaTime": 0,
        "channel": 0,
        "note": 69,
        "velocity": 62
      },
      {
        "type": "midi",
        "subType": "controller",
        "typeByte": 176,
        "deltaTime": 118,
        "channel": 0,
        "controllerType": 64,
        "value": 0
      },
      {
        "type": "midi",
        "subType": "controller",
        "typeByte": 176,
        "deltaTime": 0,
        "channel": 0,
        "controllerType": 64,
        "value": 0
      },
      {
        "type": "midi",
        "subType": "noteOff",
        "typeByte": 128,
        "deltaTime": 2,
        "channel": 0,
        "note": 69,
        "velocity": 0
      },
      {
        "type": "midi",
        "subType": "controller",
        "typeByte": 176,
        "deltaTime": 0,
        "channel": 0,
        "controllerType": 64,
        "value": 127
      },
      {
        "type": "midi",
        "subType": "controller",
        "typeByte": 176,
        "deltaTime": 0,
        "channel": 0,
        "controllerType": 64,
        "value": 127
      },
      {
        "type": "midi",
        "subType": "noteOn",
        "typeByte": 144,
        "deltaTime": 0,
        "channel": 0,
        "note": 63,
        "velocity": 58
      },
      {
        "type": "midi",
        "subType": "noteOff",
        "typeByte": 128,
        "deltaTime": 120,
        "channel": 0,
        "note": 63,
        "velocity": 0
      },
      {
        "type": "midi",
        "subType": "noteOn",
        "typeByte": 144,
        "deltaTime": 0,
        "channel": 0,
        "note": 72,
        "velocity": 45
      },
      {
        "type": "midi",
        "subType": "noteOff",
        "typeByte": 128,
        "deltaTime": 120,
        "channel": 0,
        "note": 72,
        "velocity": 0
      },
      {
        "type": "midi",
        "subType": "noteOn",
        "typeByte": 144,
        "deltaTime": 0,
        "channel": 0,
        "note": 71,
        "velocity": 72
      },
      {
        "type": "midi",
        "subType": "noteOff",
        "typeByte": 128,
        "deltaTime": 120,
        "channel": 0,
        "note": 71,
        "velocity": 0
      },
      {
        "type": "midi",
        "subType": "noteOn",
        "typeByte": 144,
        "deltaTime": 0,
        "channel": 0,
        "note": 69,
        "velocity": 53
      },
      {
        "type": "midi",
        "subType": "controller",
        "typeByte": 176,
        "deltaTime": 118,
        "channel": 0,
        "controllerType": 64,
        "value": 0
      },
      {
        "type": "midi",
        "subType": "controller",
        "typeByte": 176,
        "deltaTime": 0,
        "channel": 0,
        "controllerType": 64,
        "value": 0
      },
      {
        "type": "midi",
        "subType": "noteOff",
        "typeByte": 128,
        "deltaTime": 2,
        "channel": 0,
        "note": 69,
        "velocity": 0
      },
      {
        "type": "midi",
        "subType": "controller",
        "typeByte": 176,
        "deltaTime": 0,
        "channel": 0,
        "controllerType": 64,
        "value": 127
      },
      {
        "type": "midi",
        "subType": "controller",
        "typeByte": 176,
        "deltaTime": 0,
        "channel": 0,
        "controllerType": 64,
        "value": 127
      },
      {
        "type": "midi",
        "subType": "noteOn",
        "typeByte": 144,
        "deltaTime": 0,
        "channel": 0,
        "note": 68,
        "velocity": 52
      },
      {
        "type": "midi",
        "subType": "noteOff",
        "typeByte": 128,
        "deltaTime": 120,
        "channel": 0,
        "note": 68,
        "velocity": 0
      },
      {
        "type": "midi",
        "subType": "noteOn",
        "typeByte": 144,
        "deltaTime": 0,
        "channel": 0,
        "note": 71,
        "velocity": 76
      },
      {
        "type": "midi",
        "subType": "noteOff",
        "typeByte": 128,
        "deltaTime": 120,
        "channel": 0,
        "note": 71,
        "velocity": 0
      },
      {
        "type": "midi",
        "subType": "noteOn",
        "typeByte": 144,
        "deltaTime": 0,
        "channel": 0,
        "note": 74,
        "velocity": 58
      },
      {
        "type": "midi",
        "subType": "noteOff",
        "typeByte": 128,
        "deltaTime": 120,
        "channel": 0,
        "note": 74,
        "velocity": 0
      },
      {
        "type": "midi",
        "subType": "noteOn",
        "typeByte": 144,
        "deltaTime": 0,
        "channel": 0,
        "note": 71,
        "velocity": 63
      },
      {
        "type": "midi",
        "subType": "controller",
        "typeByte": 176,
        "deltaTime": 118,
        "channel": 0,
        "controllerType": 64,
        "value": 0
      },
      {
        "type": "midi",
        "subType": "controller",
        "typeByte": 176,
        "deltaTime": 0,
        "channel": 0,
        "controllerType": 64,
        "value": 0
      },
      {
        "type": "midi",
        "subType": "noteOff",
        "typeByte": 128,
        "deltaTime": 2,
        "channel": 0,
        "note": 71,
        "velocity": 0
      },
      {
        "type": "midi",
        "subType": "controller",
        "typeByte": 176,
        "deltaTime": 0,
        "channel": 0,
        "controllerType": 64,
        "value": 127
      },
      {
        "type": "midi",
        "subType": "controller",
        "typeByte": 176,
        "deltaTime": 0,
        "channel": 0,
        "controllerType": 64,
        "value": 127
      },
      {
        "type": "midi",
        "subType": "noteOn",
        "typeByte": 144,
        "deltaTime": 0,
        "channel": 0,
        "note": 68,
        "velocity": 64
      },
      {
        "type": "midi",
        "subType": "noteOff",
        "typeByte": 128,
        "deltaTime": 120,
        "channel": 0,
        "note": 68,
        "velocity": 0
      },
      {
        "type": "midi",
        "subType": "noteOn",
        "typeByte": 144,
        "deltaTime": 0,
        "channel": 0,
        "note": 71,
        "velocity": 60
      },
      {
        "type": "midi",
        "subType": "noteOff",
        "typeByte": 128,
        "deltaTime": 120,
        "channel": 0,
        "note": 71,
        "velocity": 0
      },
      {
        "type": "midi",
        "subType": "noteOn",
        "typeByte": 144,
        "deltaTime": 0,
        "channel": 0,
        "note": 62,
        "velocity": 56
      },
      {
        "type": "midi",
        "subType": "noteOff",
        "typeByte": 128,
        "deltaTime": 120,
        "channel": 0,
        "note": 62,
        "velocity": 0
      },
      {
        "type": "midi",
        "subType": "noteOn",
        "typeByte": 144,
        "deltaTime": 0,
        "channel": 0,
        "note": 65,
        "velocity": 57
      },
      {
        "type": "midi",
        "subType": "controller",
        "typeByte": 176,
        "deltaTime": 118,
        "channel": 0,
        "controllerType": 64,
        "value": 0
      },
      {
        "type": "midi",
        "subType": "controller",
        "typeByte": 176,
        "deltaTime": 0,
        "channel": 0,
        "controllerType": 64,
        "value": 0
      },
      {
        "type": "midi",
        "subType": "noteOff",
        "typeByte": 128,
        "deltaTime": 2,
        "channel": 0,
        "note": 65,
        "velocity": 0
      },
      {
        "type": "midi",
        "subType": "controller",
        "typeByte": 176,
        "deltaTime": 0,
        "channel": 0,
        "controllerType": 64,
        "value": 127
      },
      {
        "type": "midi",
        "subType": "controller",
        "typeByte": 176,
        "deltaTime": 0,
        "channel": 0,
        "controllerType": 64,
        "value": 127
      },
      {
        "type": "midi",
        "subType": "noteOn",
        "typeByte": 144,
        "deltaTime": 0,
        "channel": 0,
        "note": 68,
        "velocity": 75
      },
      {
        "type": "midi",
        "subType": "noteOff",
        "typeByte": 128,
        "deltaTime": 120,
        "channel": 0,
        "note": 68,
        "velocity": 0
      },
      {
        "type": "midi",
        "subType": "noteOn",
        "typeByte": 144,
        "deltaTime": 0,
        "channel": 0,
        "note": 65,
        "velocity": 50
      },
      {
        "type": "midi",
        "subType": "noteOff",
        "typeByte": 128,
        "deltaTime": 120,
        "channel": 0,
        "note": 65,
        "velocity": 0
      },
      {
        "type": "midi",
        "subType": "noteOn",
        "typeByte": 144,
        "deltaTime": 0,
        "channel": 0,
        "note": 62,
        "velocity": 57
      },
      {
        "type": "midi",
        "subType": "noteOff",
        "typeByte": 128,
        "deltaTime": 120,
        "channel": 0,
        "note": 62,
        "velocity": 0
      },
      {
        "type": "midi",
        "subType": "noteOn",
        "typeByte": 144,
        "deltaTime": 0,
        "channel": 0,
        "note": 65,
        "velocity": 56
      },
      {
        "type": "midi",
        "subType": "controller",
        "typeByte": 176,
        "deltaTime": 118,
        "channel": 0,
        "controllerType": 64,
        "value": 0
      },
      {
        "type": "midi",
        "subType": "controller",
        "typeByte": 176,
        "deltaTime": 0,
        "channel": 0,
        "controllerType": 64,
        "value": 0
      },
      {
        "type": "midi",
        "subType": "noteOff",
        "typeByte": 128,
        "deltaTime": 2,
        "channel": 0,
        "note": 65,
        "velocity": 0
      },
      {
        "type": "midi",
        "subType": "controller",
        "typeByte": 176,
        "deltaTime": 0,
        "channel": 0,
        "controllerType": 64,
        "value": 127
      },
      {
        "type": "midi",
        "subType": "controller",
        "typeByte": 176,
        "deltaTime": 0,
        "channel": 0,
        "controllerType": 64,
        "value": 127
      },
      {
        "type": "midi",
        "subType": "noteOn",
        "typeByte": 144,
        "deltaTime": 0,
        "channel": 0,
        "note": 59,
        "velocity": 62
      },
      {
        "type": "midi",
        "subType": "noteOff",
        "typeByte": 128,
        "deltaTime": 120,
        "channel": 0,
        "note": 59,
        "velocity": 0
      },
      {
        "type": "midi",
        "subType": "noteOn",
        "typeByte": 144,
        "deltaTime": 0,
        "channel": 0,
        "note": 65,
        "velocity": 64
      },
      {
        "type": "midi",
        "subType": "noteOff",
        "typeByte": 128,
        "deltaTime": 120,
        "channel": 0,
        "note": 65,
        "velocity": 0
      },
      {
        "type": "midi",
        "subType": "noteOn",
        "typeByte": 144,
        "deltaTime": 0,
        "channel": 0,
        "note": 64,
        "velocity": 51
      },
      {
        "type": "midi",
        "subType": "noteOff",
        "typeByte": 128,
        "deltaTime": 120,
        "channel": 0,
        "note": 64,
        "velocity": 0
      },
      {
        "type": "midi",
        "subType": "noteOn",
        "typeByte": 144,
        "deltaTime": 0,
        "channel": 0,
        "note": 62,
        "velocity": 58
      },
      {
        "type": "midi",
        "subType": "controller",
        "typeByte": 176,
        "deltaTime": 118,
        "channel": 0,
        "controllerType": 64,
        "value": 0
      },
      {
        "type": "midi",
        "subType": "controller",
        "typeByte": 176,
        "deltaTime": 0,
        "channel": 0,
        "controllerType": 64,
        "value": 0
      },
      {
        "type": "midi",
        "subType": "noteOff",
        "typeByte": 128,
        "deltaTime": 2,
        "channel": 0,
        "note": 62,
        "velocity": 0
      },
      {
        "type": "midi",
        "subType": "controller",
        "typeByte": 176,
        "deltaTime": 0,
        "channel": 0,
        "controllerType": 64,
        "value": 127
      },
      {
        "type": "midi",
        "subType": "controller",
        "typeByte": 176,
        "deltaTime": 0,
        "channel": 0,
        "controllerType": 64,
        "value": 127
      },
      {
        "type": "midi",
        "subType": "noteOn",
        "typeByte": 144,
        "deltaTime": 0,
        "channel": 0,
        "note": 60,
        "velocity": 67
      },
      {
        "type": "midi",
        "subType": "noteOff",
        "typeByte": 128,
        "deltaTime": 120,
        "channel": 0,
        "note": 60,
        "velocity": 0
      },
      {
        "type": "midi",
        "subType": "noteOn",
        "typeByte": 144,
        "deltaTime": 0,
        "channel": 0,
        "note": 64,
        "velocity": 71
      },
      {
        "type": "midi",
        "subType": "noteOff",
        "typeByte": 128,
        "deltaTime": 120,
        "channel": 0,
        "note": 64,
        "velocity": 0
      },
      {
        "type": "midi",
        "subType": "noteOn",
        "typeByte": 144,
        "deltaTime": 0,
        "channel": 0,
        "note": 69,
        "velocity": 48
      },
      {
        "type": "midi",
        "subType": "noteOff",
        "typeByte": 128,
        "deltaTime": 120,
        "channel": 0,
        "note": 69,
        "velocity": 0
      },
      {
        "type": "midi",
        "subType": "noteOn",
        "typeByte": 144,
        "deltaTime": 0,
        "channel": 0,
        "note": 64,
        "velocity": 55
      },
      {
        "type": "midi",
        "subType": "controller",
        "typeByte": 176,
        "deltaTime": 118,
        "channel": 0,
        "controllerType": 64,
        "value": 0
      },
      {
        "type": "midi",
        "subType": "controller",
        "typeByte": 176,
        "deltaTime": 0,
        "channel": 0,
        "controllerType": 64,
        "value": 0
      },
      {
        "type": "midi",
        "subType": "noteOff",
        "typeByte": 128,
        "deltaTime": 2,
        "channel": 0,
        "note": 64,
        "velocity": 0
      },
      {
        "type": "midi",
        "subType": "controller",
        "typeByte": 176,
        "deltaTime": 0,
        "channel": 0,
        "controllerType": 64,
        "value": 127
      },
      {
        "type": "midi",
        "subType": "controller",
        "typeByte": 176,
        "deltaTime": 0,
        "channel": 0,
        "controllerType": 64,
        "value": 127
      },
      {
        "type": "midi",
        "subType": "noteOn",
        "typeByte": 144,
        "deltaTime": 0,
        "channel": 0,
        "note": 60,
        "velocity": 49
      },
      {
        "type": "midi",
        "subType": "noteOff",
        "typeByte": 128,
        "deltaTime": 120,
        "channel": 0,
        "note": 60,
        "velocity": 0
      },
      {
        "type": "midi",
        "subType": "noteOn",
        "typeByte": 144,
        "deltaTime": 0,
        "channel": 0,
        "note": 64,
        "velocity": 51
      },
      {
        "type": "midi",
        "subType": "noteOff",
        "typeByte": 128,
        "deltaTime": 120,
        "channel": 0,
        "note": 64,
        "velocity": 0
      },
      {
        "type": "midi",
        "subType": "noteOn",
        "typeByte": 144,
        "deltaTime": 0,
        "channel": 0,
        "note": 57,
        "velocity": 58
      },
      {
        "type": "midi",
        "subType": "noteOff",
        "typeByte": 128,
        "deltaTime": 120,
        "channel": 0,
        "note": 57,
        "velocity": 0
      },
      {
        "type": "midi",
        "subType": "noteOn",
        "typeByte": 144,
        "deltaTime": 0,
        "channel": 0,
        "note": 60,
        "velocity": 49
      },
      {
        "type": "midi",
        "subType": "controller",
        "typeByte": 176,
        "deltaTime": 118,
        "channel": 0,
        "controllerType": 64,
        "value": 0
      },
      {
        "type": "midi",
        "subType": "controller",
        "typeByte": 176,
        "deltaTime": 0,
        "channel": 0,
        "controllerType": 64,
        "value": 0
      },
      {
        "type": "midi",
        "subType": "noteOff",
        "typeByte": 128,
        "deltaTime": 2,
        "channel": 0,
        "note": 60,
        "velocity": 0
      },
      {
        "type": "midi",
        "subType": "controller",
        "typeByte": 176,
        "deltaTime": 0,
        "channel": 0,
        "controllerType": 64,
        "value": 127
      },
      {
        "type": "midi",
        "subType": "controller",
        "typeByte": 176,
        "deltaTime": 0,
        "channel": 0,
        "controllerType": 64,
        "value": 127
      },
      {
        "type": "midi",
        "subType": "noteOn",
        "typeByte": 144,
        "deltaTime": 0,
        "channel": 0,
        "note": 63,
        "velocity": 60
      },
      {
        "type": "midi",
        "subType": "noteOff",
        "typeByte": 128,
        "deltaTime": 120,
        "channel": 0,
        "note": 63,
        "velocity": 0
      },
      {
        "type": "midi",
        "subType": "noteOn",
        "typeByte": 144,
        "deltaTime": 0,
        "channel": 0,
        "note": 60,
        "velocity": 57
      },
      {
        "type": "midi",
        "subType": "noteOff",
        "typeByte": 128,
        "deltaTime": 120,
        "channel": 0,
        "note": 60,
        "velocity": 0
      },
      {
        "type": "midi",
        "subType": "noteOn",
        "typeByte": 144,
        "deltaTime": 0,
        "channel": 0,
        "note": 57,
        "velocity": 48
      },
      {
        "type": "midi",
        "subType": "noteOff",
        "typeByte": 128,
        "deltaTime": 120,
        "channel": 0,
        "note": 57,
        "velocity": 0
      },
      {
        "type": "midi",
        "subType": "noteOn",
        "typeByte": 144,
        "deltaTime": 0,
        "channel": 0,
        "note": 60,
        "velocity": 52
      },
      {
        "type": "midi",
        "subType": "controller",
        "typeByte": 176,
        "deltaTime": 118,
        "channel": 0,
        "controllerType": 64,
        "value": 0
      },
      {
        "type": "midi",
        "subType": "controller",
        "typeByte": 176,
        "deltaTime": 0,
        "channel": 0,
        "controllerType": 64,
        "value": 0
      },
      {
        "type": "midi",
        "subType": "noteOff",
        "typeByte": 128,
        "deltaTime": 2,
        "channel": 0,
        "note": 60,
        "velocity": 0
      },
      {
        "type": "midi",
        "subType": "controller",
        "typeByte": 176,
        "deltaTime": 0,
        "channel": 0,
        "controllerType": 64,
        "value": 127
      },
      {
        "type": "midi",
        "subType": "controller",
        "typeByte": 176,
        "deltaTime": 0,
        "channel": 0,
        "controllerType": 64,
        "value": 127
      },
      {
        "type": "midi",
        "subType": "noteOn",
        "typeByte": 144,
        "deltaTime": 0,
        "channel": 0,
        "note": 54,
        "velocity": 54
      },
      {
        "type": "midi",
        "subType": "noteOff",
        "typeByte": 128,
        "deltaTime": 120,
        "channel": 0,
        "note": 54,
        "velocity": 0
      },
      {
        "type": "midi",
        "subType": "noteOn",
        "typeByte": 144,
        "deltaTime": 0,
        "channel": 0,
        "note": 60,
        "velocity": 58
      },
      {
        "type": "midi",
        "subType": "noteOff",
        "typeByte": 128,
        "deltaTime": 120,
        "channel": 0,
        "note": 60,
        "velocity": 0
      },
      {
        "type": "midi",
        "subType": "noteOn",
        "typeByte": 144,
        "deltaTime": 0,
        "channel": 0,
        "note": 59,
        "velocity": 47
      },
      {
        "type": "midi",
        "subType": "noteOff",
        "typeByte": 128,
        "deltaTime": 120,
        "channel": 0,
        "note": 59,
        "velocity": 0
      },
      {
        "type": "midi",
        "subType": "noteOn",
        "typeByte": 144,
        "deltaTime": 0,
        "channel": 0,
        "note": 57,
        "velocity": 50
      },
      {
        "type": "midi",
        "subType": "controller",
        "typeByte": 176,
        "deltaTime": 118,
        "channel": 0,
        "controllerType": 64,
        "value": 0
      },
      {
        "type": "midi",
        "subType": "controller",
        "typeByte": 176,
        "deltaTime": 0,
        "channel": 0,
        "controllerType": 64,
        "value": 0
      },
      {
        "type": "midi",
        "subType": "noteOff",
        "typeByte": 128,
        "deltaTime": 2,
        "channel": 0,
        "note": 57,
        "velocity": 0
      },
      {
        "type": "midi",
        "subType": "controller",
        "typeByte": 176,
        "deltaTime": 0,
        "channel": 0,
        "controllerType": 64,
        "value": 127
      },
      {
        "type": "midi",
        "subType": "controller",
        "typeByte": 176,
        "deltaTime": 0,
        "channel": 0,
        "controllerType": 64,
        "value": 127
      },
      {
        "type": "midi",
        "subType": "noteOn",
        "typeByte": 144,
        "deltaTime": 0,
        "channel": 0,
        "note": 56,
        "velocity": 66
      },
      {
        "type": "midi",
        "subType": "noteOff",
        "typeByte": 128,
        "deltaTime": 240,
        "channel": 0,
        "note": 56,
        "velocity": 0
      },
      {
        "type": "midi",
        "subType": "noteOn",
        "typeByte": 144,
        "deltaTime": 0,
        "channel": 0,
        "note": 71,
        "velocity": 68
      },
      {
        "type": "midi",
        "subType": "controller",
        "typeByte": 176,
        "deltaTime": 238,
        "channel": 0,
        "controllerType": 64,
        "value": 0
      },
      {
        "type": "midi",
        "subType": "controller",
        "typeByte": 176,
        "deltaTime": 0,
        "channel": 0,
        "controllerType": 64,
        "value": 0
      },
      {
        "type": "midi",
        "subType": "noteOff",
        "typeByte": 128,
        "deltaTime": 2,
        "channel": 0,
        "note": 71,
        "velocity": 0
      },
      {
        "type": "midi",
        "subType": "controller",
        "typeByte": 176,
        "deltaTime": 0,
        "channel": 0,
        "controllerType": 64,
        "value": 127
      },
      {
        "type": "midi",
        "subType": "controller",
        "typeByte": 176,
        "deltaTime": 0,
        "channel": 0,
        "controllerType": 64,
        "value": 127
      },
      {
        "type": "midi",
        "subType": "noteOn",
        "typeByte": 144,
        "deltaTime": 0,
        "channel": 0,
        "note": 68,
        "velocity": 63
      },
      {
        "type": "midi",
        "subType": "noteOff",
        "typeByte": 128,
        "deltaTime": 240,
        "channel": 0,
        "note": 68,
        "velocity": 0
      },
      {
        "type": "midi",
        "subType": "noteOn",
        "typeByte": 144,
        "deltaTime": 0,
        "channel": 0,
        "note": 64,
        "velocity": 60
      },
      {
        "type": "midi",
        "subType": "controller",
        "typeByte": 176,
        "deltaTime": 238,
        "channel": 0,
        "controllerType": 64,
        "value": 0
      },
      {
        "type": "midi",
        "subType": "controller",
        "typeByte": 176,
        "deltaTime": 0,
        "channel": 0,
        "controllerType": 64,
        "value": 0
      },
      {
        "type": "midi",
        "subType": "noteOff",
        "typeByte": 128,
        "deltaTime": 2,
        "channel": 0,
        "note": 64,
        "velocity": 0
      },
      {
        "type": "midi",
        "subType": "controller",
        "typeByte": 176,
        "deltaTime": 0,
        "channel": 0,
        "controllerType": 64,
        "value": 127
      },
      {
        "type": "midi",
        "subType": "controller",
        "typeByte": 176,
        "deltaTime": 0,
        "channel": 0,
        "controllerType": 64,
        "value": 127
      },
      {
        "type": "midi",
        "subType": "noteOn",
        "typeByte": 144,
        "deltaTime": 120,
        "channel": 0,
        "note": 64,
        "velocity": 51
      },
      {
        "type": "midi",
        "subType": "noteOff",
        "typeByte": 128,
        "deltaTime": 120,
        "channel": 0,
        "note": 64,
        "velocity": 0
      },
      {
        "type": "midi",
        "subType": "noteOn",
        "typeByte": 144,
        "deltaTime": 0,
        "channel": 0,
        "note": 69,
        "velocity": 58
      },
      {
        "type": "midi",
        "subType": "noteOff",
        "typeByte": 128,
        "deltaTime": 120,
        "channel": 0,
        "note": 69,
        "velocity": 0
      },
      {
        "type": "midi",
        "subType": "noteOn",
        "typeByte": 144,
        "deltaTime": 0,
        "channel": 0,
        "note": 72,
        "velocity": 79
      },
      {
        "type": "midi",
        "subType": "controller",
        "typeByte": 176,
        "deltaTime": 118,
        "channel": 0,
        "controllerType": 64,
        "value": 0
      },
      {
        "type": "midi",
        "subType": "controller",
        "typeByte": 176,
        "deltaTime": 0,
        "channel": 0,
        "controllerType": 64,
        "value": 0
      },
      {
        "type": "midi",
        "subType": "noteOff",
        "typeByte": 128,
        "deltaTime": 2,
        "channel": 0,
        "note": 72,
        "velocity": 0
      },
      {
        "type": "midi",
        "subType": "controller",
        "typeByte": 176,
        "deltaTime": 0,
        "channel": 0,
        "controllerType": 64,
        "value": 127
      },
      {
        "type": "midi",
        "subType": "controller",
        "typeByte": 176,
        "deltaTime": 0,
        "channel": 0,
        "controllerType": 64,
        "value": 127
      },
      {
        "type": "midi",
        "subType": "noteOn",
        "typeByte": 144,
        "deltaTime": 0,
        "channel": 0,
        "note": 71,
        "velocity": 75
      },
      {
        "type": "midi",
        "subType": "noteOff",
        "typeByte": 128,
        "deltaTime": 120,
        "channel": 0,
        "note": 71,
        "velocity": 0
      },
      {
        "type": "midi",
        "subType": "noteOn",
        "typeByte": 144,
        "deltaTime": 0,
        "channel": 0,
        "note": 64,
        "velocity": 63
      },
      {
        "type": "midi",
        "subType": "noteOff",
        "typeByte": 128,
        "deltaTime": 120,
        "channel": 0,
        "note": 64,
        "velocity": 0
      },
      {
        "type": "midi",
        "subType": "noteOn",
        "typeByte": 144,
        "deltaTime": 0,
        "channel": 0,
        "note": 71,
        "velocity": 72
      },
      {
        "type": "midi",
        "subType": "noteOff",
        "typeByte": 128,
        "deltaTime": 120,
        "channel": 0,
        "note": 71,
        "velocity": 0
      },
      {
        "type": "midi",
        "subType": "noteOn",
        "typeByte": 144,
        "deltaTime": 0,
        "channel": 0,
        "note": 74,
        "velocity": 67
      },
      {
        "type": "midi",
        "subType": "controller",
        "typeByte": 176,
        "deltaTime": 118,
        "channel": 0,
        "controllerType": 64,
        "value": 0
      },
      {
        "type": "midi",
        "subType": "controller",
        "typeByte": 176,
        "deltaTime": 0,
        "channel": 0,
        "controllerType": 64,
        "value": 0
      },
      {
        "type": "midi",
        "subType": "noteOff",
        "typeByte": 128,
        "deltaTime": 2,
        "channel": 0,
        "note": 74,
        "velocity": 0
      },
      {
        "type": "midi",
        "subType": "controller",
        "typeByte": 176,
        "deltaTime": 0,
        "channel": 0,
        "controllerType": 64,
        "value": 127
      },
      {
        "type": "midi",
        "subType": "controller",
        "typeByte": 176,
        "deltaTime": 0,
        "channel": 0,
        "controllerType": 64,
        "value": 127
      },
      {
        "type": "midi",
        "subType": "noteOn",
        "typeByte": 144,
        "deltaTime": 0,
        "channel": 0,
        "note": 72,
        "velocity": 67
      },
      {
        "type": "midi",
        "subType": "noteOff",
        "typeByte": 128,
        "deltaTime": 120,
        "channel": 0,
        "note": 72,
        "velocity": 0
      },
      {
        "type": "midi",
        "subType": "noteOn",
        "typeByte": 144,
        "deltaTime": 0,
        "channel": 0,
        "note": 69,
        "velocity": 70
      },
      {
        "type": "midi",
        "subType": "noteOff",
        "typeByte": 128,
        "deltaTime": 120,
        "channel": 0,
        "note": 69,
        "velocity": 0
      },
      {
        "type": "midi",
        "subType": "noteOn",
        "typeByte": 144,
        "deltaTime": 0,
        "channel": 0,
        "note": 72,
        "velocity": 67
      },
      {
        "type": "midi",
        "subType": "noteOff",
        "typeByte": 128,
        "deltaTime": 120,
        "channel": 0,
        "note": 72,
        "velocity": 0
      },
      {
        "type": "midi",
        "subType": "noteOn",
        "typeByte": 144,
        "deltaTime": 0,
        "channel": 0,
        "note": 76,
        "velocity": 80
      },
      {
        "type": "midi",
        "subType": "controller",
        "typeByte": 176,
        "deltaTime": 118,
        "channel": 0,
        "controllerType": 64,
        "value": 0
      },
      {
        "type": "midi",
        "subType": "controller",
        "typeByte": 176,
        "deltaTime": 0,
        "channel": 0,
        "controllerType": 64,
        "value": 0
      },
      {
        "type": "midi",
        "subType": "noteOff",
        "typeByte": 128,
        "deltaTime": 2,
        "channel": 0,
        "note": 76,
        "velocity": 0
      },
      {
        "type": "midi",
        "subType": "controller",
        "typeByte": 176,
        "deltaTime": 0,
        "channel": 0,
        "controllerType": 64,
        "value": 127
      },
      {
        "type": "midi",
        "subType": "controller",
        "typeByte": 176,
        "deltaTime": 0,
        "channel": 0,
        "controllerType": 64,
        "value": 127
      },
      {
        "type": "midi",
        "subType": "noteOn",
        "typeByte": 144,
        "deltaTime": 0,
        "channel": 0,
        "note": 74,
        "velocity": 77
      },
      {
        "type": "midi",
        "subType": "noteOff",
        "typeByte": 128,
        "deltaTime": 120,
        "channel": 0,
        "note": 74,
        "velocity": 0
      },
      {
        "type": "midi",
        "subType": "noteOn",
        "typeByte": 144,
        "deltaTime": 0,
        "channel": 0,
        "note": 71,
        "velocity": 60
      },
      {
        "type": "midi",
        "subType": "noteOff",
        "typeByte": 128,
        "deltaTime": 120,
        "channel": 0,
        "note": 71,
        "velocity": 0
      },
      {
        "type": "midi",
        "subType": "noteOn",
        "typeByte": 144,
        "deltaTime": 0,
        "channel": 0,
        "note": 74,
        "velocity": 79
      },
      {
        "type": "midi",
        "subType": "noteOff",
        "typeByte": 128,
        "deltaTime": 120,
        "channel": 0,
        "note": 74,
        "velocity": 0
      },
      {
        "type": "midi",
        "subType": "noteOn",
        "typeByte": 144,
        "deltaTime": 0,
        "channel": 0,
        "note": 77,
        "velocity": 79
      },
      {
        "type": "midi",
        "subType": "controller",
        "typeByte": 176,
        "deltaTime": 118,
        "channel": 0,
        "controllerType": 64,
        "value": 0
      },
      {
        "type": "midi",
        "subType": "controller",
        "typeByte": 176,
        "deltaTime": 0,
        "channel": 0,
        "controllerType": 64,
        "value": 0
      },
      {
        "type": "midi",
        "subType": "noteOff",
        "typeByte": 128,
        "deltaTime": 2,
        "channel": 0,
        "note": 77,
        "velocity": 0
      },
      {
        "type": "midi",
        "subType": "controller",
        "typeByte": 176,
        "deltaTime": 0,
        "channel": 0,
        "controllerType": 64,
        "value": 127
      },
      {
        "type": "midi",
        "subType": "controller",
        "typeByte": 176,
        "deltaTime": 0,
        "channel": 0,
        "controllerType": 64,
        "value": 127
      },
      {
        "type": "midi",
        "subType": "noteOn",
        "typeByte": 144,
        "deltaTime": 0,
        "channel": 0,
        "note": 76,
        "velocity": 84
      },
      {
        "type": "midi",
        "subType": "noteOff",
        "typeByte": 128,
        "deltaTime": 120,
        "channel": 0,
        "note": 76,
        "velocity": 0
      },
      {
        "type": "midi",
        "subType": "noteOn",
        "typeByte": 144,
        "deltaTime": 0,
        "channel": 0,
        "note": 72,
        "velocity": 72
      },
      {
        "type": "midi",
        "subType": "noteOff",
        "typeByte": 128,
        "deltaTime": 120,
        "channel": 0,
        "note": 72,
        "velocity": 0
      },
      {
        "type": "midi",
        "subType": "noteOn",
        "typeByte": 144,
        "deltaTime": 0,
        "channel": 0,
        "note": 76,
        "velocity": 84
      },
      {
        "type": "midi",
        "subType": "noteOff",
        "typeByte": 128,
        "deltaTime": 120,
        "channel": 0,
        "note": 76,
        "velocity": 0
      },
      {
        "type": "midi",
        "subType": "noteOn",
        "typeByte": 144,
        "deltaTime": 0,
        "channel": 0,
        "note": 79,
        "velocity": 86
      },
      {
        "type": "midi",
        "subType": "controller",
        "typeByte": 176,
        "deltaTime": 118,
        "channel": 0,
        "controllerType": 64,
        "value": 0
      },
      {
        "type": "midi",
        "subType": "controller",
        "typeByte": 176,
        "deltaTime": 0,
        "channel": 0,
        "controllerType": 64,
        "value": 0
      },
      {
        "type": "midi",
        "subType": "noteOff",
        "typeByte": 128,
        "deltaTime": 2,
        "channel": 0,
        "note": 79,
        "velocity": 0
      },
      {
        "type": "midi",
        "subType": "controller",
        "typeByte": 176,
        "deltaTime": 0,
        "channel": 0,
        "controllerType": 64,
        "value": 127
      },
      {
        "type": "midi",
        "subType": "controller",
        "typeByte": 176,
        "deltaTime": 0,
        "channel": 0,
        "controllerType": 64,
        "value": 127
      },
      {
        "type": "midi",
        "subType": "noteOn",
        "typeByte": 144,
        "deltaTime": 0,
        "channel": 0,
        "note": 77,
        "velocity": 80
      },
      {
        "type": "midi",
        "subType": "noteOff",
        "typeByte": 128,
        "deltaTime": 120,
        "channel": 0,
        "note": 77,
        "velocity": 0
      },
      {
        "type": "midi",
        "subType": "noteOn",
        "typeByte": 144,
        "deltaTime": 0,
        "channel": 0,
        "note": 76,
        "velocity": 75
      },
      {
        "type": "midi",
        "subType": "noteOff",
        "typeByte": 128,
        "deltaTime": 120,
        "channel": 0,
        "note": 76,
        "velocity": 0
      },
      {
        "type": "midi",
        "subType": "noteOn",
        "typeByte": 144,
        "deltaTime": 0,
        "channel": 0,
        "note": 74,
        "velocity": 67
      },
      {
        "type": "midi",
        "subType": "noteOff",
        "typeByte": 128,
        "deltaTime": 120,
        "channel": 0,
        "note": 74,
        "velocity": 0
      },
      {
        "type": "midi",
        "subType": "noteOn",
        "typeByte": 144,
        "deltaTime": 0,
        "channel": 0,
        "note": 72,
        "velocity": 60
      },
      {
        "type": "midi",
        "subType": "controller",
        "typeByte": 176,
        "deltaTime": 118,
        "channel": 0,
        "controllerType": 64,
        "value": 0
      },
      {
        "type": "midi",
        "subType": "controller",
        "typeByte": 176,
        "deltaTime": 0,
        "channel": 0,
        "controllerType": 64,
        "value": 0
      },
      {
        "type": "midi",
        "subType": "noteOff",
        "typeByte": 128,
        "deltaTime": 2,
        "channel": 0,
        "note": 72,
        "velocity": 0
      },
      {
        "type": "midi",
        "subType": "controller",
        "typeByte": 176,
        "deltaTime": 0,
        "channel": 0,
        "controllerType": 64,
        "value": 127
      },
      {
        "type": "midi",
        "subType": "controller",
        "typeByte": 176,
        "deltaTime": 0,
        "channel": 0,
        "controllerType": 64,
        "value": 127
      },
      {
        "type": "midi",
        "subType": "noteOn",
        "typeByte": 144,
        "deltaTime": 0,
        "channel": 0,
        "note": 71,
        "velocity": 66
      },
      {
        "type": "midi",
        "subType": "noteOff",
        "typeByte": 128,
        "deltaTime": 120,
        "channel": 0,
        "note": 71,
        "velocity": 0
      },
      {
        "type": "midi",
        "subType": "noteOn",
        "typeByte": 144,
        "deltaTime": 0,
        "channel": 0,
        "note": 72,
        "velocity": 65
      },
      {
        "type": "midi",
        "subType": "noteOff",
        "typeByte": 128,
        "deltaTime": 120,
        "channel": 0,
        "note": 72,
        "velocity": 0
      },
      {
        "type": "midi",
        "subType": "noteOn",
        "typeByte": 144,
        "deltaTime": 0,
        "channel": 0,
        "note": 74,
        "velocity": 82
      },
      {
        "type": "midi",
        "subType": "noteOff",
        "typeByte": 128,
        "deltaTime": 120,
        "channel": 0,
        "note": 74,
        "velocity": 0
      },
      {
        "type": "midi",
        "subType": "noteOn",
        "typeByte": 144,
        "deltaTime": 0,
        "channel": 0,
        "note": 76,
        "velocity": 76
      },
      {
        "type": "midi",
        "subType": "controller",
        "typeByte": 176,
        "deltaTime": 118,
        "channel": 0,
        "controllerType": 64,
        "value": 0
      },
      {
        "type": "midi",
        "subType": "controller",
        "typeByte": 176,
        "deltaTime": 0,
        "channel": 0,
        "controllerType": 64,
        "value": 0
      },
      {
        "type": "midi",
        "subType": "noteOff",
        "typeByte": 128,
        "deltaTime": 2,
        "channel": 0,
        "note": 76,
        "velocity": 0
      },
      {
        "type": "midi",
        "subType": "controller",
        "typeByte": 176,
        "deltaTime": 0,
        "channel": 0,
        "controllerType": 64,
        "value": 127
      },
      {
        "type": "midi",
        "subType": "controller",
        "typeByte": 176,
        "deltaTime": 0,
        "channel": 0,
        "controllerType": 64,
        "value": 127
      },
      {
        "type": "midi",
        "subType": "noteOn",
        "typeByte": 144,
        "deltaTime": 0,
        "channel": 0,
        "note": 77,
        "velocity": 86
      },
      {
        "type": "midi",
        "subType": "noteOff",
        "typeByte": 128,
        "deltaTime": 120,
        "channel": 0,
        "note": 77,
        "velocity": 0
      },
      {
        "type": "midi",
        "subType": "noteOn",
        "typeByte": 144,
        "deltaTime": 0,
        "channel": 0,
        "note": 74,
        "velocity": 72
      },
      {
        "type": "midi",
        "subType": "noteOff",
        "typeByte": 128,
        "deltaTime": 120,
        "channel": 0,
        "note": 74,
        "velocity": 0
      },
      {
        "type": "midi",
        "subType": "noteOn",
        "typeByte": 144,
        "deltaTime": 0,
        "channel": 0,
        "note": 80,
        "velocity": 94
      },
      {
        "type": "midi",
        "subType": "noteOff",
        "typeByte": 128,
        "deltaTime": 120,
        "channel": 0,
        "note": 80,
        "velocity": 0
      },
      {
        "type": "midi",
        "subType": "noteOn",
        "typeByte": 144,
        "deltaTime": 0,
        "channel": 0,
        "note": 74,
        "velocity": 67
      },
      {
        "type": "midi",
        "subType": "controller",
        "typeByte": 176,
        "deltaTime": 118,
        "channel": 0,
        "controllerType": 64,
        "value": 0
      },
      {
        "type": "midi",
        "subType": "controller",
        "typeByte": 176,
        "deltaTime": 0,
        "channel": 0,
        "controllerType": 64,
        "value": 0
      },
      {
        "type": "midi",
        "subType": "noteOff",
        "typeByte": 128,
        "deltaTime": 2,
        "channel": 0,
        "note": 74,
        "velocity": 0
      },
      {
        "type": "midi",
        "subType": "controller",
        "typeByte": 176,
        "deltaTime": 0,
        "channel": 0,
        "controllerType": 64,
        "value": 127
      },
      {
        "type": "midi",
        "subType": "controller",
        "typeByte": 176,
        "deltaTime": 0,
        "channel": 0,
        "controllerType": 64,
        "value": 127
      },
      {
        "type": "midi",
        "subType": "noteOn",
        "typeByte": 144,
        "deltaTime": 0,
        "channel": 0,
        "note": 83,
        "velocity": 102
      },
      {
        "type": "midi",
        "subType": "noteOff",
        "typeByte": 128,
        "deltaTime": 120,
        "channel": 0,
        "note": 83,
        "velocity": 0
      },
      {
        "type": "midi",
        "subType": "noteOn",
        "typeByte": 144,
        "deltaTime": 0,
        "channel": 0,
        "note": 74,
        "velocity": 70
      },
      {
        "type": "midi",
        "subType": "noteOff",
        "typeByte": 128,
        "deltaTime": 120,
        "channel": 0,
        "note": 74,
        "velocity": 0
      },
      {
        "type": "midi",
        "subType": "noteOn",
        "typeByte": 144,
        "deltaTime": 0,
        "channel": 0,
        "note": 72,
        "velocity": 81
      },
      {
        "type": "midi",
        "subType": "noteOff",
        "typeByte": 128,
        "deltaTime": 120,
        "channel": 0,
        "note": 72,
        "velocity": 0
      },
      {
        "type": "midi",
        "subType": "noteOn",
        "typeByte": 144,
        "deltaTime": 0,
        "channel": 0,
        "note": 81,
        "velocity": 76
      },
      {
        "type": "midi",
        "subType": "controller",
        "typeByte": 176,
        "deltaTime": 118,
        "channel": 0,
        "controllerType": 64,
        "value": 0
      },
      {
        "type": "midi",
        "subType": "controller",
        "typeByte": 176,
        "deltaTime": 0,
        "channel": 0,
        "controllerType": 64,
        "value": 0
      },
      {
        "type": "midi",
        "subType": "noteOff",
        "typeByte": 128,
        "deltaTime": 2,
        "channel": 0,
        "note": 81,
        "velocity": 0
      },
      {
        "type": "midi",
        "subType": "controller",
        "typeByte": 176,
        "deltaTime": 0,
        "channel": 0,
        "controllerType": 64,
        "value": 127
      },
      {
        "type": "midi",
        "subType": "controller",
        "typeByte": 176,
        "deltaTime": 0,
        "channel": 0,
        "controllerType": 64,
        "value": 127
      },
      {
        "type": "midi",
        "subType": "noteOn",
        "typeByte": 144,
        "deltaTime": 0,
        "channel": 0,
        "note": 77,
        "velocity": 81
      },
      {
        "type": "midi",
        "subType": "noteOff",
        "typeByte": 128,
        "deltaTime": 120,
        "channel": 0,
        "note": 77,
        "velocity": 0
      },
      {
        "type": "midi",
        "subType": "noteOn",
        "typeByte": 144,
        "deltaTime": 0,
        "channel": 0,
        "note": 74,
        "velocity": 64
      },
      {
        "type": "midi",
        "subType": "noteOff",
        "typeByte": 128,
        "deltaTime": 120,
        "channel": 0,
        "note": 74,
        "velocity": 0
      },
      {
        "type": "midi",
        "subType": "noteOn",
        "typeByte": 144,
        "deltaTime": 0,
        "channel": 0,
        "note": 71,
        "velocity": 60
      },
      {
        "type": "midi",
        "subType": "noteOff",
        "typeByte": 128,
        "deltaTime": 120,
        "channel": 0,
        "note": 71,
        "velocity": 0
      },
      {
        "type": "midi",
        "subType": "noteOn",
        "typeByte": 144,
        "deltaTime": 0,
        "channel": 0,
        "note": 77,
        "velocity": 52
      },
      {
        "type": "midi",
        "subType": "controller",
        "typeByte": 176,
        "deltaTime": 118,
        "channel": 0,
        "controllerType": 64,
        "value": 0
      },
      {
        "type": "midi",
        "subType": "controller",
        "typeByte": 176,
        "deltaTime": 0,
        "channel": 0,
        "controllerType": 64,
        "value": 0
      },
      {
        "type": "midi",
        "subType": "noteOff",
        "typeByte": 128,
        "deltaTime": 2,
        "channel": 0,
        "note": 77,
        "velocity": 0
      },
      {
        "type": "midi",
        "subType": "controller",
        "typeByte": 176,
        "deltaTime": 0,
        "channel": 0,
        "controllerType": 64,
        "value": 127
      },
      {
        "type": "midi",
        "subType": "controller",
        "typeByte": 176,
        "deltaTime": 0,
        "channel": 0,
        "controllerType": 64,
        "value": 127
      },
      {
        "type": "midi",
        "subType": "noteOn",
        "typeByte": 144,
        "deltaTime": 0,
        "channel": 0,
        "note": 68,
        "velocity": 75
      },
      {
        "type": "midi",
        "subType": "noteOff",
        "typeByte": 128,
        "deltaTime": 120,
        "channel": 0,
        "note": 68,
        "velocity": 0
      },
      {
        "type": "midi",
        "subType": "noteOn",
        "typeByte": 144,
        "deltaTime": 0,
        "channel": 0,
        "note": 71,
        "velocity": 66
      },
      {
        "type": "midi",
        "subType": "noteOff",
        "typeByte": 128,
        "deltaTime": 120,
        "channel": 0,
        "note": 71,
        "velocity": 0
      },
      {
        "type": "midi",
        "subType": "noteOn",
        "typeByte": 144,
        "deltaTime": 0,
        "channel": 0,
        "note": 72,
        "velocity": 70
      },
      {
        "type": "midi",
        "subType": "noteOff",
        "typeByte": 128,
        "deltaTime": 120,
        "channel": 0,
        "note": 72,
        "velocity": 0
      },
      {
        "type": "midi",
        "subType": "noteOn",
        "typeByte": 144,
        "deltaTime": 0,
        "channel": 0,
        "note": 69,
        "velocity": 72
      },
      {
        "type": "midi",
        "subType": "controller",
        "typeByte": 176,
        "deltaTime": 118,
        "channel": 0,
        "controllerType": 64,
        "value": 0
      },
      {
        "type": "midi",
        "subType": "controller",
        "typeByte": 176,
        "deltaTime": 0,
        "channel": 0,
        "controllerType": 64,
        "value": 0
      },
      {
        "type": "midi",
        "subType": "noteOff",
        "typeByte": 128,
        "deltaTime": 2,
        "channel": 0,
        "note": 69,
        "velocity": 0
      },
      {
        "type": "midi",
        "subType": "controller",
        "typeByte": 176,
        "deltaTime": 0,
        "channel": 0,
        "controllerType": 64,
        "value": 127
      },
      {
        "type": "midi",
        "subType": "controller",
        "typeByte": 176,
        "deltaTime": 0,
        "channel": 0,
        "controllerType": 64,
        "value": 127
      },
      {
        "type": "midi",
        "subType": "noteOn",
        "typeByte": 144,
        "deltaTime": 0,
        "channel": 0,
        "note": 64,
        "velocity": 76
      },
      {
        "type": "midi",
        "subType": "noteOff",
        "typeByte": 128,
        "deltaTime": 120,
        "channel": 0,
        "note": 64,
        "velocity": 0
      },
      {
        "type": "midi",
        "subType": "noteOn",
        "typeByte": 144,
        "deltaTime": 0,
        "channel": 0,
        "note": 69,
        "velocity": 80
      },
      {
        "type": "midi",
        "subType": "noteOff",
        "typeByte": 128,
        "deltaTime": 120,
        "channel": 0,
        "note": 69,
        "velocity": 0
      },
      {
        "type": "midi",
        "subType": "noteOn",
        "typeByte": 144,
        "deltaTime": 0,
        "channel": 0,
        "note": 71,
        "velocity": 66
      },
      {
        "type": "midi",
        "subType": "noteOff",
        "typeByte": 128,
        "deltaTime": 120,
        "channel": 0,
        "note": 71,
        "velocity": 0
      },
      {
        "type": "midi",
        "subType": "noteOn",
        "typeByte": 144,
        "deltaTime": 0,
        "channel": 0,
        "note": 68,
        "velocity": 84
      },
      {
        "type": "midi",
        "subType": "controller",
        "typeByte": 176,
        "deltaTime": 118,
        "channel": 0,
        "controllerType": 64,
        "value": 0
      },
      {
        "type": "midi",
        "subType": "controller",
        "typeByte": 176,
        "deltaTime": 0,
        "channel": 0,
        "controllerType": 64,
        "value": 0
      },
      {
        "type": "midi",
        "subType": "noteOff",
        "typeByte": 128,
        "deltaTime": 2,
        "channel": 0,
        "note": 68,
        "velocity": 0
      },
      {
        "type": "midi",
        "subType": "controller",
        "typeByte": 176,
        "deltaTime": 0,
        "channel": 0,
        "controllerType": 64,
        "value": 127
      },
      {
        "type": "midi",
        "subType": "controller",
        "typeByte": 176,
        "deltaTime": 0,
        "channel": 0,
        "controllerType": 64,
        "value": 127
      },
      {
        "type": "midi",
        "subType": "noteOn",
        "typeByte": 144,
        "deltaTime": 0,
        "channel": 0,
        "note": 69,
        "velocity": 79
      },
      {
        "type": "midi",
        "subType": "noteOff",
        "typeByte": 128,
        "deltaTime": 120,
        "channel": 0,
        "note": 69,
        "velocity": 0
      },
      {
        "type": "midi",
        "subType": "noteOn",
        "typeByte": 144,
        "deltaTime": 0,
        "channel": 0,
        "note": 64,
        "velocity": 48
      },
      {
        "type": "midi",
        "subType": "noteOff",
        "typeByte": 128,
        "deltaTime": 120,
        "channel": 0,
        "note": 64,
        "velocity": 0
      },
      {
        "type": "midi",
        "subType": "noteOn",
        "typeByte": 144,
        "deltaTime": 0,
        "channel": 0,
        "note": 60,
        "velocity": 51
      },
      {
        "type": "midi",
        "subType": "noteOff",
        "typeByte": 128,
        "deltaTime": 120,
        "channel": 0,
        "note": 60,
        "velocity": 0
      },
      {
        "type": "midi",
        "subType": "noteOn",
        "typeByte": 144,
        "deltaTime": 0,
        "channel": 0,
        "note": 64,
        "velocity": 52
      },
      {
        "type": "midi",
        "subType": "controller",
        "typeByte": 176,
        "deltaTime": 118,
        "channel": 0,
        "controllerType": 64,
        "value": 0
      },
      {
        "type": "midi",
        "subType": "controller",
        "typeByte": 176,
        "deltaTime": 0,
        "channel": 0,
        "controllerType": 64,
        "value": 0
      },
      {
        "type": "midi",
        "subType": "noteOff",
        "typeByte": 128,
        "deltaTime": 2,
        "channel": 0,
        "note": 64,
        "velocity": 0
      },
      {
        "type": "midi",
        "subType": "controller",
        "typeByte": 176,
        "deltaTime": 0,
        "channel": 0,
        "controllerType": 64,
        "value": 127
      },
      {
        "type": "midi",
        "subType": "controller",
        "typeByte": 176,
        "deltaTime": 0,
        "channel": 0,
        "controllerType": 64,
        "value": 127
      },
      {
        "type": "midi",
        "subType": "noteOn",
        "typeByte": 144,
        "deltaTime": 0,
        "channel": 0,
        "note": 57,
        "velocity": 39
      },
      {
        "type": "midi",
        "subType": "controller",
        "typeByte": 176,
        "deltaTime": 478,
        "channel": 0,
        "controllerType": 64,
        "value": 0
      },
      {
        "type": "midi",
        "subType": "controller",
        "typeByte": 176,
        "deltaTime": 0,
        "channel": 0,
        "controllerType": 64,
        "value": 0
      },
      {
        "type": "midi",
        "subType": "noteOff",
        "typeByte": 128,
        "deltaTime": 2,
        "channel": 0,
        "note": 57,
        "velocity": 0
      },
      {
        "type": "midi",
        "subType": "controller",
        "typeByte": 176,
        "deltaTime": 0,
        "channel": 0,
        "controllerType": 64,
        "value": 127
      },
      {
        "type": "midi",
        "subType": "controller",
        "typeByte": 176,
        "deltaTime": 478,
        "channel": 0,
        "controllerType": 64,
        "value": 0
      },
      {
        "type": "meta",
        "subType": "endOfTrack",
        "typeByte": 255,
        "subTypeByte": 47,
        "deltaTime": 0
      }
    ],
    [
      {
        "type": "midi",
        "subType": "programChange",
        "typeByte": 193,
        "deltaTime": 0,
        "channel": 1,
        "program": 0
      },
      {
        "type": "midi",
        "subType": "controller",
        "typeByte": 177,
        "deltaTime": 0,
        "channel": 1,
        "controllerType": 64,
        "value": 127
      },
      {
        "type": "midi",
        "subType": "controller",
        "typeByte": 177,
        "deltaTime": 0,
        "channel": 1,
        "controllerType": 64,
        "value": 127
      },
      {
        "type": "midi",
        "subType": "noteOn",
        "typeByte": 145,
        "deltaTime": 0,
        "channel": 1,
        "note": 45,
        "velocity": 67
      },
      {
        "type": "meta",
        "subType": "setTempo",
        "typeByte": 255,
        "subTypeByte": 81,
        "deltaTime": 0,
        "microsecondsPerBeat": 1100000
      },
      {
        "type": "meta",
        "subType": "timeSignature",
        "typeByte": 255,
        "subTypeByte": 88,
        "deltaTime": 0,
        "numerator": 4,
        "denominator": 4,
        "metronome": 24,
        "thirtySeconds": 8
      },
      {
        "type": "midi",
        "subType": "noteOff",
        "typeByte": 129,
        "deltaTime": 240,
        "channel": 1,
        "note": 45,
        "velocity": 0
      },
      {
        "type": "midi",
        "subType": "noteOn",
        "typeByte": 145,
        "deltaTime": 0,
        "channel": 1,
        "note": 57,
        "velocity": 66
      },
      {
        "type": "midi",
        "subType": "controller",
        "typeByte": 177,
        "deltaTime": 238,
        "channel": 1,
        "controllerType": 64,
        "value": 0
      },
      {
        "type": "midi",
        "subType": "controller",
        "typeByte": 177,
        "deltaTime": 0,
        "channel": 1,
        "controllerType": 64,
        "value": 0
      },
      {
        "type": "midi",
        "subType": "controller",
        "typeByte": 177,
        "deltaTime": 2,
        "channel": 1,
        "controllerType": 64,
        "value": 127
      },
      {
        "type": "midi",
        "subType": "controller",
        "typeByte": 177,
        "deltaTime": 0,
        "channel": 1,
        "controllerType": 64,
        "value": 127
      },
      {
        "type": "midi",
        "subType": "noteOff",
        "typeByte": 129,
        "deltaTime": 240,
        "channel": 1,
        "note": 57,
        "velocity": 0
      },
      {
        "type": "midi",
        "subType": "noteOn",
        "typeByte": 145,
        "deltaTime": 0,
        "channel": 1,
        "note": 56,
        "velocity": 50
      },
      {
        "type": "midi",
        "subType": "controller",
        "typeByte": 177,
        "deltaTime": 238,
        "channel": 1,
        "controllerType": 64,
        "value": 0
      },
      {
        "type": "midi",
        "subType": "controller",
        "typeByte": 177,
        "deltaTime": 0,
        "channel": 1,
        "controllerType": 64,
        "value": 0
      },
      {
        "type": "midi",
        "subType": "noteOff",
        "typeByte": 129,
        "deltaTime": 2,
        "channel": 1,
        "note": 56,
        "velocity": 0
      },
      {
        "type": "midi",
        "subType": "controller",
        "typeByte": 177,
        "deltaTime": 0,
        "channel": 1,
        "controllerType": 64,
        "value": 127
      },
      {
        "type": "midi",
        "subType": "controller",
        "typeByte": 177,
        "deltaTime": 0,
        "channel": 1,
        "controllerType": 64,
        "value": 127
      },
      {
        "type": "midi",
        "subType": "noteOn",
        "typeByte": 145,
        "deltaTime": 0,
        "channel": 1,
        "note": 57,
        "velocity": 44
      },
      {
        "type": "midi",
        "subType": "noteOff",
        "typeByte": 129,
        "deltaTime": 120,
        "channel": 1,
        "note": 57,
        "velocity": 0
      },
      {
        "type": "midi",
        "subType": "noteOn",
        "typeByte": 145,
        "deltaTime": 0,
        "channel": 1,
        "note": 52,
        "velocity": 67
      },
      {
        "type": "midi",
        "subType": "noteOff",
        "typeByte": 129,
        "deltaTime": 120,
        "channel": 1,
        "note": 52,
        "velocity": 0
      },
      {
        "type": "midi",
        "subType": "noteOn",
        "typeByte": 145,
        "deltaTime": 0,
        "channel": 1,
        "note": 57,
        "velocity": 47
      },
      {
        "type": "midi",
        "subType": "noteOff",
        "typeByte": 129,
        "deltaTime": 120,
        "channel": 1,
        "note": 57,
        "velocity": 0
      },
      {
        "type": "midi",
        "subType": "noteOn",
        "typeByte": 145,
        "deltaTime": 0,
        "channel": 1,
        "note": 60,
        "velocity": 52
      },
      {
        "type": "midi",
        "subType": "controller",
        "typeByte": 177,
        "deltaTime": 118,
        "channel": 1,
        "controllerType": 64,
        "value": 0
      },
      {
        "type": "midi",
        "subType": "controller",
        "typeByte": 177,
        "deltaTime": 0,
        "channel": 1,
        "controllerType": 64,
        "value": 0
      },
      {
        "type": "midi",
        "subType": "noteOff",
        "typeByte": 129,
        "deltaTime": 2,
        "channel": 1,
        "note": 60,
        "velocity": 0
      },
      {
        "type": "midi",
        "subType": "controller",
        "typeByte": 177,
        "deltaTime": 0,
        "channel": 1,
        "controllerType": 64,
        "value": 127
      },
      {
        "type": "midi",
        "subType": "controller",
        "typeByte": 177,
        "deltaTime": 0,
        "channel": 1,
        "controllerType": 64,
        "value": 127
      },
      {
        "type": "midi",
        "subType": "noteOn",
        "typeByte": 145,
        "deltaTime": 0,
        "channel": 1,
        "note": 59,
        "velocity": 51
      },
      {
        "type": "midi",
        "subType": "noteOff",
        "typeByte": 129,
        "deltaTime": 120,
        "channel": 1,
        "note": 59,
        "velocity": 0
      },
      {
        "type": "midi",
        "subType": "noteOn",
        "typeByte": 145,
        "deltaTime": 0,
        "channel": 1,
        "note": 52,
        "velocity": 55
      },
      {
        "type": "midi",
        "subType": "noteOff",
        "typeByte": 129,
        "deltaTime": 120,
        "channel": 1,
        "note": 52,
        "velocity": 0
      },
      {
        "type": "midi",
        "subType": "noteOn",
        "typeByte": 145,
        "deltaTime": 0,
        "channel": 1,
        "note": 59,
        "velocity": 46
      },
      {
        "type": "midi",
        "subType": "noteOff",
        "typeByte": 129,
        "deltaTime": 120,
        "channel": 1,
        "note": 59,
        "velocity": 0
      },
      {
        "type": "midi",
        "subType": "noteOn",
        "typeByte": 145,
        "deltaTime": 0,
        "channel": 1,
        "note": 62,
        "velocity": 50
      },
      {
        "type": "midi",
        "subType": "controller",
        "typeByte": 177,
        "deltaTime": 118,
        "channel": 1,
        "controllerType": 64,
        "value": 0
      },
      {
        "type": "midi",
        "subType": "controller",
        "typeByte": 177,
        "deltaTime": 0,
        "channel": 1,
        "controllerType": 64,
        "value": 0
      },
      {
        "type": "midi",
        "subType": "noteOff",
        "typeByte": 129,
        "deltaTime": 2,
        "channel": 1,
        "note": 62,
        "velocity": 0
      },
      {
        "type": "midi",
        "subType": "controller",
        "typeByte": 177,
        "deltaTime": 0,
        "channel": 1,
        "controllerType": 64,
        "value": 127
      },
      {
        "type": "midi",
        "subType": "controller",
        "typeByte": 177,
        "deltaTime": 0,
        "channel": 1,
        "controllerType": 64,
        "value": 127
      },
      {
        "type": "midi",
        "subType": "noteOn",
        "typeByte": 145,
        "deltaTime": 0,
        "channel": 1,
        "note": 60,
        "velocity": 55
      },
      {
        "type": "midi",
        "subType": "noteOff",
        "typeByte": 129,
        "deltaTime": 240,
        "channel": 1,
        "note": 60,
        "velocity": 0
      },
      {
        "type": "midi",
        "subType": "noteOn",
        "typeByte": 145,
        "deltaTime": 0,
        "channel": 1,
        "note": 57,
        "velocity": 62
      },
      {
        "type": "midi",
        "subType": "controller",
        "typeByte": 177,
        "deltaTime": 238,
        "channel": 1,
        "controllerType": 64,
        "value": 0
      },
      {
        "type": "midi",
        "subType": "controller",
        "typeByte": 177,
        "deltaTime": 0,
        "channel": 1,
        "controllerType": 64,
        "value": 0
      },
      {
        "type": "midi",
        "subType": "noteOff",
        "typeByte": 129,
        "deltaTime": 2,
        "channel": 1,
        "note": 57,
        "velocity": 0
      },
      {
        "type": "midi",
        "subType": "controller",
        "typeByte": 177,
        "deltaTime": 0,
        "channel": 1,
        "controllerType": 64,
        "value": 127
      },
      {
        "type": "midi",
        "subType": "controller",
        "typeByte": 177,
        "deltaTime": 0,
        "channel": 1,
        "controllerType": 64,
        "value": 127
      },
      {
        "type": "midi",
        "subType": "noteOn",
        "typeByte": 145,
        "deltaTime": 0,
        "channel": 1,
        "note": 56,
        "velocity": 59
      },
      {
        "type": "midi",
        "subType": "noteOff",
        "typeByte": 129,
        "deltaTime": 240,
        "channel": 1,
        "note": 56,
        "velocity": 0
      },
      {
        "type": "midi",
        "subType": "noteOn",
        "typeByte": 145,
        "deltaTime": 0,
        "channel": 1,
        "note": 52,
        "velocity": 66
      },
      {
        "type": "midi",
        "subType": "controller",
        "typeByte": 177,
        "deltaTime": 238,
        "channel": 1,
        "controllerType": 64,
        "value": 0
      },
      {
        "type": "midi",
        "subType": "controller",
        "typeByte": 177,
        "deltaTime": 0,
        "channel": 1,
        "controllerType": 64,
        "value": 0
      },
      {
        "type": "midi",
        "subType": "noteOff",
        "typeByte": 129,
        "deltaTime": 2,
        "channel": 1,
        "note": 52,
        "velocity": 0
      },
      {
        "type": "midi",
        "subType": "controller",
        "typeByte": 177,
        "deltaTime": 0,
        "channel": 1,
        "controllerType": 64,
        "value": 127
      },
      {
        "type": "midi",
        "subType": "controller",
        "typeByte": 177,
        "deltaTime": 0,
        "channel": 1,
        "controllerType": 64,
        "value": 127
      },
      {
        "type": "midi",
        "subType": "noteOn",
        "typeByte": 145,
        "deltaTime": 0,
        "channel": 1,
        "note": 57,
        "velocity": 50
      },
      {
        "type": "midi",
        "subType": "noteOff",
        "typeByte": 129,
        "deltaTime": 120,
        "channel": 1,
        "note": 57,
        "velocity": 0
      },
      {
        "type": "midi",
        "subType": "noteOn",
        "typeByte": 145,
        "deltaTime": 0,
        "channel": 1,
        "note": 52,
        "velocity": 50
      },
      {
        "type": "midi",
        "subType": "noteOff",
        "typeByte": 129,
        "deltaTime": 120,
        "channel": 1,
        "note": 52,
        "velocity": 0
      },
      {
        "type": "midi",
        "subType": "noteOn",
        "typeByte": 145,
        "deltaTime": 0,
        "channel": 1,
        "note": 57,
        "velocity": 46
      },
      {
        "type": "midi",
        "subType": "noteOff",
        "typeByte": 129,
        "deltaTime": 120,
        "channel": 1,
        "note": 57,
        "velocity": 0
      },
      {
        "type": "midi",
        "subType": "noteOn",
        "typeByte": 145,
        "deltaTime": 0,
        "channel": 1,
        "note": 60,
        "velocity": 65
      },
      {
        "type": "midi",
        "subType": "controller",
        "typeByte": 177,
        "deltaTime": 118,
        "channel": 1,
        "controllerType": 64,
        "value": 0
      },
      {
        "type": "midi",
        "subType": "controller",
        "typeByte": 177,
        "deltaTime": 0,
        "channel": 1,
        "controllerType": 64,
        "value": 0
      },
      {
        "type": "midi",
        "subType": "noteOff",
        "typeByte": 129,
        "deltaTime": 2,
        "channel": 1,
        "note": 60,
        "velocity": 0
      },
      {
        "type": "midi",
        "subType": "controller",
        "typeByte": 177,
        "deltaTime": 0,
        "channel": 1,
        "controllerType": 64,
        "value": 127
      },
      {
        "type": "midi",
        "subType": "controller",
        "typeByte": 177,
        "deltaTime": 0,
        "channel": 1,
        "controllerType": 64,
        "value": 127
      },
      {
        "type": "midi",
        "subType": "noteOn",
        "typeByte": 145,
        "deltaTime": 0,
        "channel": 1,
        "note": 59,
        "velocity": 54
      },
      {
        "type": "midi",
        "subType": "noteOff",
        "typeByte": 129,
        "deltaTime": 120,
        "channel": 1,
        "note": 59,
        "velocity": 0
      },
      {
        "type": "midi",
        "subType": "noteOn",
        "typeByte": 145,
        "deltaTime": 0,
        "channel": 1,
        "note": 52,
        "velocity": 55
      },
      {
        "type": "midi",
        "subType": "noteOff",
        "typeByte": 129,
        "deltaTime": 120,
        "channel": 1,
        "note": 52,
        "velocity": 0
      },
      {
        "type": "midi",
        "subType": "noteOn",
        "typeByte": 145,
        "deltaTime": 0,
        "channel": 1,
        "note": 59,
        "velocity": 54
      },
      {
        "type": "midi",
        "subType": "noteOff",
        "typeByte": 129,
        "deltaTime": 120,
        "channel": 1,
        "note": 59,
        "velocity": 0
      },
      {
        "type": "midi",
        "subType": "noteOn",
        "typeByte": 145,
        "deltaTime": 0,
        "channel": 1,
        "note": 62,
        "velocity": 49
      },
      {
        "type": "midi",
        "subType": "controller",
        "typeByte": 177,
        "deltaTime": 118,
        "channel": 1,
        "controllerType": 64,
        "value": 0
      },
      {
        "type": "midi",
        "subType": "controller",
        "typeByte": 177,
        "deltaTime": 0,
        "channel": 1,
        "controllerType": 64,
        "value": 0
      },
      {
        "type": "midi",
        "subType": "noteOff",
        "typeByte": 129,
        "deltaTime": 2,
        "channel": 1,
        "note": 62,
        "velocity": 0
      },
      {
        "type": "midi",
        "subType": "controller",
        "typeByte": 177,
        "deltaTime": 0,
        "channel": 1,
        "controllerType": 64,
        "value": 127
      },
      {
        "type": "midi",
        "subType": "controller",
        "typeByte": 177,
        "deltaTime": 0,
        "channel": 1,
        "controllerType": 64,
        "value": 127
      },
      {
        "type": "midi",
        "subType": "noteOn",
        "typeByte": 145,
        "deltaTime": 0,
        "channel": 1,
        "note": 60,
        "velocity": 59
      },
      {
        "type": "midi",
        "subType": "noteOff",
        "typeByte": 129,
        "deltaTime": 240,
        "channel": 1,
        "note": 60,
        "velocity": 0
      },
      {
        "type": "midi",
        "subType": "noteOn",
        "typeByte": 145,
        "deltaTime": 0,
        "channel": 1,
        "note": 57,
        "velocity": 63
      },
      {
        "type": "midi",
        "subType": "controller",
        "typeByte": 177,
        "deltaTime": 238,
        "channel": 1,
        "controllerType": 64,
        "value": 0
      },
      {
        "type": "midi",
        "subType": "controller",
        "typeByte": 177,
        "deltaTime": 0,
        "channel": 1,
        "controllerType": 64,
        "value": 0
      },
      {
        "type": "midi",
        "subType": "noteOff",
        "typeByte": 129,
        "deltaTime": 2,
        "channel": 1,
        "note": 57,
        "velocity": 0
      },
      {
        "type": "midi",
        "subType": "controller",
        "typeByte": 177,
        "deltaTime": 0,
        "channel": 1,
        "controllerType": 64,
        "value": 127
      },
      {
        "type": "midi",
        "subType": "controller",
        "typeByte": 177,
        "deltaTime": 0,
        "channel": 1,
        "controllerType": 64,
        "value": 127
      },
      {
        "type": "midi",
        "subType": "noteOn",
        "typeByte": 145,
        "deltaTime": 0,
        "channel": 1,
        "note": 60,
        "velocity": 53
      },
      {
        "type": "midi",
        "subType": "noteOff",
        "typeByte": 129,
        "deltaTime": 240,
        "channel": 1,
        "note": 60,
        "velocity": 0
      },
      {
        "type": "midi",
        "subType": "noteOn",
        "typeByte": 145,
        "deltaTime": 0,
        "channel": 1,
        "note": 57,
        "velocity": 43
      },
      {
        "type": "midi",
        "subType": "controller",
        "typeByte": 177,
        "deltaTime": 238,
        "channel": 1,
        "controllerType": 64,
        "value": 0
      },
      {
        "type": "midi",
        "subType": "controller",
        "typeByte": 177,
        "deltaTime": 0,
        "channel": 1,
        "controllerType": 64,
        "value": 0
      },
      {
        "type": "midi",
        "subType": "noteOff",
        "typeByte": 129,
        "deltaTime": 2,
        "channel": 1,
        "note": 57,
        "velocity": 0
      },
      {
        "type": "midi",
        "subType": "controller",
        "typeByte": 177,
        "deltaTime": 0,
        "channel": 1,
        "controllerType": 64,
        "value": 127
      },
      {
        "type": "midi",
        "subType": "controller",
        "typeByte": 177,
        "deltaTime": 0,
        "channel": 1,
        "controllerType": 64,
        "value": 127
      },
      {
        "type": "midi",
        "subType": "noteOn",
        "typeByte": 145,
        "deltaTime": 0,
        "channel": 1,
        "note": 62,
        "velocity": 53
      },
      {
        "type": "midi",
        "subType": "noteOff",
        "typeByte": 129,
        "deltaTime": 120,
        "channel": 1,
        "note": 62,
        "velocity": 0
      },
      {
        "type": "midi",
        "subType": "noteOn",
        "typeByte": 145,
        "deltaTime": 0,
        "channel": 1,
        "note": 57,
        "velocity": 63
      },
      {
        "type": "midi",
        "subType": "noteOff",
        "typeByte": 129,
        "deltaTime": 120,
        "channel": 1,
        "note": 57,
        "velocity": 0
      },
      {
        "type": "midi",
        "subType": "noteOn",
        "typeByte": 145,
        "deltaTime": 0,
        "channel": 1,
        "note": 53,
        "velocity": 70
      },
      {
        "type": "midi",
        "subType": "noteOff",
        "typeByte": 129,
        "deltaTime": 120,
        "channel": 1,
        "note": 53,
        "velocity": 0
      },
      {
        "type": "midi",
        "subType": "noteOn",
        "typeByte": 145,
        "deltaTime": 0,
        "channel": 1,
        "note": 57,
        "velocity": 65
      },
      {
        "type": "midi",
        "subType": "controller",
        "typeByte": 177,
        "deltaTime": 118,
        "channel": 1,
        "controllerType": 64,
        "value": 0
      },
      {
        "type": "midi",
        "subType": "controller",
        "typeByte": 177,
        "deltaTime": 0,
        "channel": 1,
        "controllerType": 64,
        "value": 0
      },
      {
        "type": "midi",
        "subType": "noteOff",
        "typeByte": 129,
        "deltaTime": 2,
        "channel": 1,
        "note": 57,
        "velocity": 0
      },
      {
        "type": "midi",
        "subType": "controller",
        "typeByte": 177,
        "deltaTime": 0,
        "channel": 1,
        "controllerType": 64,
        "value": 127
      },
      {
        "type": "midi",
        "subType": "controller",
        "typeByte": 177,
        "deltaTime": 0,
        "channel": 1,
        "controllerType": 64,
        "value": 127
      },
      {
        "type": "midi",
        "subType": "noteOn",
        "typeByte": 145,
        "deltaTime": 0,
        "channel": 1,
        "note": 50,
        "velocity": 66
      },
      {
        "type": "midi",
        "subType": "noteOff",
        "typeByte": 129,
        "deltaTime": 120,
        "channel": 1,
        "note": 50,
        "velocity": 0
      },
      {
        "type": "midi",
        "subType": "noteOn",
        "typeByte": 145,
        "deltaTime": 0,
        "channel": 1,
        "note": 53,
        "velocity": 57
      },
      {
        "type": "midi",
        "subType": "noteOff",
        "typeByte": 129,
        "deltaTime": 120,
        "channel": 1,
        "note": 53,
        "velocity": 0
      },
      {
        "type": "midi",
        "subType": "noteOn",
        "typeByte": 145,
        "deltaTime": 0,
        "channel": 1,
        "note": 45,
        "velocity": 61
      },
      {
        "type": "midi",
        "subType": "noteOff",
        "typeByte": 129,
        "deltaTime": 120,
        "channel": 1,
        "note": 45,
        "velocity": 0
      },
      {
        "type": "midi",
        "subType": "noteOn",
        "typeByte": 145,
        "deltaTime": 0,
        "channel": 1,
        "note": 48,
        "velocity": 72
      },
      {
        "type": "midi",
        "subType": "controller",
        "typeByte": 177,
        "deltaTime": 118,
        "channel": 1,
        "controllerType": 64,
        "value": 0
      },
      {
        "type": "midi",
        "subType": "controller",
        "typeByte": 177,
        "deltaTime": 0,
        "channel": 1,
        "controllerType": 64,
        "value": 0
      },
      {
        "type": "midi",
        "subType": "noteOff",
        "typeByte": 129,
        "deltaTime": 2,
        "channel": 1,
        "note": 48,
        "velocity": 0
      },
      {
        "type": "midi",
        "subType": "controller",
        "typeByte": 177,
        "deltaTime": 0,
        "channel": 1,
        "controllerType": 64,
        "value": 127
      },
      {
        "type": "midi",
        "subType": "controller",
        "typeByte": 177,
        "deltaTime": 0,
        "channel": 1,
        "controllerType": 64,
        "value": 127
      },
      {
        "type": "midi",
        "subType": "noteOn",
        "typeByte": 145,
        "deltaTime": 0,
        "channel": 1,
        "note": 47,
        "velocity": 75
      },
      {
        "type": "midi",
        "subType": "noteOff",
        "typeByte": 129,
        "deltaTime": 240,
        "channel": 1,
        "note": 47,
        "velocity": 0
      },
      {
        "type": "midi",
        "subType": "noteOn",
        "typeByte": 145,
        "deltaTime": 0,
        "channel": 1,
        "note": 50,
        "velocity": 61
      },
      {
        "type": "midi",
        "subType": "controller",
        "typeByte": 177,
        "deltaTime": 238,
        "channel": 1,
        "controllerType": 64,
        "value": 0
      },
      {
        "type": "midi",
        "subType": "controller",
        "typeByte": 177,
        "deltaTime": 0,
        "channel": 1,
        "controllerType": 64,
        "value": 0
      },
      {
        "type": "midi",
        "subType": "noteOff",
        "typeByte": 129,
        "deltaTime": 2,
        "channel": 1,
        "note": 50,
        "velocity": 0
      },
      {
        "type": "midi",
        "subType": "controller",
        "typeByte": 177,
        "deltaTime": 0,
        "channel": 1,
        "controllerType": 64,
        "value": 127
      },
      {
        "type": "midi",
        "subType": "controller",
        "typeByte": 177,
        "deltaTime": 0,
        "channel": 1,
        "controllerType": 64,
        "value": 127
      },
      {
        "type": "midi",
        "subType": "noteOn",
        "typeByte": 145,
        "deltaTime": 0,
        "channel": 1,
        "note": 55,
        "velocity": 74
      },
      {
        "type": "midi",
        "subType": "noteOff",
        "typeByte": 129,
        "deltaTime": 240,
        "channel": 1,
        "note": 55,
        "velocity": 0
      },
      {
        "type": "midi",
        "subType": "noteOn",
        "typeByte": 145,
        "deltaTime": 0,
        "channel": 1,
        "note": 59,
        "velocity": 67
      },
      {
        "type": "midi",
        "subType": "controller",
        "typeByte": 177,
        "deltaTime": 238,
        "channel": 1,
        "controllerType": 64,
        "value": 0
      },
      {
        "type": "midi",
        "subType": "controller",
        "typeByte": 177,
        "deltaTime": 0,
        "channel": 1,
        "controllerType": 64,
        "value": 0
      },
      {
        "type": "midi",
        "subType": "noteOff",
        "typeByte": 129,
        "deltaTime": 2,
        "channel": 1,
        "note": 59,
        "velocity": 0
      },
      {
        "type": "midi",
        "subType": "controller",
        "typeByte": 177,
        "deltaTime": 0,
        "channel": 1,
        "controllerType": 64,
        "value": 127
      },
      {
        "type": "midi",
        "subType": "controller",
        "typeByte": 177,
        "deltaTime": 0,
        "channel": 1,
        "controllerType": 64,
        "value": 127
      },
      {
        "type": "midi",
        "subType": "noteOn",
        "typeByte": 145,
        "deltaTime": 120,
        "channel": 1,
        "note": 55,
        "velocity": 53
      },
      {
        "type": "midi",
        "subType": "noteOff",
        "typeByte": 129,
        "deltaTime": 120,
        "channel": 1,
        "note": 55,
        "velocity": 0
      },
      {
        "type": "midi",
        "subType": "noteOn",
        "typeByte": 145,
        "deltaTime": 0,
        "channel": 1,
        "note": 52,
        "velocity": 59
      },
      {
        "type": "midi",
        "subType": "noteOff",
        "typeByte": 129,
        "deltaTime": 120,
        "channel": 1,
        "note": 52,
        "velocity": 0
      },
      {
        "type": "midi",
        "subType": "noteOn",
        "typeByte": 145,
        "deltaTime": 0,
        "channel": 1,
        "note": 55,
        "velocity": 62
      },
      {
        "type": "midi",
        "subType": "controller",
        "typeByte": 177,
        "deltaTime": 118,
        "channel": 1,
        "controllerType": 64,
        "value": 0
      },
      {
        "type": "midi",
        "subType": "controller",
        "typeByte": 177,
        "deltaTime": 0,
        "channel": 1,
        "controllerType": 64,
        "value": 0
      },
      {
        "type": "midi",
        "subType": "noteOff",
        "typeByte": 129,
        "deltaTime": 2,
        "channel": 1,
        "note": 55,
        "velocity": 0
      },
      {
        "type": "midi",
        "subType": "controller",
        "typeByte": 177,
        "deltaTime": 0,
        "channel": 1,
        "controllerType": 64,
        "value": 127
      },
      {
        "type": "midi",
        "subType": "controller",
        "typeByte": 177,
        "deltaTime": 0,
        "channel": 1,
        "controllerType": 64,
        "value": 127
      },
      {
        "type": "midi",
        "subType": "noteOn",
        "typeByte": 145,
        "deltaTime": 0,
        "channel": 1,
        "note": 48,
        "velocity": 58
      },
      {
        "type": "midi",
        "subType": "noteOff",
        "typeByte": 129,
        "deltaTime": 120,
        "channel": 1,
        "note": 48,
        "velocity": 0
      },
      {
        "type": "midi",
        "subType": "noteOn",
        "typeByte": 145,
        "deltaTime": 0,
        "channel": 1,
        "note": 52,
        "velocity": 57
      },
      {
        "type": "midi",
        "subType": "noteOff",
        "typeByte": 129,
        "deltaTime": 120,
        "channel": 1,
        "note": 52,
        "velocity": 0
      },
      {
        "type": "midi",
        "subType": "noteOn",
        "typeByte": 145,
        "deltaTime": 0,
        "channel": 1,
        "note": 43,
        "velocity": 72
      },
      {
        "type": "midi",
        "subType": "noteOff",
        "typeByte": 129,
        "deltaTime": 120,
        "channel": 1,
        "note": 43,
        "velocity": 0
      },
      {
        "type": "midi",
        "subType": "noteOn",
        "typeByte": 145,
        "deltaTime": 0,
        "channel": 1,
        "note": 47,
        "velocity": 59
      },
      {
        "type": "midi",
        "subType": "controller",
        "typeByte": 177,
        "deltaTime": 118,
        "channel": 1,
        "controllerType": 64,
        "value": 0
      },
      {
        "type": "midi",
        "subType": "controller",
        "typeByte": 177,
        "deltaTime": 0,
        "channel": 1,
        "controllerType": 64,
        "value": 0
      },
      {
        "type": "midi",
        "subType": "noteOff",
        "typeByte": 129,
        "deltaTime": 2,
        "channel": 1,
        "note": 47,
        "velocity": 0
      },
      {
        "type": "midi",
        "subType": "controller",
        "typeByte": 177,
        "deltaTime": 0,
        "channel": 1,
        "controllerType": 64,
        "value": 127
      },
      {
        "type": "midi",
        "subType": "controller",
        "typeByte": 177,
        "deltaTime": 0,
        "channel": 1,
        "controllerType": 64,
        "value": 127
      },
      {
        "type": "midi",
        "subType": "noteOn",
        "typeByte": 145,
        "deltaTime": 0,
        "channel": 1,
        "note": 45,
        "velocity": 64
      },
      {
        "type": "midi",
        "subType": "noteOff",
        "typeByte": 129,
        "deltaTime": 240,
        "channel": 1,
        "note": 45,
        "velocity": 0
      },
      {
        "type": "midi",
        "subType": "noteOn",
        "typeByte": 145,
        "deltaTime": 0,
        "channel": 1,
        "note": 48,
        "velocity": 48
      },
      {
        "type": "midi",
        "subType": "controller",
        "typeByte": 177,
        "deltaTime": 238,
        "channel": 1,
        "controllerType": 64,
        "value": 0
      },
      {
        "type": "midi",
        "subType": "controller",
        "typeByte": 177,
        "deltaTime": 0,
        "channel": 1,
        "controllerType": 64,
        "value": 0
      },
      {
        "type": "midi",
        "subType": "noteOff",
        "typeByte": 129,
        "deltaTime": 2,
        "channel": 1,
        "note": 48,
        "velocity": 0
      },
      {
        "type": "midi",
        "subType": "controller",
        "typeByte": 177,
        "deltaTime": 0,
        "channel": 1,
        "controllerType": 64,
        "value": 127
      },
      {
        "type": "midi",
        "subType": "controller",
        "typeByte": 177,
        "deltaTime": 0,
        "channel": 1,
        "controllerType": 64,
        "value": 127
      },
      {
        "type": "midi",
        "subType": "noteOn",
        "typeByte": 145,
        "deltaTime": 0,
        "channel": 1,
        "note": 50,
        "velocity": 66
      },
      {
        "type": "midi",
        "subType": "noteOff",
        "typeByte": 129,
        "deltaTime": 120,
        "channel": 1,
        "note": 50,
        "velocity": 0
      },
      {
        "type": "midi",
        "subType": "noteOn",
        "typeByte": 145,
        "deltaTime": 0,
        "channel": 1,
        "note": 53,
        "velocity": 69
      },
      {
        "type": "midi",
        "subType": "noteOff",
        "typeByte": 129,
        "deltaTime": 120,
        "channel": 1,
        "note": 53,
        "velocity": 0
      },
      {
        "type": "midi",
        "subType": "noteOn",
        "typeByte": 145,
        "deltaTime": 0,
        "channel": 1,
        "note": 47,
        "velocity": 66
      },
      {
        "type": "midi",
        "subType": "noteOff",
        "typeByte": 129,
        "deltaTime": 120,
        "channel": 1,
        "note": 47,
        "velocity": 0
      },
      {
        "type": "midi",
        "subType": "noteOn",
        "typeByte": 145,
        "deltaTime": 0,
        "channel": 1,
        "note": 50,
        "velocity": 50
      },
      {
        "type": "midi",
        "subType": "controller",
        "typeByte": 177,
        "deltaTime": 118,
        "channel": 1,
        "controllerType": 64,
        "value": 0
      },
      {
        "type": "midi",
        "subType": "controller",
        "typeByte": 177,
        "deltaTime": 0,
        "channel": 1,
        "controllerType": 64,
        "value": 0
      },
      {
        "type": "midi",
        "subType": "noteOff",
        "typeByte": 129,
        "deltaTime": 2,
        "channel": 1,
        "note": 50,
        "velocity": 0
      },
      {
        "type": "midi",
        "subType": "controller",
        "typeByte": 177,
        "deltaTime": 0,
        "channel": 1,
        "controllerType": 64,
        "value": 127
      },
      {
        "type": "midi",
        "subType": "controller",
        "typeByte": 177,
        "deltaTime": 0,
        "channel": 1,
        "controllerType": 64,
        "value": 127
      },
      {
        "type": "midi",
        "subType": "noteOn",
        "typeByte": 145,
        "deltaTime": 0,
        "channel": 1,
        "note": 43,
        "velocity": 69
      },
      {
        "type": "midi",
        "subType": "noteOff",
        "typeByte": 129,
        "deltaTime": 240,
        "channel": 1,
        "note": 43,
        "velocity": 0
      },
      {
        "type": "midi",
        "subType": "noteOn",
        "typeByte": 145,
        "deltaTime": 0,
        "channel": 1,
        "note": 47,
        "velocity": 71
      },
      {
        "type": "midi",
        "subType": "controller",
        "typeByte": 177,
        "deltaTime": 238,
        "channel": 1,
        "controllerType": 64,
        "value": 0
      },
      {
        "type": "midi",
        "subType": "controller",
        "typeByte": 177,
        "deltaTime": 0,
        "channel": 1,
        "controllerType": 64,
        "value": 0
      },
      {
        "type": "midi",
        "subType": "noteOff",
        "typeByte": 129,
        "deltaTime": 2,
        "channel": 1,
        "note": 47,
        "velocity": 0
      },
      {
        "type": "midi",
        "subType": "controller",
        "typeByte": 177,
        "deltaTime": 0,
        "channel": 1,
        "controllerType": 64,
        "value": 127
      },
      {
        "type": "midi",
        "subType": "controller",
        "typeByte": 177,
        "deltaTime": 0,
        "channel": 1,
        "controllerType": 64,
        "value": 127
      },
      {
        "type": "midi",
        "subType": "noteOn",
        "typeByte": 145,
        "deltaTime": 0,
        "channel": 1,
        "note": 48,
        "velocity": 59
      },
      {
        "type": "midi",
        "subType": "noteOff",
        "typeByte": 129,
        "deltaTime": 120,
        "channel": 1,
        "note": 48,
        "velocity": 0
      },
      {
        "type": "midi",
        "subType": "noteOn",
        "typeByte": 145,
        "deltaTime": 0,
        "channel": 1,
        "note": 52,
        "velocity": 61
      },
      {
        "type": "midi",
        "subType": "noteOff",
        "typeByte": 129,
        "deltaTime": 120,
        "channel": 1,
        "note": 52,
        "velocity": 0
      },
      {
        "type": "midi",
        "subType": "noteOn",
        "typeByte": 145,
        "deltaTime": 0,
        "channel": 1,
        "note": 45,
        "velocity": 60
      },
      {
        "type": "midi",
        "subType": "noteOff",
        "typeByte": 129,
        "deltaTime": 120,
        "channel": 1,
        "note": 45,
        "velocity": 0
      },
      {
        "type": "midi",
        "subType": "noteOn",
        "typeByte": 145,
        "deltaTime": 0,
        "channel": 1,
        "note": 48,
        "velocity": 55
      },
      {
        "type": "midi",
        "subType": "controller",
        "typeByte": 177,
        "deltaTime": 118,
        "channel": 1,
        "controllerType": 64,
        "value": 0
      },
      {
        "type": "midi",
        "subType": "controller",
        "typeByte": 177,
        "deltaTime": 0,
        "channel": 1,
        "controllerType": 64,
        "value": 0
      },
      {
        "type": "midi",
        "subType": "noteOff",
        "typeByte": 129,
        "deltaTime": 2,
        "channel": 1,
        "note": 48,
        "velocity": 0
      },
      {
        "type": "midi",
        "subType": "controller",
        "typeByte": 177,
        "deltaTime": 0,
        "channel": 1,
        "controllerType": 64,
        "value": 127
      },
      {
        "type": "midi",
        "subType": "controller",
        "typeByte": 177,
        "deltaTime": 0,
        "channel": 1,
        "controllerType": 64,
        "value": 127
      },
      {
        "type": "midi",
        "subType": "noteOn",
        "typeByte": 145,
        "deltaTime": 0,
        "channel": 1,
        "note": 41,
        "velocity": 47
      },
      {
        "type": "midi",
        "subType": "noteOff",
        "typeByte": 129,
        "deltaTime": 240,
        "channel": 1,
        "note": 41,
        "velocity": 0
      },
      {
        "type": "midi",
        "subType": "noteOn",
        "typeByte": 145,
        "deltaTime": 0,
        "channel": 1,
        "note": 38,
        "velocity": 41
      },
      {
        "type": "midi",
        "subType": "controller",
        "typeByte": 177,
        "deltaTime": 238,
        "channel": 1,
        "controllerType": 64,
        "value": 0
      },
      {
        "type": "midi",
        "subType": "controller",
        "typeByte": 177,
        "deltaTime": 0,
        "channel": 1,
        "controllerType": 64,
        "value": 0
      },
      {
        "type": "midi",
        "subType": "noteOff",
        "typeByte": 129,
        "deltaTime": 2,
        "channel": 1,
        "note": 38,
        "velocity": 0
      },
      {
        "type": "midi",
        "subType": "controller",
        "typeByte": 177,
        "deltaTime": 0,
        "channel": 1,
        "controllerType": 64,
        "value": 127
      },
      {
        "type": "midi",
        "subType": "controller",
        "typeByte": 177,
        "deltaTime": 0,
        "channel": 1,
        "controllerType": 64,
        "value": 127
      },
      {
        "type": "midi",
        "subType": "noteOn",
        "typeByte": 145,
        "deltaTime": 0,
        "channel": 1,
        "note": 43,
        "velocity": 54
      },
      {
        "type": "midi",
        "subType": "noteOff",
        "typeByte": 129,
        "deltaTime": 120,
        "channel": 1,
        "note": 43,
        "velocity": 0
      },
      {
        "type": "midi",
        "subType": "noteOn",
        "typeByte": 145,
        "deltaTime": 0,
        "channel": 1,
        "note": 55,
        "velocity": 52
      },
      {
        "type": "midi",
        "subType": "noteOff",
        "typeByte": 129,
        "deltaTime": 120,
        "channel": 1,
        "note": 55,
        "velocity": 0
      },
      {
        "type": "midi",
        "subType": "noteOn",
        "typeByte": 145,
        "deltaTime": 0,
        "channel": 1,
        "note": 53,
        "velocity": 60
      },
      {
        "type": "midi",
        "subType": "noteOff",
        "typeByte": 129,
        "deltaTime": 120,
        "channel": 1,
        "note": 53,
        "velocity": 0
      },
      {
        "type": "midi",
        "subType": "noteOn",
        "typeByte": 145,
        "deltaTime": 0,
        "channel": 1,
        "note": 55,
        "velocity": 49
      },
      {
        "type": "midi",
        "subType": "controller",
        "typeByte": 177,
        "deltaTime": 118,
        "channel": 1,
        "controllerType": 64,
        "value": 0
      },
      {
        "type": "midi",
        "subType": "controller",
        "typeByte": 177,
        "deltaTime": 0,
        "channel": 1,
        "controllerType": 64,
        "value": 0
      },
      {
        "type": "midi",
        "subType": "noteOff",
        "typeByte": 129,
        "deltaTime": 2,
        "channel": 1,
        "note": 55,
        "velocity": 0
      },
      {
        "type": "midi",
        "subType": "controller",
        "typeByte": 177,
        "deltaTime": 0,
        "channel": 1,
        "controllerType": 64,
        "value": 127
      },
      {
        "type": "midi",
        "subType": "controller",
        "typeByte": 177,
        "deltaTime": 0,
        "channel": 1,
        "controllerType": 64,
        "value": 127
      },
      {
        "type": "midi",
        "subType": "noteOn",
        "typeByte": 145,
        "deltaTime": 0,
        "channel": 1,
        "note": 48,
        "velocity": 57
      },
      {
        "type": "midi",
        "subType": "noteOff",
        "typeByte": 129,
        "deltaTime": 120,
        "channel": 1,
        "note": 48,
        "velocity": 0
      },
      {
        "type": "midi",
        "subType": "noteOn",
        "typeByte": 145,
        "deltaTime": 0,
        "channel": 1,
        "note": 55,
        "velocity": 57
      },
      {
        "type": "midi",
        "subType": "noteOff",
        "typeByte": 129,
        "deltaTime": 120,
        "channel": 1,
        "note": 55,
        "velocity": 0
      },
      {
        "type": "midi",
        "subType": "noteOn",
        "typeByte": 145,
        "deltaTime": 0,
        "channel": 1,
        "note": 60,
        "velocity": 50
      },
      {
        "type": "midi",
        "subType": "noteOff",
        "typeByte": 129,
        "deltaTime": 120,
        "channel": 1,
        "note": 60,
        "velocity": 0
      },
      {
        "type": "midi",
        "subType": "noteOn",
        "typeByte": 145,
        "deltaTime": 0,
        "channel": 1,
        "note": 64,
        "velocity": 65
      },
      {
        "type": "midi",
        "subType": "controller",
        "typeByte": 177,
        "deltaTime": 118,
        "channel": 1,
        "controllerType": 64,
        "value": 0
      },
      {
        "type": "midi",
        "subType": "controller",
        "typeByte": 177,
        "deltaTime": 0,
        "channel": 1,
        "controllerType": 64,
        "value": 0
      },
      {
        "type": "midi",
        "subType": "noteOff",
        "typeByte": 129,
        "deltaTime": 2,
        "channel": 1,
        "note": 64,
        "velocity": 0
      },
      {
        "type": "midi",
        "subType": "controller",
        "typeByte": 177,
        "deltaTime": 0,
        "channel": 1,
        "controllerType": 64,
        "value": 127
      },
      {
        "type": "midi",
        "subType": "controller",
        "typeByte": 177,
        "deltaTime": 0,
        "channel": 1,
        "controllerType": 64,
        "value": 127
      },
      {
        "type": "midi",
        "subType": "noteOn",
        "typeByte": 145,
        "deltaTime": 0,
        "channel": 1,
        "note": 62,
        "velocity": 59
      },
      {
        "type": "midi",
        "subType": "noteOff",
        "typeByte": 129,
        "deltaTime": 120,
        "channel": 1,
        "note": 62,
        "velocity": 0
      },
      {
        "type": "midi",
        "subType": "noteOn",
        "typeByte": 145,
        "deltaTime": 0,
        "channel": 1,
        "note": 55,
        "velocity": 78
      },
      {
        "type": "midi",
        "subType": "noteOff",
        "typeByte": 129,
        "deltaTime": 120,
        "channel": 1,
        "note": 55,
        "velocity": 0
      },
      {
        "type": "midi",
        "subType": "noteOn",
        "typeByte": 145,
        "deltaTime": 0,
        "channel": 1,
        "note": 62,
        "velocity": 50
      },
      {
        "type": "midi",
        "subType": "noteOff",
        "typeByte": 129,
        "deltaTime": 120,
        "channel": 1,
        "note": 62,
        "velocity": 0
      },
      {
        "type": "midi",
        "subType": "noteOn",
        "typeByte": 145,
        "deltaTime": 0,
        "channel": 1,
        "note": 65,
        "velocity": 76
      },
      {
        "type": "midi",
        "subType": "controller",
        "typeByte": 177,
        "deltaTime": 118,
        "channel": 1,
        "controllerType": 64,
        "value": 0
      },
      {
        "type": "midi",
        "subType": "controller",
        "typeByte": 177,
        "deltaTime": 0,
        "channel": 1,
        "controllerType": 64,
        "value": 0
      },
      {
        "type": "midi",
        "subType": "noteOff",
        "typeByte": 129,
        "deltaTime": 2,
        "channel": 1,
        "note": 65,
        "velocity": 0
      },
      {
        "type": "midi",
        "subType": "controller",
        "typeByte": 177,
        "deltaTime": 0,
        "channel": 1,
        "controllerType": 64,
        "value": 127
      },
      {
        "type": "midi",
        "subType": "controller",
        "typeByte": 177,
        "deltaTime": 0,
        "channel": 1,
        "controllerType": 64,
        "value": 127
      },
      {
        "type": "midi",
        "subType": "noteOn",
        "typeByte": 145,
        "deltaTime": 0,
        "channel": 1,
        "note": 64,
        "velocity": 66
      },
      {
        "type": "midi",
        "subType": "noteOff",
        "typeByte": 129,
        "deltaTime": 240,
        "channel": 1,
        "note": 64,
        "velocity": 0
      },
      {
        "type": "midi",
        "subType": "noteOn",
        "typeByte": 145,
        "deltaTime": 0,
        "channel": 1,
        "note": 60,
        "velocity": 70
      },
      {
        "type": "midi",
        "subType": "controller",
        "typeByte": 177,
        "deltaTime": 238,
        "channel": 1,
        "controllerType": 64,
        "value": 0
      },
      {
        "type": "midi",
        "subType": "controller",
        "typeByte": 177,
        "deltaTime": 0,
        "channel": 1,
        "controllerType": 64,
        "value": 0
      },
      {
        "type": "midi",
        "subType": "noteOff",
        "typeByte": 129,
        "deltaTime": 2,
        "channel": 1,
        "note": 60,
        "velocity": 0
      },
      {
        "type": "midi",
        "subType": "controller",
        "typeByte": 177,
        "deltaTime": 0,
        "channel": 1,
        "controllerType": 64,
        "value": 127
      },
      {
        "type": "midi",
        "subType": "controller",
        "typeByte": 177,
        "deltaTime": 0,
        "channel": 1,
        "controllerType": 64,
        "value": 127
      },
      {
        "type": "midi",
        "subType": "noteOn",
        "typeByte": 145,
        "deltaTime": 0,
        "channel": 1,
        "note": 59,
        "velocity": 55
      },
      {
        "type": "midi",
        "subType": "noteOff",
        "typeByte": 129,
        "deltaTime": 240,
        "channel": 1,
        "note": 59,
        "velocity": 0
      },
      {
        "type": "midi",
        "subType": "noteOn",
        "typeByte": 145,
        "deltaTime": 0,
        "channel": 1,
        "note": 55,
        "velocity": 66
      },
      {
        "type": "midi",
        "subType": "controller",
        "typeByte": 177,
        "deltaTime": 238,
        "channel": 1,
        "controllerType": 64,
        "value": 0
      },
      {
        "type": "midi",
        "subType": "controller",
        "typeByte": 177,
        "deltaTime": 0,
        "channel": 1,
        "controllerType": 64,
        "value": 0
      },
      {
        "type": "midi",
        "subType": "noteOff",
        "typeByte": 129,
        "deltaTime": 2,
        "channel": 1,
        "note": 55,
        "velocity": 0
      },
      {
        "type": "midi",
        "subType": "controller",
        "typeByte": 177,
        "deltaTime": 0,
        "channel": 1,
        "controllerType": 64,
        "value": 127
      },
      {
        "type": "midi",
        "subType": "controller",
        "typeByte": 177,
        "deltaTime": 0,
        "channel": 1,
        "controllerType": 64,
        "value": 127
      },
      {
        "type": "midi",
        "subType": "noteOn",
        "typeByte": 145,
        "deltaTime": 0,
        "channel": 1,
        "note": 60,
        "velocity": 48
      },
      {
        "type": "midi",
        "subType": "noteOff",
        "typeByte": 129,
        "deltaTime": 120,
        "channel": 1,
        "note": 60,
        "velocity": 0
      },
      {
        "type": "midi",
        "subType": "noteOn",
        "typeByte": 145,
        "deltaTime": 0,
        "channel": 1,
        "note": 55,
        "velocity": 57
      },
      {
        "type": "midi",
        "subType": "noteOff",
        "typeByte": 129,
        "deltaTime": 120,
        "channel": 1,
        "note": 55,
        "velocity": 0
      },
      {
        "type": "midi",
        "subType": "noteOn",
        "typeByte": 145,
        "deltaTime": 0,
        "channel": 1,
        "note": 60,
        "velocity": 55
      },
      {
        "type": "midi",
        "subType": "noteOff",
        "typeByte": 129,
        "deltaTime": 120,
        "channel": 1,
        "note": 60,
        "velocity": 0
      },
      {
        "type": "midi",
        "subType": "noteOn",
        "typeByte": 145,
        "deltaTime": 0,
        "channel": 1,
        "note": 64,
        "velocity": 50
      },
      {
        "type": "midi",
        "subType": "controller",
        "typeByte": 177,
        "deltaTime": 118,
        "channel": 1,
        "controllerType": 64,
        "value": 0
      },
      {
        "type": "midi",
        "subType": "controller",
        "typeByte": 177,
        "deltaTime": 0,
        "channel": 1,
        "controllerType": 64,
        "value": 0
      },
      {
        "type": "midi",
        "subType": "noteOff",
        "typeByte": 129,
        "deltaTime": 2,
        "channel": 1,
        "note": 64,
        "velocity": 0
      },
      {
        "type": "midi",
        "subType": "controller",
        "typeByte": 177,
        "deltaTime": 0,
        "channel": 1,
        "controllerType": 64,
        "value": 127
      },
      {
        "type": "midi",
        "subType": "controller",
        "typeByte": 177,
        "deltaTime": 0,
        "channel": 1,
        "controllerType": 64,
        "value": 127
      },
      {
        "type": "midi",
        "subType": "noteOn",
        "typeByte": 145,
        "deltaTime": 0,
        "channel": 1,
        "note": 62,
        "velocity": 55
      },
      {
        "type": "midi",
        "subType": "noteOff",
        "typeByte": 129,
        "deltaTime": 120,
        "channel": 1,
        "note": 62,
        "velocity": 0
      },
      {
        "type": "midi",
        "subType": "noteOn",
        "typeByte": 145,
        "deltaTime": 0,
        "channel": 1,
        "note": 55,
        "velocity": 65
      },
      {
        "type": "midi",
        "subType": "noteOff",
        "typeByte": 129,
        "deltaTime": 120,
        "channel": 1,
        "note": 55,
        "velocity": 0
      },
      {
        "type": "midi",
        "subType": "noteOn",
        "typeByte": 145,
        "deltaTime": 0,
        "channel": 1,
        "note": 62,
        "velocity": 51
      },
      {
        "type": "midi",
        "subType": "noteOff",
        "typeByte": 129,
        "deltaTime": 120,
        "channel": 1,
        "note": 62,
        "velocity": 0
      },
      {
        "type": "midi",
        "subType": "noteOn",
        "typeByte": 145,
        "deltaTime": 0,
        "channel": 1,
        "note": 65,
        "velocity": 49
      },
      {
        "type": "midi",
        "subType": "controller",
        "typeByte": 177,
        "deltaTime": 118,
        "channel": 1,
        "controllerType": 64,
        "value": 0
      },
      {
        "type": "midi",
        "subType": "controller",
        "typeByte": 177,
        "deltaTime": 0,
        "channel": 1,
        "controllerType": 64,
        "value": 0
      },
      {
        "type": "midi",
        "subType": "noteOff",
        "typeByte": 129,
        "deltaTime": 2,
        "channel": 1,
        "note": 65,
        "velocity": 0
      },
      {
        "type": "midi",
        "subType": "controller",
        "typeByte": 177,
        "deltaTime": 0,
        "channel": 1,
        "controllerType": 64,
        "value": 127
      },
      {
        "type": "midi",
        "subType": "controller",
        "typeByte": 177,
        "deltaTime": 0,
        "channel": 1,
        "controllerType": 64,
        "value": 127
      },
      {
        "type": "midi",
        "subType": "noteOn",
        "typeByte": 145,
        "deltaTime": 0,
        "channel": 1,
        "note": 64,
        "velocity": 62
      },
      {
        "type": "midi",
        "subType": "noteOff",
        "typeByte": 129,
        "deltaTime": 240,
        "channel": 1,
        "note": 64,
        "velocity": 0
      },
      {
        "type": "midi",
        "subType": "noteOn",
        "typeByte": 145,
        "deltaTime": 0,
        "channel": 1,
        "note": 60,
        "velocity": 72
      },
      {
        "type": "midi",
        "subType": "controller",
        "typeByte": 177,
        "deltaTime": 238,
        "channel": 1,
        "controllerType": 64,
        "value": 0
      },
      {
        "type": "midi",
        "subType": "controller",
        "typeByte": 177,
        "deltaTime": 0,
        "channel": 1,
        "controllerType": 64,
        "value": 0
      },
      {
        "type": "midi",
        "subType": "noteOff",
        "typeByte": 129,
        "deltaTime": 2,
        "channel": 1,
        "note": 60,
        "velocity": 0
      },
      {
        "type": "midi",
        "subType": "controller",
        "typeByte": 177,
        "deltaTime": 0,
        "channel": 1,
        "controllerType": 64,
        "value": 127
      },
      {
        "type": "midi",
        "subType": "controller",
        "typeByte": 177,
        "deltaTime": 0,
        "channel": 1,
        "controllerType": 64,
        "value": 127
      },
      {
        "type": "midi",
        "subType": "controller",
        "typeByte": 177,
        "deltaTime": 478,
        "channel": 1,
        "controllerType": 64,
        "value": 0
      },
      {
        "type": "midi",
        "subType": "controller",
        "typeByte": 177,
        "deltaTime": 0,
        "channel": 1,
        "controllerType": 64,
        "value": 0
      },
      {
        "type": "midi",
        "subType": "controller",
        "typeByte": 177,
        "deltaTime": 2,
        "channel": 1,
        "controllerType": 64,
        "value": 127
      },
      {
        "type": "midi",
        "subType": "controller",
        "typeByte": 177,
        "deltaTime": 0,
        "channel": 1,
        "controllerType": 64,
        "value": 127
      },
      {
        "type": "midi",
        "subType": "noteOn",
        "typeByte": 145,
        "deltaTime": 120,
        "channel": 1,
        "note": 67,
        "velocity": 63
      },
      {
        "type": "midi",
        "subType": "noteOff",
        "typeByte": 129,
        "deltaTime": 120,
        "channel": 1,
        "note": 67,
        "velocity": 0
      },
      {
        "type": "midi",
        "subType": "noteOn",
        "typeByte": 145,
        "deltaTime": 0,
        "channel": 1,
        "note": 64,
        "velocity": 47
      },
      {
        "type": "midi",
        "subType": "noteOff",
        "typeByte": 129,
        "deltaTime": 120,
        "channel": 1,
        "note": 64,
        "velocity": 0
      },
      {
        "type": "midi",
        "subType": "noteOn",
        "typeByte": 145,
        "deltaTime": 0,
        "channel": 1,
        "note": 67,
        "velocity": 63
      },
      {
        "type": "midi",
        "subType": "controller",
        "typeByte": 177,
        "deltaTime": 118,
        "channel": 1,
        "controllerType": 64,
        "value": 0
      },
      {
        "type": "midi",
        "subType": "controller",
        "typeByte": 177,
        "deltaTime": 0,
        "channel": 1,
        "controllerType": 64,
        "value": 0
      },
      {
        "type": "midi",
        "subType": "noteOff",
        "typeByte": 129,
        "deltaTime": 2,
        "channel": 1,
        "note": 67,
        "velocity": 0
      },
      {
        "type": "midi",
        "subType": "controller",
        "typeByte": 177,
        "deltaTime": 0,
        "channel": 1,
        "controllerType": 64,
        "value": 127
      },
      {
        "type": "midi",
        "subType": "controller",
        "typeByte": 177,
        "deltaTime": 0,
        "channel": 1,
        "controllerType": 64,
        "value": 127
      },
      {
        "type": "midi",
        "subType": "noteOn",
        "typeByte": 145,
        "deltaTime": 0,
        "channel": 1,
        "note": 60,
        "velocity": 61
      },
      {
        "type": "midi",
        "subType": "noteOff",
        "typeByte": 129,
        "deltaTime": 120,
        "channel": 1,
        "note": 60,
        "velocity": 0
      },
      {
        "type": "midi",
        "subType": "noteOn",
        "typeByte": 145,
        "deltaTime": 0,
        "channel": 1,
        "note": 64,
        "velocity": 32
      },
      {
        "type": "midi",
        "subType": "noteOff",
        "typeByte": 129,
        "deltaTime": 120,
        "channel": 1,
        "note": 64,
        "velocity": 0
      },
      {
        "type": "midi",
        "subType": "noteOn",
        "typeByte": 145,
        "deltaTime": 0,
        "channel": 1,
        "note": 55,
        "velocity": 57
      },
      {
        "type": "midi",
        "subType": "noteOff",
        "typeByte": 129,
        "deltaTime": 120,
        "channel": 1,
        "note": 55,
        "velocity": 0
      },
      {
        "type": "midi",
        "subType": "noteOn",
        "typeByte": 145,
        "deltaTime": 0,
        "channel": 1,
        "note": 59,
        "velocity": 50
      },
      {
        "type": "midi",
        "subType": "controller",
        "typeByte": 177,
        "deltaTime": 118,
        "channel": 1,
        "controllerType": 64,
        "value": 0
      },
      {
        "type": "midi",
        "subType": "controller",
        "typeByte": 177,
        "deltaTime": 0,
        "channel": 1,
        "controllerType": 64,
        "value": 0
      },
      {
        "type": "midi",
        "subType": "noteOff",
        "typeByte": 129,
        "deltaTime": 2,
        "channel": 1,
        "note": 59,
        "velocity": 0
      },
      {
        "type": "midi",
        "subType": "controller",
        "typeByte": 177,
        "deltaTime": 0,
        "channel": 1,
        "controllerType": 64,
        "value": 127
      },
      {
        "type": "midi",
        "subType": "controller",
        "typeByte": 177,
        "deltaTime": 0,
        "channel": 1,
        "controllerType": 64,
        "value": 127
      },
      {
        "type": "midi",
        "subType": "noteOn",
        "typeByte": 145,
        "deltaTime": 0,
        "channel": 1,
        "note": 57,
        "velocity": 66
      },
      {
        "type": "midi",
        "subType": "noteOff",
        "typeByte": 129,
        "deltaTime": 240,
        "channel": 1,
        "note": 57,
        "velocity": 0
      },
      {
        "type": "midi",
        "subType": "noteOn",
        "typeByte": 145,
        "deltaTime": 0,
        "channel": 1,
        "note": 60,
        "velocity": 62
      },
      {
        "type": "midi",
        "subType": "controller",
        "typeByte": 177,
        "deltaTime": 238,
        "channel": 1,
        "controllerType": 64,
        "value": 0
      },
      {
        "type": "midi",
        "subType": "controller",
        "typeByte": 177,
        "deltaTime": 0,
        "channel": 1,
        "controllerType": 64,
        "value": 0
      },
      {
        "type": "midi",
        "subType": "noteOff",
        "typeByte": 129,
        "deltaTime": 2,
        "channel": 1,
        "note": 60,
        "velocity": 0
      },
      {
        "type": "midi",
        "subType": "controller",
        "typeByte": 177,
        "deltaTime": 0,
        "channel": 1,
        "controllerType": 64,
        "value": 127
      },
      {
        "type": "midi",
        "subType": "controller",
        "typeByte": 177,
        "deltaTime": 0,
        "channel": 1,
        "controllerType": 64,
        "value": 127
      },
      {
        "type": "midi",
        "subType": "noteOn",
        "typeByte": 145,
        "deltaTime": 0,
        "channel": 1,
        "note": 64,
        "velocity": 55
      },
      {
        "type": "midi",
        "subType": "noteOff",
        "typeByte": 129,
        "deltaTime": 240,
        "channel": 1,
        "note": 64,
        "velocity": 0
      },
      {
        "type": "midi",
        "subType": "noteOn",
        "typeByte": 145,
        "deltaTime": 0,
        "channel": 1,
        "note": 67,
        "velocity": 74
      },
      {
        "type": "midi",
        "subType": "controller",
        "typeByte": 177,
        "deltaTime": 238,
        "channel": 1,
        "controllerType": 64,
        "value": 0
      },
      {
        "type": "midi",
        "subType": "controller",
        "typeByte": 177,
        "deltaTime": 0,
        "channel": 1,
        "controllerType": 64,
        "value": 0
      },
      {
        "type": "midi",
        "subType": "noteOff",
        "typeByte": 129,
        "deltaTime": 2,
        "channel": 1,
        "note": 67,
        "velocity": 0
      },
      {
        "type": "midi",
        "subType": "controller",
        "typeByte": 177,
        "deltaTime": 0,
        "channel": 1,
        "controllerType": 64,
        "value": 127
      },
      {
        "type": "midi",
        "subType": "controller",
        "typeByte": 177,
        "deltaTime": 0,
        "channel": 1,
        "controllerType": 64,
        "value": 127
      },
      {
        "type": "midi",
        "subType": "noteOn",
        "typeByte": 145,
        "deltaTime": 0,
        "channel": 1,
        "note": 66,
        "velocity": 58
      },
      {
        "type": "midi",
        "subType": "noteOff",
        "typeByte": 129,
        "deltaTime": 120,
        "channel": 1,
        "note": 66,
        "velocity": 0
      },
      {
        "type": "midi",
        "subType": "noteOn",
        "typeByte": 145,
        "deltaTime": 0,
        "channel": 1,
        "note": 69,
        "velocity": 55
      },
      {
        "type": "midi",
        "subType": "noteOff",
        "typeByte": 129,
        "deltaTime": 120,
        "channel": 1,
        "note": 69,
        "velocity": 0
      },
      {
        "type": "midi",
        "subType": "noteOn",
        "typeByte": 145,
        "deltaTime": 0,
        "channel": 1,
        "note": 62,
        "velocity": 61
      },
      {
        "type": "midi",
        "subType": "noteOff",
        "typeByte": 129,
        "deltaTime": 120,
        "channel": 1,
        "note": 62,
        "velocity": 0
      },
      {
        "type": "midi",
        "subType": "noteOn",
        "typeByte": 145,
        "deltaTime": 0,
        "channel": 1,
        "note": 66,
        "velocity": 62
      },
      {
        "type": "midi",
        "subType": "controller",
        "typeByte": 177,
        "deltaTime": 118,
        "channel": 1,
        "controllerType": 64,
        "value": 0
      },
      {
        "type": "midi",
        "subType": "controller",
        "typeByte": 177,
        "deltaTime": 0,
        "channel": 1,
        "controllerType": 64,
        "value": 0
      },
      {
        "type": "midi",
        "subType": "noteOff",
        "typeByte": 129,
        "deltaTime": 2,
        "channel": 1,
        "note": 66,
        "velocity": 0
      },
      {
        "type": "midi",
        "subType": "controller",
        "typeByte": 177,
        "deltaTime": 0,
        "channel": 1,
        "controllerType": 64,
        "value": 127
      },
      {
        "type": "midi",
        "subType": "controller",
        "typeByte": 177,
        "deltaTime": 0,
        "channel": 1,
        "controllerType": 64,
        "value": 127
      },
      {
        "type": "midi",
        "subType": "noteOn",
        "typeByte": 145,
        "deltaTime": 0,
        "channel": 1,
        "note": 57,
        "velocity": 65
      },
      {
        "type": "midi",
        "subType": "noteOff",
        "typeByte": 129,
        "deltaTime": 120,
        "channel": 1,
        "note": 57,
        "velocity": 0
      },
      {
        "type": "midi",
        "subType": "noteOn",
        "typeByte": 145,
        "deltaTime": 0,
        "channel": 1,
        "note": 62,
        "velocity": 50
      },
      {
        "type": "midi",
        "subType": "noteOff",
        "typeByte": 129,
        "deltaTime": 120,
        "channel": 1,
        "note": 62,
        "velocity": 0
      },
      {
        "type": "midi",
        "subType": "noteOn",
        "typeByte": 145,
        "deltaTime": 0,
        "channel": 1,
        "note": 54,
        "velocity": 63
      },
      {
        "type": "midi",
        "subType": "noteOff",
        "typeByte": 129,
        "deltaTime": 120,
        "channel": 1,
        "note": 54,
        "velocity": 0
      },
      {
        "type": "midi",
        "subType": "noteOn",
        "typeByte": 145,
        "deltaTime": 0,
        "channel": 1,
        "note": 57,
        "velocity": 55
      },
      {
        "type": "midi",
        "subType": "controller",
        "typeByte": 177,
        "deltaTime": 118,
        "channel": 1,
        "controllerType": 64,
        "value": 0
      },
      {
        "type": "midi",
        "subType": "controller",
        "typeByte": 177,
        "deltaTime": 0,
        "channel": 1,
        "controllerType": 64,
        "value": 0
      },
      {
        "type": "midi",
        "subType": "noteOff",
        "typeByte": 129,
        "deltaTime": 2,
        "channel": 1,
        "note": 57,
        "velocity": 0
      },
      {
        "type": "midi",
        "subType": "controller",
        "typeByte": 177,
        "deltaTime": 0,
        "channel": 1,
        "controllerType": 64,
        "value": 127
      },
      {
        "type": "midi",
        "subType": "controller",
        "typeByte": 177,
        "deltaTime": 0,
        "channel": 1,
        "controllerType": 64,
        "value": 127
      },
      {
        "type": "midi",
        "subType": "noteOn",
        "typeByte": 145,
        "deltaTime": 0,
        "channel": 1,
        "note": 55,
        "velocity": 56
      },
      {
        "type": "midi",
        "subType": "noteOff",
        "typeByte": 129,
        "deltaTime": 240,
        "channel": 1,
        "note": 55,
        "velocity": 0
      },
      {
        "type": "midi",
        "subType": "noteOn",
        "typeByte": 145,
        "deltaTime": 0,
        "channel": 1,
        "note": 59,
        "velocity": 61
      },
      {
        "type": "midi",
        "subType": "controller",
        "typeByte": 177,
        "deltaTime": 238,
        "channel": 1,
        "controllerType": 64,
        "value": 0
      },
      {
        "type": "midi",
        "subType": "controller",
        "typeByte": 177,
        "deltaTime": 0,
        "channel": 1,
        "controllerType": 64,
        "value": 0
      },
      {
        "type": "midi",
        "subType": "noteOff",
        "typeByte": 129,
        "deltaTime": 2,
        "channel": 1,
        "note": 59,
        "velocity": 0
      },
      {
        "type": "midi",
        "subType": "controller",
        "typeByte": 177,
        "deltaTime": 0,
        "channel": 1,
        "controllerType": 64,
        "value": 127
      },
      {
        "type": "midi",
        "subType": "controller",
        "typeByte": 177,
        "deltaTime": 0,
        "channel": 1,
        "controllerType": 64,
        "value": 127
      },
      {
        "type": "midi",
        "subType": "noteOn",
        "typeByte": 145,
        "deltaTime": 0,
        "channel": 1,
        "note": 62,
        "velocity": 66
      },
      {
        "type": "midi",
        "subType": "noteOff",
        "typeByte": 129,
        "deltaTime": 240,
        "channel": 1,
        "note": 62,
        "velocity": 0
      },
      {
        "type": "midi",
        "subType": "noteOn",
        "typeByte": 145,
        "deltaTime": 0,
        "channel": 1,
        "note": 66,
        "velocity": 71
      },
      {
        "type": "midi",
        "subType": "controller",
        "typeByte": 177,
        "deltaTime": 238,
        "channel": 1,
        "controllerType": 64,
        "value": 0
      },
      {
        "type": "midi",
        "subType": "controller",
        "typeByte": 177,
        "deltaTime": 0,
        "channel": 1,
        "controllerType": 64,
        "value": 0
      },
      {
        "type": "midi",
        "subType": "noteOff",
        "typeByte": 129,
        "deltaTime": 2,
        "channel": 1,
        "note": 66,
        "velocity": 0
      },
      {
        "type": "midi",
        "subType": "controller",
        "typeByte": 177,
        "deltaTime": 0,
        "channel": 1,
        "controllerType": 64,
        "value": 127
      },
      {
        "type": "midi",
        "subType": "controller",
        "typeByte": 177,
        "deltaTime": 0,
        "channel": 1,
        "controllerType": 64,
        "value": 127
      },
      {
        "type": "midi",
        "subType": "noteOn",
        "typeByte": 145,
        "deltaTime": 0,
        "channel": 1,
        "note": 64,
        "velocity": 66
      },
      {
        "type": "midi",
        "subType": "noteOff",
        "typeByte": 129,
        "deltaTime": 120,
        "channel": 1,
        "note": 64,
        "velocity": 0
      },
      {
        "type": "midi",
        "subType": "noteOn",
        "typeByte": 145,
        "deltaTime": 0,
        "channel": 1,
        "note": 67,
        "velocity": 65
      },
      {
        "type": "midi",
        "subType": "noteOff",
        "typeByte": 129,
        "deltaTime": 120,
        "channel": 1,
        "note": 67,
        "velocity": 0
      },
      {
        "type": "midi",
        "subType": "noteOn",
        "typeByte": 145,
        "deltaTime": 0,
        "channel": 1,
        "note": 60,
        "velocity": 61
      },
      {
        "type": "midi",
        "subType": "noteOff",
        "typeByte": 129,
        "deltaTime": 120,
        "channel": 1,
        "note": 60,
        "velocity": 0
      },
      {
        "type": "midi",
        "subType": "noteOn",
        "typeByte": 145,
        "deltaTime": 0,
        "channel": 1,
        "note": 64,
        "velocity": 66
      },
      {
        "type": "midi",
        "subType": "controller",
        "typeByte": 177,
        "deltaTime": 118,
        "channel": 1,
        "controllerType": 64,
        "value": 0
      },
      {
        "type": "midi",
        "subType": "controller",
        "typeByte": 177,
        "deltaTime": 0,
        "channel": 1,
        "controllerType": 64,
        "value": 0
      },
      {
        "type": "midi",
        "subType": "noteOff",
        "typeByte": 129,
        "deltaTime": 2,
        "channel": 1,
        "note": 64,
        "velocity": 0
      },
      {
        "type": "midi",
        "subType": "controller",
        "typeByte": 177,
        "deltaTime": 0,
        "channel": 1,
        "controllerType": 64,
        "value": 127
      },
      {
        "type": "midi",
        "subType": "controller",
        "typeByte": 177,
        "deltaTime": 0,
        "channel": 1,
        "controllerType": 64,
        "value": 127
      },
      {
        "type": "midi",
        "subType": "noteOn",
        "typeByte": 145,
        "deltaTime": 0,
        "channel": 1,
        "note": 55,
        "velocity": 59
      },
      {
        "type": "midi",
        "subType": "noteOff",
        "typeByte": 129,
        "deltaTime": 120,
        "channel": 1,
        "note": 55,
        "velocity": 0
      },
      {
        "type": "midi",
        "subType": "noteOn",
        "typeByte": 145,
        "deltaTime": 0,
        "channel": 1,
        "note": 60,
        "velocity": 65
      },
      {
        "type": "midi",
        "subType": "noteOff",
        "typeByte": 129,
        "deltaTime": 120,
        "channel": 1,
        "note": 60,
        "velocity": 0
      },
      {
        "type": "midi",
        "subType": "noteOn",
        "typeByte": 145,
        "deltaTime": 0,
        "channel": 1,
        "note": 52,
        "velocity": 62
      },
      {
        "type": "midi",
        "subType": "noteOff",
        "typeByte": 129,
        "deltaTime": 120,
        "channel": 1,
        "note": 52,
        "velocity": 0
      },
      {
        "type": "midi",
        "subType": "noteOn",
        "typeByte": 145,
        "deltaTime": 0,
        "channel": 1,
        "note": 55,
        "velocity": 50
      },
      {
        "type": "midi",
        "subType": "controller",
        "typeByte": 177,
        "deltaTime": 118,
        "channel": 1,
        "controllerType": 64,
        "value": 0
      },
      {
        "type": "midi",
        "subType": "controller",
        "typeByte": 177,
        "deltaTime": 0,
        "channel": 1,
        "controllerType": 64,
        "value": 0
      },
      {
        "type": "midi",
        "subType": "noteOff",
        "typeByte": 129,
        "deltaTime": 2,
        "channel": 1,
        "note": 55,
        "velocity": 0
      },
      {
        "type": "midi",
        "subType": "controller",
        "typeByte": 177,
        "deltaTime": 0,
        "channel": 1,
        "controllerType": 64,
        "value": 127
      },
      {
        "type": "midi",
        "subType": "controller",
        "typeByte": 177,
        "deltaTime": 0,
        "channel": 1,
        "controllerType": 64,
        "value": 127
      },
      {
        "type": "midi",
        "subType": "noteOn",
        "typeByte": 145,
        "deltaTime": 0,
        "channel": 1,
        "note": 54,
        "velocity": 68
      },
      {
        "type": "midi",
        "subType": "noteOff",
        "typeByte": 129,
        "deltaTime": 240,
        "channel": 1,
        "note": 54,
        "velocity": 0
      },
      {
        "type": "midi",
        "subType": "noteOn",
        "typeByte": 145,
        "deltaTime": 0,
        "channel": 1,
        "note": 57,
        "velocity": 61
      },
      {
        "type": "midi",
        "subType": "controller",
        "typeByte": 177,
        "deltaTime": 238,
        "channel": 1,
        "controllerType": 64,
        "value": 0
      },
      {
        "type": "midi",
        "subType": "controller",
        "typeByte": 177,
        "deltaTime": 0,
        "channel": 1,
        "controllerType": 64,
        "value": 0
      },
      {
        "type": "midi",
        "subType": "noteOff",
        "typeByte": 129,
        "deltaTime": 2,
        "channel": 1,
        "note": 57,
        "velocity": 0
      },
      {
        "type": "midi",
        "subType": "controller",
        "typeByte": 177,
        "deltaTime": 0,
        "channel": 1,
        "controllerType": 64,
        "value": 127
      },
      {
        "type": "midi",
        "subType": "controller",
        "typeByte": 177,
        "deltaTime": 0,
        "channel": 1,
        "controllerType": 64,
        "value": 127
      },
      {
        "type": "midi",
        "subType": "noteOn",
        "typeByte": 145,
        "deltaTime": 0,
        "channel": 1,
        "note": 59,
        "velocity": 58
      },
      {
        "type": "midi",
        "subType": "noteOff",
        "typeByte": 129,
        "deltaTime": 240,
        "channel": 1,
        "note": 59,
        "velocity": 0
      },
      {
        "type": "midi",
        "subType": "noteOn",
        "typeByte": 145,
        "deltaTime": 0,
        "channel": 1,
        "note": 63,
        "velocity": 82
      },
      {
        "type": "midi",
        "subType": "controller",
        "typeByte": 177,
        "deltaTime": 238,
        "channel": 1,
        "controllerType": 64,
        "value": 0
      },
      {
        "type": "midi",
        "subType": "controller",
        "typeByte": 177,
        "deltaTime": 0,
        "channel": 1,
        "controllerType": 64,
        "value": 0
      },
      {
        "type": "midi",
        "subType": "noteOff",
        "typeByte": 129,
        "deltaTime": 2,
        "channel": 1,
        "note": 63,
        "velocity": 0
      },
      {
        "type": "midi",
        "subType": "controller",
        "typeByte": 177,
        "deltaTime": 0,
        "channel": 1,
        "controllerType": 64,
        "value": 127
      },
      {
        "type": "midi",
        "subType": "controller",
        "typeByte": 177,
        "deltaTime": 0,
        "channel": 1,
        "controllerType": 64,
        "value": 127
      },
      {
        "type": "midi",
        "subType": "noteOn",
        "typeByte": 145,
        "deltaTime": 120,
        "channel": 1,
        "note": 64,
        "velocity": 70
      },
      {
        "type": "midi",
        "subType": "noteOff",
        "typeByte": 129,
        "deltaTime": 120,
        "channel": 1,
        "note": 64,
        "velocity": 0
      },
      {
        "type": "midi",
        "subType": "noteOn",
        "typeByte": 145,
        "deltaTime": 0,
        "channel": 1,
        "note": 60,
        "velocity": 57
      },
      {
        "type": "midi",
        "subType": "noteOff",
        "typeByte": 129,
        "deltaTime": 120,
        "channel": 1,
        "note": 60,
        "velocity": 0
      },
      {
        "type": "midi",
        "subType": "noteOn",
        "typeByte": 145,
        "deltaTime": 0,
        "channel": 1,
        "note": 64,
        "velocity": 58
      },
      {
        "type": "midi",
        "subType": "controller",
        "typeByte": 177,
        "deltaTime": 118,
        "channel": 1,
        "controllerType": 64,
        "value": 0
      },
      {
        "type": "midi",
        "subType": "controller",
        "typeByte": 177,
        "deltaTime": 0,
        "channel": 1,
        "controllerType": 64,
        "value": 0
      },
      {
        "type": "midi",
        "subType": "noteOff",
        "typeByte": 129,
        "deltaTime": 2,
        "channel": 1,
        "note": 64,
        "velocity": 0
      },
      {
        "type": "midi",
        "subType": "controller",
        "typeByte": 177,
        "deltaTime": 0,
        "channel": 1,
        "controllerType": 64,
        "value": 127
      },
      {
        "type": "midi",
        "subType": "controller",
        "typeByte": 177,
        "deltaTime": 0,
        "channel": 1,
        "controllerType": 64,
        "value": 127
      },
      {
        "type": "midi",
        "subType": "noteOn",
        "typeByte": 145,
        "deltaTime": 0,
        "channel": 1,
        "note": 57,
        "velocity": 66
      },
      {
        "type": "midi",
        "subType": "noteOff",
        "typeByte": 129,
        "deltaTime": 120,
        "channel": 1,
        "note": 57,
        "velocity": 0
      },
      {
        "type": "midi",
        "subType": "noteOn",
        "typeByte": 145,
        "deltaTime": 0,
        "channel": 1,
        "note": 60,
        "velocity": 52
      },
      {
        "type": "midi",
        "subType": "noteOff",
        "typeByte": 129,
        "deltaTime": 120,
        "channel": 1,
        "note": 60,
        "velocity": 0
      },
      {
        "type": "midi",
        "subType": "noteOn",
        "typeByte": 145,
        "deltaTime": 0,
        "channel": 1,
        "note": 64,
        "velocity": 62
      },
      {
        "type": "midi",
        "subType": "noteOff",
        "typeByte": 129,
        "deltaTime": 120,
        "channel": 1,
        "note": 64,
        "velocity": 0
      },
      {
        "type": "midi",
        "subType": "noteOn",
        "typeByte": 145,
        "deltaTime": 0,
        "channel": 1,
        "note": 67,
        "velocity": 74
      },
      {
        "type": "midi",
        "subType": "controller",
        "typeByte": 177,
        "deltaTime": 118,
        "channel": 1,
        "controllerType": 64,
        "value": 0
      },
      {
        "type": "midi",
        "subType": "controller",
        "typeByte": 177,
        "deltaTime": 0,
        "channel": 1,
        "controllerType": 64,
        "value": 0
      },
      {
        "type": "midi",
        "subType": "noteOff",
        "typeByte": 129,
        "deltaTime": 2,
        "channel": 1,
        "note": 67,
        "velocity": 0
      },
      {
        "type": "midi",
        "subType": "controller",
        "typeByte": 177,
        "deltaTime": 0,
        "channel": 1,
        "controllerType": 64,
        "value": 127
      },
      {
        "type": "midi",
        "subType": "controller",
        "typeByte": 177,
        "deltaTime": 0,
        "channel": 1,
        "controllerType": 64,
        "value": 127
      },
      {
        "type": "midi",
        "subType": "noteOn",
        "typeByte": 145,
        "deltaTime": 0,
        "channel": 1,
        "note": 66,
        "velocity": 58
      },
      {
        "type": "midi",
        "subType": "noteOff",
        "typeByte": 129,
        "deltaTime": 120,
        "channel": 1,
        "note": 66,
        "velocity": 0
      },
      {
        "type": "midi",
        "subType": "noteOn",
        "typeByte": 145,
        "deltaTime": 0,
        "channel": 1,
        "note": 62,
        "velocity": 62
      },
      {
        "type": "midi",
        "subType": "noteOff",
        "typeByte": 129,
        "deltaTime": 120,
        "channel": 1,
        "note": 62,
        "velocity": 0
      },
      {
        "type": "midi",
        "subType": "noteOn",
        "typeByte": 145,
        "deltaTime": 0,
        "channel": 1,
        "note": 59,
        "velocity": 67
      },
      {
        "type": "midi",
        "subType": "noteOff",
        "typeByte": 129,
        "deltaTime": 120,
        "channel": 1,
        "note": 59,
        "velocity": 0
      },
      {
        "type": "midi",
        "subType": "noteOn",
        "typeByte": 145,
        "deltaTime": 0,
        "channel": 1,
        "note": 62,
        "velocity": 34
      },
      {
        "type": "midi",
        "subType": "controller",
        "typeByte": 177,
        "deltaTime": 118,
        "channel": 1,
        "controllerType": 64,
        "value": 0
      },
      {
        "type": "midi",
        "subType": "controller",
        "typeByte": 177,
        "deltaTime": 0,
        "channel": 1,
        "controllerType": 64,
        "value": 0
      },
      {
        "type": "midi",
        "subType": "noteOff",
        "typeByte": 129,
        "deltaTime": 2,
        "channel": 1,
        "note": 62,
        "velocity": 0
      },
      {
        "type": "midi",
        "subType": "controller",
        "typeByte": 177,
        "deltaTime": 0,
        "channel": 1,
        "controllerType": 64,
        "value": 127
      },
      {
        "type": "midi",
        "subType": "controller",
        "typeByte": 177,
        "deltaTime": 0,
        "channel": 1,
        "controllerType": 64,
        "value": 127
      },
      {
        "type": "midi",
        "subType": "noteOn",
        "typeByte": 145,
        "deltaTime": 0,
        "channel": 1,
        "note": 55,
        "velocity": 62
      },
      {
        "type": "midi",
        "subType": "noteOff",
        "typeByte": 129,
        "deltaTime": 120,
        "channel": 1,
        "note": 55,
        "velocity": 0
      },
      {
        "type": "midi",
        "subType": "noteOn",
        "typeByte": 145,
        "deltaTime": 0,
        "channel": 1,
        "note": 59,
        "velocity": 46
      },
      {
        "type": "midi",
        "subType": "noteOff",
        "typeByte": 129,
        "deltaTime": 120,
        "channel": 1,
        "note": 59,
        "velocity": 0
      },
      {
        "type": "midi",
        "subType": "noteOn",
        "typeByte": 145,
        "deltaTime": 0,
        "channel": 1,
        "note": 62,
        "velocity": 59
      },
      {
        "type": "midi",
        "subType": "noteOff",
        "typeByte": 129,
        "deltaTime": 120,
        "channel": 1,
        "note": 62,
        "velocity": 0
      },
      {
        "type": "midi",
        "subType": "noteOn",
        "typeByte": 145,
        "deltaTime": 0,
        "channel": 1,
        "note": 66,
        "velocity": 75
      },
      {
        "type": "midi",
        "subType": "controller",
        "typeByte": 177,
        "deltaTime": 118,
        "channel": 1,
        "controllerType": 64,
        "value": 0
      },
      {
        "type": "midi",
        "subType": "controller",
        "typeByte": 177,
        "deltaTime": 0,
        "channel": 1,
        "controllerType": 64,
        "value": 0
      },
      {
        "type": "midi",
        "subType": "noteOff",
        "typeByte": 129,
        "deltaTime": 2,
        "channel": 1,
        "note": 66,
        "velocity": 0
      },
      {
        "type": "midi",
        "subType": "controller",
        "typeByte": 177,
        "deltaTime": 0,
        "channel": 1,
        "controllerType": 64,
        "value": 127
      },
      {
        "type": "midi",
        "subType": "controller",
        "typeByte": 177,
        "deltaTime": 0,
        "channel": 1,
        "controllerType": 64,
        "value": 127
      },
      {
        "type": "midi",
        "subType": "noteOn",
        "typeByte": 145,
        "deltaTime": 0,
        "channel": 1,
        "note": 64,
        "velocity": 62
      },
      {
        "type": "midi",
        "subType": "noteOff",
        "typeByte": 129,
        "deltaTime": 120,
        "channel": 1,
        "note": 64,
        "velocity": 0
      },
      {
        "type": "midi",
        "subType": "noteOn",
        "typeByte": 145,
        "deltaTime": 0,
        "channel": 1,
        "note": 60,
        "velocity": 50
      },
      {
        "type": "midi",
        "subType": "noteOff",
        "typeByte": 129,
        "deltaTime": 120,
        "channel": 1,
        "note": 60,
        "velocity": 0
      },
      {
        "type": "midi",
        "subType": "noteOn",
        "typeByte": 145,
        "deltaTime": 0,
        "channel": 1,
        "note": 57,
        "velocity": 59
      },
      {
        "type": "midi",
        "subType": "noteOff",
        "typeByte": 129,
        "deltaTime": 120,
        "channel": 1,
        "note": 57,
        "velocity": 0
      },
      {
        "type": "midi",
        "subType": "noteOn",
        "typeByte": 145,
        "deltaTime": 0,
        "channel": 1,
        "note": 60,
        "velocity": 50
      },
      {
        "type": "midi",
        "subType": "controller",
        "typeByte": 177,
        "deltaTime": 118,
        "channel": 1,
        "controllerType": 64,
        "value": 0
      },
      {
        "type": "midi",
        "subType": "controller",
        "typeByte": 177,
        "deltaTime": 0,
        "channel": 1,
        "controllerType": 64,
        "value": 0
      },
      {
        "type": "midi",
        "subType": "noteOff",
        "typeByte": 129,
        "deltaTime": 2,
        "channel": 1,
        "note": 60,
        "velocity": 0
      },
      {
        "type": "midi",
        "subType": "controller",
        "typeByte": 177,
        "deltaTime": 0,
        "channel": 1,
        "controllerType": 64,
        "value": 127
      },
      {
        "type": "midi",
        "subType": "controller",
        "typeByte": 177,
        "deltaTime": 0,
        "channel": 1,
        "controllerType": 64,
        "value": 127
      },
      {
        "type": "midi",
        "subType": "noteOn",
        "typeByte": 145,
        "deltaTime": 0,
        "channel": 1,
        "note": 54,
        "velocity": 60
      },
      {
        "type": "midi",
        "subType": "noteOff",
        "typeByte": 129,
        "deltaTime": 120,
        "channel": 1,
        "note": 54,
        "velocity": 0
      },
      {
        "type": "midi",
        "subType": "noteOn",
        "typeByte": 145,
        "deltaTime": 0,
        "channel": 1,
        "note": 57,
        "velocity": 62
      },
      {
        "type": "midi",
        "subType": "noteOff",
        "typeByte": 129,
        "deltaTime": 120,
        "channel": 1,
        "note": 57,
        "velocity": 0
      },
      {
        "type": "midi",
        "subType": "noteOn",
        "typeByte": 145,
        "deltaTime": 0,
        "channel": 1,
        "note": 60,
        "velocity": 66
      },
      {
        "type": "midi",
        "subType": "controller",
        "typeByte": 177,
        "deltaTime": 238,
        "channel": 1,
        "controllerType": 64,
        "value": 0
      },
      {
        "type": "midi",
        "subType": "controller",
        "typeByte": 177,
        "deltaTime": 0,
        "channel": 1,
        "controllerType": 64,
        "value": 0
      },
      {
        "type": "midi",
        "subType": "noteOff",
        "typeByte": 129,
        "deltaTime": 2,
        "channel": 1,
        "note": 60,
        "velocity": 0
      },
      {
        "type": "midi",
        "subType": "controller",
        "typeByte": 177,
        "deltaTime": 0,
        "channel": 1,
        "controllerType": 64,
        "value": 127
      },
      {
        "type": "midi",
        "subType": "controller",
        "typeByte": 177,
        "deltaTime": 0,
        "channel": 1,
        "controllerType": 64,
        "value": 127
      },
      {
        "type": "midi",
        "subType": "noteOn",
        "typeByte": 145,
        "deltaTime": 120,
        "channel": 1,
        "note": 59,
        "velocity": 57
      },
      {
        "type": "midi",
        "subType": "noteOff",
        "typeByte": 129,
        "deltaTime": 120,
        "channel": 1,
        "note": 59,
        "velocity": 0
      },
      {
        "type": "midi",
        "subType": "noteOn",
        "typeByte": 145,
        "deltaTime": 0,
        "channel": 1,
        "note": 60,
        "velocity": 52
      },
      {
        "type": "midi",
        "subType": "noteOff",
        "typeByte": 129,
        "deltaTime": 120,
        "channel": 1,
        "note": 60,
        "velocity": 0
      },
      {
        "type": "midi",
        "subType": "noteOn",
        "typeByte": 145,
        "deltaTime": 0,
        "channel": 1,
        "note": 57,
        "velocity": 54
      },
      {
        "type": "midi",
        "subType": "controller",
        "typeByte": 177,
        "deltaTime": 118,
        "channel": 1,
        "controllerType": 64,
        "value": 0
      },
      {
        "type": "midi",
        "subType": "controller",
        "typeByte": 177,
        "deltaTime": 0,
        "channel": 1,
        "controllerType": 64,
        "value": 0
      },
      {
        "type": "midi",
        "subType": "noteOff",
        "typeByte": 129,
        "deltaTime": 2,
        "channel": 1,
        "note": 57,
        "velocity": 0
      },
      {
        "type": "midi",
        "subType": "controller",
        "typeByte": 177,
        "deltaTime": 0,
        "channel": 1,
        "controllerType": 64,
        "value": 127
      },
      {
        "type": "midi",
        "subType": "controller",
        "typeByte": 177,
        "deltaTime": 0,
        "channel": 1,
        "controllerType": 64,
        "value": 127
      },
      {
        "type": "midi",
        "subType": "noteOn",
        "typeByte": 145,
        "deltaTime": 0,
        "channel": 1,
        "note": 59,
        "velocity": 62
      },
      {
        "type": "midi",
        "subType": "noteOff",
        "typeByte": 129,
        "deltaTime": 240,
        "channel": 1,
        "note": 59,
        "velocity": 0
      },
      {
        "type": "midi",
        "subType": "noteOn",
        "typeByte": 145,
        "deltaTime": 0,
        "channel": 1,
        "note": 47,
        "velocity": 66
      },
      {
        "type": "midi",
        "subType": "controller",
        "typeByte": 177,
        "deltaTime": 238,
        "channel": 1,
        "controllerType": 64,
        "value": 0
      },
      {
        "type": "midi",
        "subType": "controller",
        "typeByte": 177,
        "deltaTime": 0,
        "channel": 1,
        "controllerType": 64,
        "value": 0
      },
      {
        "type": "midi",
        "subType": "noteOff",
        "typeByte": 129,
        "deltaTime": 2,
        "channel": 1,
        "note": 47,
        "velocity": 0
      },
      {
        "type": "midi",
        "subType": "controller",
        "typeByte": 177,
        "deltaTime": 0,
        "channel": 1,
        "controllerType": 64,
        "value": 127
      },
      {
        "type": "midi",
        "subType": "controller",
        "typeByte": 177,
        "deltaTime": 0,
        "channel": 1,
        "controllerType": 64,
        "value": 127
      },
      {
        "type": "midi",
        "subType": "noteOn",
        "typeByte": 145,
        "deltaTime": 0,
        "channel": 1,
        "note": 52,
        "velocity": 61
      },
      {
        "type": "midi",
        "subType": "noteOff",
        "typeByte": 129,
        "deltaTime": 120,
        "channel": 1,
        "note": 52,
        "velocity": 0
      },
      {
        "type": "midi",
        "subType": "noteOn",
        "typeByte": 145,
        "deltaTime": 0,
        "channel": 1,
        "note": 64,
        "velocity": 51
      },
      {
        "type": "midi",
        "subType": "noteOff",
        "typeByte": 129,
        "deltaTime": 120,
        "channel": 1,
        "note": 64,
        "velocity": 0
      },
      {
        "type": "midi",
        "subType": "noteOn",
        "typeByte": 145,
        "deltaTime": 0,
        "channel": 1,
        "note": 59,
        "velocity": 57
      },
      {
        "type": "midi",
        "subType": "noteOff",
        "typeByte": 129,
        "deltaTime": 120,
        "channel": 1,
        "note": 59,
        "velocity": 0
      },
      {
        "type": "midi",
        "subType": "noteOn",
        "typeByte": 145,
        "deltaTime": 0,
        "channel": 1,
        "note": 55,
        "velocity": 40
      },
      {
        "type": "midi",
        "subType": "controller",
        "typeByte": 177,
        "deltaTime": 118,
        "channel": 1,
        "controllerType": 64,
        "value": 0
      },
      {
        "type": "midi",
        "subType": "controller",
        "typeByte": 177,
        "deltaTime": 0,
        "channel": 1,
        "controllerType": 64,
        "value": 0
      },
      {
        "type": "midi",
        "subType": "noteOff",
        "typeByte": 129,
        "deltaTime": 2,
        "channel": 1,
        "note": 55,
        "velocity": 0
      },
      {
        "type": "midi",
        "subType": "controller",
        "typeByte": 177,
        "deltaTime": 0,
        "channel": 1,
        "controllerType": 64,
        "value": 127
      },
      {
        "type": "midi",
        "subType": "controller",
        "typeByte": 177,
        "deltaTime": 0,
        "channel": 1,
        "controllerType": 64,
        "value": 127
      },
      {
        "type": "midi",
        "subType": "noteOn",
        "typeByte": 145,
        "deltaTime": 0,
        "channel": 1,
        "note": 52,
        "velocity": 55
      },
      {
        "type": "midi",
        "subType": "noteOff",
        "typeByte": 129,
        "deltaTime": 120,
        "channel": 1,
        "note": 52,
        "velocity": 0
      },
      {
        "type": "midi",
        "subType": "noteOn",
        "typeByte": 145,
        "deltaTime": 0,
        "channel": 1,
        "note": 47,
        "velocity": 73
      },
      {
        "type": "midi",
        "subType": "noteOff",
        "typeByte": 129,
        "deltaTime": 120,
        "channel": 1,
        "note": 47,
        "velocity": 0
      },
      {
        "type": "midi",
        "subType": "noteOn",
        "typeByte": 145,
        "deltaTime": 0,
        "channel": 1,
        "note": 43,
        "velocity": 63
      },
      {
        "type": "midi",
        "subType": "noteOff",
        "typeByte": 129,
        "deltaTime": 120,
        "channel": 1,
        "note": 43,
        "velocity": 0
      },
      {
        "type": "midi",
        "subType": "noteOn",
        "typeByte": 145,
        "deltaTime": 0,
        "channel": 1,
        "note": 47,
        "velocity": 58
      },
      {
        "type": "midi",
        "subType": "controller",
        "typeByte": 177,
        "deltaTime": 118,
        "channel": 1,
        "controllerType": 64,
        "value": 0
      },
      {
        "type": "midi",
        "subType": "controller",
        "typeByte": 177,
        "deltaTime": 0,
        "channel": 1,
        "controllerType": 64,
        "value": 0
      },
      {
        "type": "midi",
        "subType": "noteOff",
        "typeByte": 129,
        "deltaTime": 2,
        "channel": 1,
        "note": 47,
        "velocity": 0
      },
      {
        "type": "midi",
        "subType": "controller",
        "typeByte": 177,
        "deltaTime": 0,
        "channel": 1,
        "controllerType": 64,
        "value": 127
      },
      {
        "type": "midi",
        "subType": "controller",
        "typeByte": 177,
        "deltaTime": 0,
        "channel": 1,
        "controllerType": 64,
        "value": 127
      },
      {
        "type": "midi",
        "subType": "noteOn",
        "typeByte": 145,
        "deltaTime": 0,
        "channel": 1,
        "note": 40,
        "velocity": 70
      },
      {
        "type": "midi",
        "subType": "noteOff",
        "typeByte": 129,
        "deltaTime": 240,
        "channel": 1,
        "note": 40,
        "velocity": 0
      },
      {
        "type": "midi",
        "subType": "noteOn",
        "typeByte": 145,
        "deltaTime": 0,
        "channel": 1,
        "note": 52,
        "velocity": 75
      },
      {
        "type": "midi",
        "subType": "controller",
        "typeByte": 177,
        "deltaTime": 238,
        "channel": 1,
        "controllerType": 64,
        "value": 0
      },
      {
        "type": "midi",
        "subType": "controller",
        "typeByte": 177,
        "deltaTime": 0,
        "channel": 1,
        "controllerType": 64,
        "value": 0
      },
      {
        "type": "midi",
        "subType": "noteOff",
        "typeByte": 129,
        "deltaTime": 2,
        "channel": 1,
        "note": 52,
        "velocity": 0
      },
      {
        "type": "midi",
        "subType": "controller",
        "typeByte": 177,
        "deltaTime": 0,
        "channel": 1,
        "controllerType": 64,
        "value": 127
      },
      {
        "type": "midi",
        "subType": "controller",
        "typeByte": 177,
        "deltaTime": 0,
        "channel": 1,
        "controllerType": 64,
        "value": 127
      },
      {
        "type": "midi",
        "subType": "noteOn",
        "typeByte": 145,
        "deltaTime": 0,
        "channel": 1,
        "note": 55,
        "velocity": 71
      },
      {
        "type": "midi",
        "subType": "noteOff",
        "typeByte": 129,
        "deltaTime": 240,
        "channel": 1,
        "note": 55,
        "velocity": 0
      },
      {
        "type": "midi",
        "subType": "noteOn",
        "typeByte": 145,
        "deltaTime": 0,
        "channel": 1,
        "note": 58,
        "velocity": 65
      },
      {
        "type": "midi",
        "subType": "controller",
        "typeByte": 177,
        "deltaTime": 238,
        "channel": 1,
        "controllerType": 64,
        "value": 0
      },
      {
        "type": "midi",
        "subType": "controller",
        "typeByte": 177,
        "deltaTime": 0,
        "channel": 1,
        "controllerType": 64,
        "value": 0
      },
      {
        "type": "midi",
        "subType": "noteOff",
        "typeByte": 129,
        "deltaTime": 2,
        "channel": 1,
        "note": 58,
        "velocity": 0
      },
      {
        "type": "midi",
        "subType": "controller",
        "typeByte": 177,
        "deltaTime": 0,
        "channel": 1,
        "controllerType": 64,
        "value": 127
      },
      {
        "type": "midi",
        "subType": "controller",
        "typeByte": 177,
        "deltaTime": 0,
        "channel": 1,
        "controllerType": 64,
        "value": 127
      },
      {
        "type": "midi",
        "subType": "noteOn",
        "typeByte": 145,
        "deltaTime": 0,
        "channel": 1,
        "note": 49,
        "velocity": 85
      },
      {
        "type": "midi",
        "subType": "controller",
        "typeByte": 177,
        "deltaTime": 478,
        "channel": 1,
        "controllerType": 64,
        "value": 0
      },
      {
        "type": "midi",
        "subType": "controller",
        "typeByte": 177,
        "deltaTime": 0,
        "channel": 1,
        "controllerType": 64,
        "value": 0
      },
      {
        "type": "midi",
        "subType": "noteOff",
        "typeByte": 129,
        "deltaTime": 2,
        "channel": 1,
        "note": 49,
        "velocity": 0
      },
      {
        "type": "midi",
        "subType": "controller",
        "typeByte": 177,
        "deltaTime": 0,
        "channel": 1,
        "controllerType": 64,
        "value": 127
      },
      {
        "type": "midi",
        "subType": "controller",
        "typeByte": 177,
        "deltaTime": 0,
        "channel": 1,
        "controllerType": 64,
        "value": 127
      },
      {
        "type": "midi",
        "subType": "noteOn",
        "typeByte": 145,
        "deltaTime": 120,
        "channel": 1,
        "note": 67,
        "velocity": 82
      },
      {
        "type": "midi",
        "subType": "noteOff",
        "typeByte": 129,
        "deltaTime": 120,
        "channel": 1,
        "note": 67,
        "velocity": 0
      },
      {
        "type": "midi",
        "subType": "noteOn",
        "typeByte": 145,
        "deltaTime": 0,
        "channel": 1,
        "note": 65,
        "velocity": 80
      },
      {
        "type": "midi",
        "subType": "noteOff",
        "typeByte": 129,
        "deltaTime": 120,
        "channel": 1,
        "note": 65,
        "velocity": 0
      },
      {
        "type": "midi",
        "subType": "noteOn",
        "typeByte": 145,
        "deltaTime": 0,
        "channel": 1,
        "note": 64,
        "velocity": 80
      },
      {
        "type": "midi",
        "subType": "controller",
        "typeByte": 177,
        "deltaTime": 118,
        "channel": 1,
        "controllerType": 64,
        "value": 0
      },
      {
        "type": "midi",
        "subType": "controller",
        "typeByte": 177,
        "deltaTime": 0,
        "channel": 1,
        "controllerType": 64,
        "value": 0
      },
      {
        "type": "midi",
        "subType": "noteOff",
        "typeByte": 129,
        "deltaTime": 2,
        "channel": 1,
        "note": 64,
        "velocity": 0
      },
      {
        "type": "midi",
        "subType": "controller",
        "typeByte": 177,
        "deltaTime": 0,
        "channel": 1,
        "controllerType": 64,
        "value": 127
      },
      {
        "type": "midi",
        "subType": "controller",
        "typeByte": 177,
        "deltaTime": 0,
        "channel": 1,
        "controllerType": 64,
        "value": 127
      },
      {
        "type": "midi",
        "subType": "noteOn",
        "typeByte": 145,
        "deltaTime": 0,
        "channel": 1,
        "note": 62,
        "velocity": 81
      },
      {
        "type": "midi",
        "subType": "noteOff",
        "typeByte": 129,
        "deltaTime": 240,
        "channel": 1,
        "note": 62,
        "velocity": 0
      },
      {
        "type": "midi",
        "subType": "noteOn",
        "typeByte": 145,
        "deltaTime": 0,
        "channel": 1,
        "note": 50,
        "velocity": 82
      },
      {
        "type": "midi",
        "subType": "controller",
        "typeByte": 177,
        "deltaTime": 238,
        "channel": 1,
        "controllerType": 64,
        "value": 0
      },
      {
        "type": "midi",
        "subType": "controller",
        "typeByte": 177,
        "deltaTime": 0,
        "channel": 1,
        "controllerType": 64,
        "value": 0
      },
      {
        "type": "midi",
        "subType": "noteOff",
        "typeByte": 129,
        "deltaTime": 2,
        "channel": 1,
        "note": 50,
        "velocity": 0
      },
      {
        "type": "midi",
        "subType": "controller",
        "typeByte": 177,
        "deltaTime": 0,
        "channel": 1,
        "controllerType": 64,
        "value": 127
      },
      {
        "type": "midi",
        "subType": "controller",
        "typeByte": 177,
        "deltaTime": 0,
        "channel": 1,
        "controllerType": 64,
        "value": 127
      },
      {
        "type": "midi",
        "subType": "noteOn",
        "typeByte": 145,
        "deltaTime": 0,
        "channel": 1,
        "note": 53,
        "velocity": 75
      },
      {
        "type": "midi",
        "subType": "noteOff",
        "typeByte": 129,
        "deltaTime": 240,
        "channel": 1,
        "note": 53,
        "velocity": 0
      },
      {
        "type": "midi",
        "subType": "noteOn",
        "typeByte": 145,
        "deltaTime": 0,
        "channel": 1,
        "note": 56,
        "velocity": 75
      },
      {
        "type": "midi",
        "subType": "controller",
        "typeByte": 177,
        "deltaTime": 238,
        "channel": 1,
        "controllerType": 64,
        "value": 0
      },
      {
        "type": "midi",
        "subType": "controller",
        "typeByte": 177,
        "deltaTime": 0,
        "channel": 1,
        "controllerType": 64,
        "value": 0
      },
      {
        "type": "midi",
        "subType": "noteOff",
        "typeByte": 129,
        "deltaTime": 2,
        "channel": 1,
        "note": 56,
        "velocity": 0
      },
      {
        "type": "midi",
        "subType": "controller",
        "typeByte": 177,
        "deltaTime": 0,
        "channel": 1,
        "controllerType": 64,
        "value": 127
      },
      {
        "type": "midi",
        "subType": "controller",
        "typeByte": 177,
        "deltaTime": 0,
        "channel": 1,
        "controllerType": 64,
        "value": 127
      },
      {
        "type": "midi",
        "subType": "noteOn",
        "typeByte": 145,
        "deltaTime": 0,
        "channel": 1,
        "note": 47,
        "velocity": 85
      },
      {
        "type": "midi",
        "subType": "controller",
        "typeByte": 177,
        "deltaTime": 478,
        "channel": 1,
        "controllerType": 64,
        "value": 0
      },
      {
        "type": "midi",
        "subType": "controller",
        "typeByte": 177,
        "deltaTime": 0,
        "channel": 1,
        "controllerType": 64,
        "value": 0
      },
      {
        "type": "midi",
        "subType": "noteOff",
        "typeByte": 129,
        "deltaTime": 2,
        "channel": 1,
        "note": 47,
        "velocity": 0
      },
      {
        "type": "midi",
        "subType": "controller",
        "typeByte": 177,
        "deltaTime": 0,
        "channel": 1,
        "controllerType": 64,
        "value": 127
      },
      {
        "type": "midi",
        "subType": "controller",
        "typeByte": 177,
        "deltaTime": 0,
        "channel": 1,
        "controllerType": 64,
        "value": 127
      },
      {
        "type": "midi",
        "subType": "noteOn",
        "typeByte": 145,
        "deltaTime": 120,
        "channel": 1,
        "note": 65,
        "velocity": 79
      },
      {
        "type": "midi",
        "subType": "noteOff",
        "typeByte": 129,
        "deltaTime": 120,
        "channel": 1,
        "note": 65,
        "velocity": 0
      },
      {
        "type": "midi",
        "subType": "noteOn",
        "typeByte": 145,
        "deltaTime": 0,
        "channel": 1,
        "note": 64,
        "velocity": 61
      },
      {
        "type": "midi",
        "subType": "noteOff",
        "typeByte": 129,
        "deltaTime": 120,
        "channel": 1,
        "note": 64,
        "velocity": 0
      },
      {
        "type": "midi",
        "subType": "noteOn",
        "typeByte": 145,
        "deltaTime": 0,
        "channel": 1,
        "note": 62,
        "velocity": 59
      },
      {
        "type": "midi",
        "subType": "controller",
        "typeByte": 177,
        "deltaTime": 118,
        "channel": 1,
        "controllerType": 64,
        "value": 0
      },
      {
        "type": "midi",
        "subType": "controller",
        "typeByte": 177,
        "deltaTime": 0,
        "channel": 1,
        "controllerType": 64,
        "value": 0
      },
      {
        "type": "midi",
        "subType": "noteOff",
        "typeByte": 129,
        "deltaTime": 2,
        "channel": 1,
        "note": 62,
        "velocity": 0
      },
      {
        "type": "midi",
        "subType": "controller",
        "typeByte": 177,
        "deltaTime": 0,
        "channel": 1,
        "controllerType": 64,
        "value": 127
      },
      {
        "type": "midi",
        "subType": "controller",
        "typeByte": 177,
        "deltaTime": 0,
        "channel": 1,
        "controllerType": 64,
        "value": 127
      },
      {
        "type": "midi",
        "subType": "noteOn",
        "typeByte": 145,
        "deltaTime": 0,
        "channel": 1,
        "note": 60,
        "velocity": 76
      },
      {
        "type": "midi",
        "subType": "noteOff",
        "typeByte": 129,
        "deltaTime": 240,
        "channel": 1,
        "note": 60,
        "velocity": 0
      },
      {
        "type": "midi",
        "subType": "noteOn",
        "typeByte": 145,
        "deltaTime": 0,
        "channel": 1,
        "note": 48,
        "velocity": 71
      },
      {
        "type": "midi",
        "subType": "controller",
        "typeByte": 177,
        "deltaTime": 238,
        "channel": 1,
        "controllerType": 64,
        "value": 0
      },
      {
        "type": "midi",
        "subType": "controller",
        "typeByte": 177,
        "deltaTime": 0,
        "channel": 1,
        "controllerType": 64,
        "value": 0
      },
      {
        "type": "midi",
        "subType": "noteOff",
        "typeByte": 129,
        "deltaTime": 2,
        "channel": 1,
        "note": 48,
        "velocity": 0
      },
      {
        "type": "midi",
        "subType": "controller",
        "typeByte": 177,
        "deltaTime": 0,
        "channel": 1,
        "controllerType": 64,
        "value": 127
      },
      {
        "type": "midi",
        "subType": "controller",
        "typeByte": 177,
        "deltaTime": 0,
        "channel": 1,
        "controllerType": 64,
        "value": 127
      },
      {
        "type": "midi",
        "subType": "noteOn",
        "typeByte": 145,
        "deltaTime": 0,
        "channel": 1,
        "note": 52,
        "velocity": 83
      },
      {
        "type": "midi",
        "subType": "noteOff",
        "typeByte": 129,
        "deltaTime": 240,
        "channel": 1,
        "note": 52,
        "velocity": 0
      },
      {
        "type": "midi",
        "subType": "noteOn",
        "typeByte": 145,
        "deltaTime": 0,
        "channel": 1,
        "note": 54,
        "velocity": 68
      },
      {
        "type": "midi",
        "subType": "controller",
        "typeByte": 177,
        "deltaTime": 238,
        "channel": 1,
        "controllerType": 64,
        "value": 0
      },
      {
        "type": "midi",
        "subType": "controller",
        "typeByte": 177,
        "deltaTime": 0,
        "channel": 1,
        "controllerType": 64,
        "value": 0
      },
      {
        "type": "midi",
        "subType": "noteOff",
        "typeByte": 129,
        "deltaTime": 2,
        "channel": 1,
        "note": 54,
        "velocity": 0
      },
      {
        "type": "midi",
        "subType": "controller",
        "typeByte": 177,
        "deltaTime": 0,
        "channel": 1,
        "controllerType": 64,
        "value": 127
      },
      {
        "type": "midi",
        "subType": "controller",
        "typeByte": 177,
        "deltaTime": 0,
        "channel": 1,
        "controllerType": 64,
        "value": 127
      },
      {
        "type": "midi",
        "subType": "noteOn",
        "typeByte": 145,
        "deltaTime": 0,
        "channel": 1,
        "note": 45,
        "velocity": 87
      },
      {
        "type": "midi",
        "subType": "controller",
        "typeByte": 177,
        "deltaTime": 478,
        "channel": 1,
        "controllerType": 64,
        "value": 0
      },
      {
        "type": "midi",
        "subType": "controller",
        "typeByte": 177,
        "deltaTime": 0,
        "channel": 1,
        "controllerType": 64,
        "value": 0
      },
      {
        "type": "midi",
        "subType": "noteOff",
        "typeByte": 129,
        "deltaTime": 2,
        "channel": 1,
        "note": 45,
        "velocity": 0
      },
      {
        "type": "midi",
        "subType": "controller",
        "typeByte": 177,
        "deltaTime": 0,
        "channel": 1,
        "controllerType": 64,
        "value": 127
      },
      {
        "type": "midi",
        "subType": "controller",
        "typeByte": 177,
        "deltaTime": 0,
        "channel": 1,
        "controllerType": 64,
        "value": 127
      },
      {
        "type": "midi",
        "subType": "noteOn",
        "typeByte": 145,
        "deltaTime": 120,
        "channel": 1,
        "note": 64,
        "velocity": 68
      },
      {
        "type": "midi",
        "subType": "noteOff",
        "typeByte": 129,
        "deltaTime": 120,
        "channel": 1,
        "note": 64,
        "velocity": 0
      },
      {
        "type": "midi",
        "subType": "noteOn",
        "typeByte": 145,
        "deltaTime": 0,
        "channel": 1,
        "note": 63,
        "velocity": 58
      },
      {
        "type": "midi",
        "subType": "noteOff",
        "typeByte": 129,
        "deltaTime": 120,
        "channel": 1,
        "note": 63,
        "velocity": 0
      },
      {
        "type": "midi",
        "subType": "noteOn",
        "typeByte": 145,
        "deltaTime": 0,
        "channel": 1,
        "note": 61,
        "velocity": 58
      },
      {
        "type": "midi",
        "subType": "controller",
        "typeByte": 177,
        "deltaTime": 118,
        "channel": 1,
        "controllerType": 64,
        "value": 0
      },
      {
        "type": "midi",
        "subType": "controller",
        "typeByte": 177,
        "deltaTime": 0,
        "channel": 1,
        "controllerType": 64,
        "value": 0
      },
      {
        "type": "midi",
        "subType": "noteOff",
        "typeByte": 129,
        "deltaTime": 2,
        "channel": 1,
        "note": 61,
        "velocity": 0
      },
      {
        "type": "midi",
        "subType": "controller",
        "typeByte": 177,
        "deltaTime": 0,
        "channel": 1,
        "controllerType": 64,
        "value": 127
      },
      {
        "type": "midi",
        "subType": "controller",
        "typeByte": 177,
        "deltaTime": 0,
        "channel": 1,
        "controllerType": 64,
        "value": 127
      },
      {
        "type": "midi",
        "subType": "noteOn",
        "typeByte": 145,
        "deltaTime": 0,
        "channel": 1,
        "note": 59,
        "velocity": 86
      },
      {
        "type": "midi",
        "subType": "noteOff",
        "typeByte": 129,
        "deltaTime": 240,
        "channel": 1,
        "note": 59,
        "velocity": 0
      },
      {
        "type": "midi",
        "subType": "noteOn",
        "typeByte": 145,
        "deltaTime": 0,
        "channel": 1,
        "note": 47,
        "velocity": 81
      },
      {
        "type": "midi",
        "subType": "controller",
        "typeByte": 177,
        "deltaTime": 238,
        "channel": 1,
        "controllerType": 64,
        "value": 0
      },
      {
        "type": "midi",
        "subType": "controller",
        "typeByte": 177,
        "deltaTime": 0,
        "channel": 1,
        "controllerType": 64,
        "value": 0
      },
      {
        "type": "midi",
        "subType": "noteOff",
        "typeByte": 129,
        "deltaTime": 2,
        "channel": 1,
        "note": 47,
        "velocity": 0
      },
      {
        "type": "midi",
        "subType": "controller",
        "typeByte": 177,
        "deltaTime": 0,
        "channel": 1,
        "controllerType": 64,
        "value": 127
      },
      {
        "type": "midi",
        "subType": "controller",
        "typeByte": 177,
        "deltaTime": 0,
        "channel": 1,
        "controllerType": 64,
        "value": 127
      },
      {
        "type": "midi",
        "subType": "noteOn",
        "typeByte": 145,
        "deltaTime": 0,
        "channel": 1,
        "note": 50,
        "velocity": 80
      },
      {
        "type": "midi",
        "subType": "noteOff",
        "typeByte": 129,
        "deltaTime": 240,
        "channel": 1,
        "note": 50,
        "velocity": 0
      },
      {
        "type": "midi",
        "subType": "noteOn",
        "typeByte": 145,
        "deltaTime": 0,
        "channel": 1,
        "note": 53,
        "velocity": 64
      },
      {
        "type": "midi",
        "subType": "controller",
        "typeByte": 177,
        "deltaTime": 238,
        "channel": 1,
        "controllerType": 64,
        "value": 0
      },
      {
        "type": "midi",
        "subType": "controller",
        "typeByte": 177,
        "deltaTime": 0,
        "channel": 1,
        "controllerType": 64,
        "value": 0
      },
      {
        "type": "midi",
        "subType": "noteOff",
        "typeByte": 129,
        "deltaTime": 2,
        "channel": 1,
        "note": 53,
        "velocity": 0
      },
      {
        "type": "midi",
        "subType": "controller",
        "typeByte": 177,
        "deltaTime": 0,
        "channel": 1,
        "controllerType": 64,
        "value": 127
      },
      {
        "type": "midi",
        "subType": "controller",
        "typeByte": 177,
        "deltaTime": 0,
        "channel": 1,
        "controllerType": 64,
        "value": 127
      },
      {
        "type": "midi",
        "subType": "noteOn",
        "typeByte": 145,
        "deltaTime": 0,
        "channel": 1,
        "note": 44,
        "velocity": 85
      },
      {
        "type": "midi",
        "subType": "controller",
        "typeByte": 177,
        "deltaTime": 478,
        "channel": 1,
        "controllerType": 64,
        "value": 0
      },
      {
        "type": "midi",
        "subType": "controller",
        "typeByte": 177,
        "deltaTime": 0,
        "channel": 1,
        "controllerType": 64,
        "value": 0
      },
      {
        "type": "midi",
        "subType": "noteOff",
        "typeByte": 129,
        "deltaTime": 2,
        "channel": 1,
        "note": 44,
        "velocity": 0
      },
      {
        "type": "midi",
        "subType": "controller",
        "typeByte": 177,
        "deltaTime": 0,
        "channel": 1,
        "controllerType": 64,
        "value": 127
      },
      {
        "type": "midi",
        "subType": "controller",
        "typeByte": 177,
        "deltaTime": 0,
        "channel": 1,
        "controllerType": 64,
        "value": 127
      },
      {
        "type": "midi",
        "subType": "noteOn",
        "typeByte": 145,
        "deltaTime": 120,
        "channel": 1,
        "note": 62,
        "velocity": 66
      },
      {
        "type": "midi",
        "subType": "noteOff",
        "typeByte": 129,
        "deltaTime": 120,
        "channel": 1,
        "note": 62,
        "velocity": 0
      },
      {
        "type": "midi",
        "subType": "noteOn",
        "typeByte": 145,
        "deltaTime": 0,
        "channel": 1,
        "note": 60,
        "velocity": 55
      },
      {
        "type": "midi",
        "subType": "noteOff",
        "typeByte": 129,
        "deltaTime": 120,
        "channel": 1,
        "note": 60,
        "velocity": 0
      },
      {
        "type": "midi",
        "subType": "noteOn",
        "typeByte": 145,
        "deltaTime": 0,
        "channel": 1,
        "note": 59,
        "velocity": 47
      },
      {
        "type": "midi",
        "subType": "controller",
        "typeByte": 177,
        "deltaTime": 118,
        "channel": 1,
        "controllerType": 64,
        "value": 0
      },
      {
        "type": "midi",
        "subType": "controller",
        "typeByte": 177,
        "deltaTime": 0,
        "channel": 1,
        "controllerType": 64,
        "value": 0
      },
      {
        "type": "midi",
        "subType": "noteOff",
        "typeByte": 129,
        "deltaTime": 2,
        "channel": 1,
        "note": 59,
        "velocity": 0
      },
      {
        "type": "midi",
        "subType": "controller",
        "typeByte": 177,
        "deltaTime": 0,
        "channel": 1,
        "controllerType": 64,
        "value": 127
      },
      {
        "type": "midi",
        "subType": "controller",
        "typeByte": 177,
        "deltaTime": 0,
        "channel": 1,
        "controllerType": 64,
        "value": 127
      },
      {
        "type": "midi",
        "subType": "noteOn",
        "typeByte": 145,
        "deltaTime": 0,
        "channel": 1,
        "note": 60,
        "velocity": 73
      },
      {
        "type": "midi",
        "subType": "noteOff",
        "typeByte": 129,
        "deltaTime": 240,
        "channel": 1,
        "note": 60,
        "velocity": 0
      },
      {
        "type": "midi",
        "subType": "noteOn",
        "typeByte": 145,
        "deltaTime": 0,
        "channel": 1,
        "note": 57,
        "velocity": 59
      },
      {
        "type": "midi",
        "subType": "controller",
        "typeByte": 177,
        "deltaTime": 238,
        "channel": 1,
        "controllerType": 64,
        "value": 0
      },
      {
        "type": "midi",
        "subType": "controller",
        "typeByte": 177,
        "deltaTime": 0,
        "channel": 1,
        "controllerType": 64,
        "value": 0
      },
      {
        "type": "midi",
        "subType": "noteOff",
        "typeByte": 129,
        "deltaTime": 2,
        "channel": 1,
        "note": 57,
        "velocity": 0
      },
      {
        "type": "midi",
        "subType": "controller",
        "typeByte": 177,
        "deltaTime": 0,
        "channel": 1,
        "controllerType": 64,
        "value": 127
      },
      {
        "type": "midi",
        "subType": "controller",
        "typeByte": 177,
        "deltaTime": 0,
        "channel": 1,
        "controllerType": 64,
        "value": 127
      },
      {
        "type": "midi",
        "subType": "noteOn",
        "typeByte": 145,
        "deltaTime": 0,
        "channel": 1,
        "note": 56,
        "velocity": 55
      },
      {
        "type": "midi",
        "subType": "noteOff",
        "typeByte": 129,
        "deltaTime": 240,
        "channel": 1,
        "note": 56,
        "velocity": 0
      },
      {
        "type": "midi",
        "subType": "noteOn",
        "typeByte": 145,
        "deltaTime": 0,
        "channel": 1,
        "note": 52,
        "velocity": 61
      },
      {
        "type": "midi",
        "subType": "controller",
        "typeByte": 177,
        "deltaTime": 238,
        "channel": 1,
        "controllerType": 64,
        "value": 0
      },
      {
        "type": "midi",
        "subType": "controller",
        "typeByte": 177,
        "deltaTime": 0,
        "channel": 1,
        "controllerType": 64,
        "value": 0
      },
      {
        "type": "midi",
        "subType": "noteOff",
        "typeByte": 129,
        "deltaTime": 2,
        "channel": 1,
        "note": 52,
        "velocity": 0
      },
      {
        "type": "midi",
        "subType": "controller",
        "typeByte": 177,
        "deltaTime": 0,
        "channel": 1,
        "controllerType": 64,
        "value": 127
      },
      {
        "type": "midi",
        "subType": "controller",
        "typeByte": 177,
        "deltaTime": 0,
        "channel": 1,
        "controllerType": 64,
        "value": 127
      },
      {
        "type": "midi",
        "subType": "noteOn",
        "typeByte": 145,
        "deltaTime": 0,
        "channel": 1,
        "note": 57,
        "velocity": 50
      },
      {
        "type": "midi",
        "subType": "noteOff",
        "typeByte": 129,
        "deltaTime": 120,
        "channel": 1,
        "note": 57,
        "velocity": 0
      },
      {
        "type": "midi",
        "subType": "noteOn",
        "typeByte": 145,
        "deltaTime": 0,
        "channel": 1,
        "note": 52,
        "velocity": 51
      },
      {
        "type": "midi",
        "subType": "noteOff",
        "typeByte": 129,
        "deltaTime": 120,
        "channel": 1,
        "note": 52,
        "velocity": 0
      },
      {
        "type": "midi",
        "subType": "noteOn",
        "typeByte": 145,
        "deltaTime": 0,
        "channel": 1,
        "note": 57,
        "velocity": 46
      },
      {
        "type": "midi",
        "subType": "noteOff",
        "typeByte": 129,
        "deltaTime": 120,
        "channel": 1,
        "note": 57,
        "velocity": 0
      },
      {
        "type": "midi",
        "subType": "noteOn",
        "typeByte": 145,
        "deltaTime": 0,
        "channel": 1,
        "note": 60,
        "velocity": 49
      },
      {
        "type": "midi",
        "subType": "controller",
        "typeByte": 177,
        "deltaTime": 118,
        "channel": 1,
        "controllerType": 64,
        "value": 0
      },
      {
        "type": "midi",
        "subType": "controller",
        "typeByte": 177,
        "deltaTime": 0,
        "channel": 1,
        "controllerType": 64,
        "value": 0
      },
      {
        "type": "midi",
        "subType": "noteOff",
        "typeByte": 129,
        "deltaTime": 2,
        "channel": 1,
        "note": 60,
        "velocity": 0
      },
      {
        "type": "midi",
        "subType": "controller",
        "typeByte": 177,
        "deltaTime": 0,
        "channel": 1,
        "controllerType": 64,
        "value": 127
      },
      {
        "type": "midi",
        "subType": "controller",
        "typeByte": 177,
        "deltaTime": 0,
        "channel": 1,
        "controllerType": 64,
        "value": 127
      },
      {
        "type": "midi",
        "subType": "noteOn",
        "typeByte": 145,
        "deltaTime": 0,
        "channel": 1,
        "note": 59,
        "velocity": 75
      },
      {
        "type": "midi",
        "subType": "noteOff",
        "typeByte": 129,
        "deltaTime": 120,
        "channel": 1,
        "note": 59,
        "velocity": 0
      },
      {
        "type": "midi",
        "subType": "noteOn",
        "typeByte": 145,
        "deltaTime": 0,
        "channel": 1,
        "note": 52,
        "velocity": 57
      },
      {
        "type": "midi",
        "subType": "noteOff",
        "typeByte": 129,
        "deltaTime": 120,
        "channel": 1,
        "note": 52,
        "velocity": 0
      },
      {
        "type": "midi",
        "subType": "noteOn",
        "typeByte": 145,
        "deltaTime": 0,
        "channel": 1,
        "note": 59,
        "velocity": 46
      },
      {
        "type": "midi",
        "subType": "noteOff",
        "typeByte": 129,
        "deltaTime": 120,
        "channel": 1,
        "note": 59,
        "velocity": 0
      },
      {
        "type": "midi",
        "subType": "noteOn",
        "typeByte": 145,
        "deltaTime": 0,
        "channel": 1,
        "note": 62,
        "velocity": 54
      },
      {
        "type": "midi",
        "subType": "controller",
        "typeByte": 177,
        "deltaTime": 118,
        "channel": 1,
        "controllerType": 64,
        "value": 0
      },
      {
        "type": "midi",
        "subType": "controller",
        "typeByte": 177,
        "deltaTime": 0,
        "channel": 1,
        "controllerType": 64,
        "value": 0
      },
      {
        "type": "midi",
        "subType": "noteOff",
        "typeByte": 129,
        "deltaTime": 2,
        "channel": 1,
        "note": 62,
        "velocity": 0
      },
      {
        "type": "midi",
        "subType": "controller",
        "typeByte": 177,
        "deltaTime": 0,
        "channel": 1,
        "controllerType": 64,
        "value": 127
      },
      {
        "type": "midi",
        "subType": "controller",
        "typeByte": 177,
        "deltaTime": 0,
        "channel": 1,
        "controllerType": 64,
        "value": 127
      },
      {
        "type": "midi",
        "subType": "noteOn",
        "typeByte": 145,
        "deltaTime": 0,
        "channel": 1,
        "note": 60,
        "velocity": 59
      },
      {
        "type": "midi",
        "subType": "noteOff",
        "typeByte": 129,
        "deltaTime": 120,
        "channel": 1,
        "note": 60,
        "velocity": 0
      },
      {
        "type": "midi",
        "subType": "noteOn",
        "typeByte": 145,
        "deltaTime": 0,
        "channel": 1,
        "note": 64,
        "velocity": 50
      },
      {
        "type": "midi",
        "subType": "noteOff",
        "typeByte": 129,
        "deltaTime": 120,
        "channel": 1,
        "note": 64,
        "velocity": 0
      },
      {
        "type": "midi",
        "subType": "noteOn",
        "typeByte": 145,
        "deltaTime": 0,
        "channel": 1,
        "note": 69,
        "velocity": 55
      },
      {
        "type": "midi",
        "subType": "noteOff",
        "typeByte": 129,
        "deltaTime": 120,
        "channel": 1,
        "note": 69,
        "velocity": 0
      },
      {
        "type": "midi",
        "subType": "noteOn",
        "typeByte": 145,
        "deltaTime": 0,
        "channel": 1,
        "note": 64,
        "velocity": 59
      },
      {
        "type": "midi",
        "subType": "controller",
        "typeByte": 177,
        "deltaTime": 118,
        "channel": 1,
        "controllerType": 64,
        "value": 0
      },
      {
        "type": "midi",
        "subType": "controller",
        "typeByte": 177,
        "deltaTime": 0,
        "channel": 1,
        "controllerType": 64,
        "value": 0
      },
      {
        "type": "midi",
        "subType": "noteOff",
        "typeByte": 129,
        "deltaTime": 2,
        "channel": 1,
        "note": 64,
        "velocity": 0
      },
      {
        "type": "midi",
        "subType": "controller",
        "typeByte": 177,
        "deltaTime": 0,
        "channel": 1,
        "controllerType": 64,
        "value": 127
      },
      {
        "type": "midi",
        "subType": "controller",
        "typeByte": 177,
        "deltaTime": 0,
        "channel": 1,
        "controllerType": 64,
        "value": 127
      },
      {
        "type": "midi",
        "subType": "noteOn",
        "typeByte": 145,
        "deltaTime": 0,
        "channel": 1,
        "note": 60,
        "velocity": 66
      },
      {
        "type": "midi",
        "subType": "noteOff",
        "typeByte": 129,
        "deltaTime": 120,
        "channel": 1,
        "note": 60,
        "velocity": 0
      },
      {
        "type": "midi",
        "subType": "noteOn",
        "typeByte": 145,
        "deltaTime": 0,
        "channel": 1,
        "note": 64,
        "velocity": 59
      },
      {
        "type": "midi",
        "subType": "noteOff",
        "typeByte": 129,
        "deltaTime": 120,
        "channel": 1,
        "note": 64,
        "velocity": 0
      },
      {
        "type": "midi",
        "subType": "noteOn",
        "typeByte": 145,
        "deltaTime": 0,
        "channel": 1,
        "note": 57,
        "velocity": 73
      },
      {
        "type": "midi",
        "subType": "noteOff",
        "typeByte": 129,
        "deltaTime": 120,
        "channel": 1,
        "note": 57,
        "velocity": 0
      },
      {
        "type": "midi",
        "subType": "noteOn",
        "typeByte": 145,
        "deltaTime": 0,
        "channel": 1,
        "note": 60,
        "velocity": 48
      },
      {
        "type": "midi",
        "subType": "controller",
        "typeByte": 177,
        "deltaTime": 118,
        "channel": 1,
        "controllerType": 64,
        "value": 0
      },
      {
        "type": "midi",
        "subType": "controller",
        "typeByte": 177,
        "deltaTime": 0,
        "channel": 1,
        "controllerType": 64,
        "value": 0
      },
      {
        "type": "midi",
        "subType": "noteOff",
        "typeByte": 129,
        "deltaTime": 2,
        "channel": 1,
        "note": 60,
        "velocity": 0
      },
      {
        "type": "midi",
        "subType": "controller",
        "typeByte": 177,
        "deltaTime": 0,
        "channel": 1,
        "controllerType": 64,
        "value": 127
      },
      {
        "type": "midi",
        "subType": "controller",
        "typeByte": 177,
        "deltaTime": 0,
        "channel": 1,
        "controllerType": 64,
        "value": 127
      },
      {
        "type": "midi",
        "subType": "noteOn",
        "typeByte": 145,
        "deltaTime": 0,
        "channel": 1,
        "note": 54,
        "velocity": 62
      },
      {
        "type": "midi",
        "subType": "noteOff",
        "typeByte": 129,
        "deltaTime": 120,
        "channel": 1,
        "note": 54,
        "velocity": 0
      },
      {
        "type": "midi",
        "subType": "noteOn",
        "typeByte": 145,
        "deltaTime": 0,
        "channel": 1,
        "note": 57,
        "velocity": 49
      },
      {
        "type": "midi",
        "subType": "noteOff",
        "typeByte": 129,
        "deltaTime": 120,
        "channel": 1,
        "note": 57,
        "velocity": 0
      },
      {
        "type": "midi",
        "subType": "noteOn",
        "typeByte": 145,
        "deltaTime": 0,
        "channel": 1,
        "note": 60,
        "velocity": 50
      },
      {
        "type": "midi",
        "subType": "noteOff",
        "typeByte": 129,
        "deltaTime": 120,
        "channel": 1,
        "note": 60,
        "velocity": 0
      },
      {
        "type": "midi",
        "subType": "noteOn",
        "typeByte": 145,
        "deltaTime": 0,
        "channel": 1,
        "note": 57,
        "velocity": 43
      },
      {
        "type": "midi",
        "subType": "controller",
        "typeByte": 177,
        "deltaTime": 118,
        "channel": 1,
        "controllerType": 64,
        "value": 0
      },
      {
        "type": "midi",
        "subType": "controller",
        "typeByte": 177,
        "deltaTime": 0,
        "channel": 1,
        "controllerType": 64,
        "value": 0
      },
      {
        "type": "midi",
        "subType": "noteOff",
        "typeByte": 129,
        "deltaTime": 2,
        "channel": 1,
        "note": 57,
        "velocity": 0
      },
      {
        "type": "midi",
        "subType": "controller",
        "typeByte": 177,
        "deltaTime": 0,
        "channel": 1,
        "controllerType": 64,
        "value": 127
      },
      {
        "type": "midi",
        "subType": "controller",
        "typeByte": 177,
        "deltaTime": 0,
        "channel": 1,
        "controllerType": 64,
        "value": 127
      },
      {
        "type": "midi",
        "subType": "noteOn",
        "typeByte": 145,
        "deltaTime": 0,
        "channel": 1,
        "note": 54,
        "velocity": 68
      },
      {
        "type": "midi",
        "subType": "noteOff",
        "typeByte": 129,
        "deltaTime": 120,
        "channel": 1,
        "note": 54,
        "velocity": 0
      },
      {
        "type": "midi",
        "subType": "noteOn",
        "typeByte": 145,
        "deltaTime": 0,
        "channel": 1,
        "note": 57,
        "velocity": 61
      },
      {
        "type": "midi",
        "subType": "noteOff",
        "typeByte": 129,
        "deltaTime": 120,
        "channel": 1,
        "note": 57,
        "velocity": 0
      },
      {
        "type": "midi",
        "subType": "noteOn",
        "typeByte": 145,
        "deltaTime": 0,
        "channel": 1,
        "note": 51,
        "velocity": 67
      },
      {
        "type": "midi",
        "subType": "noteOff",
        "typeByte": 129,
        "deltaTime": 120,
        "channel": 1,
        "note": 51,
        "velocity": 0
      },
      {
        "type": "midi",
        "subType": "noteOn",
        "typeByte": 145,
        "deltaTime": 0,
        "channel": 1,
        "note": 54,
        "velocity": 63
      },
      {
        "type": "midi",
        "subType": "controller",
        "typeByte": 177,
        "deltaTime": 118,
        "channel": 1,
        "controllerType": 64,
        "value": 0
      },
      {
        "type": "midi",
        "subType": "controller",
        "typeByte": 177,
        "deltaTime": 0,
        "channel": 1,
        "controllerType": 64,
        "value": 0
      },
      {
        "type": "midi",
        "subType": "noteOff",
        "typeByte": 129,
        "deltaTime": 2,
        "channel": 1,
        "note": 54,
        "velocity": 0
      },
      {
        "type": "midi",
        "subType": "controller",
        "typeByte": 177,
        "deltaTime": 0,
        "channel": 1,
        "controllerType": 64,
        "value": 127
      },
      {
        "type": "midi",
        "subType": "controller",
        "typeByte": 177,
        "deltaTime": 0,
        "channel": 1,
        "controllerType": 64,
        "value": 127
      },
      {
        "type": "midi",
        "subType": "noteOn",
        "typeByte": 145,
        "deltaTime": 0,
        "channel": 1,
        "note": 52,
        "velocity": 62
      },
      {
        "type": "midi",
        "subType": "noteOff",
        "typeByte": 129,
        "deltaTime": 240,
        "channel": 1,
        "note": 52,
        "velocity": 0
      },
      {
        "type": "midi",
        "subType": "noteOn",
        "typeByte": 145,
        "deltaTime": 0,
        "channel": 1,
        "note": 56,
        "velocity": 54
      },
      {
        "type": "midi",
        "subType": "controller",
        "typeByte": 177,
        "deltaTime": 238,
        "channel": 1,
        "controllerType": 64,
        "value": 0
      },
      {
        "type": "midi",
        "subType": "controller",
        "typeByte": 177,
        "deltaTime": 0,
        "channel": 1,
        "controllerType": 64,
        "value": 0
      },
      {
        "type": "midi",
        "subType": "noteOff",
        "typeByte": 129,
        "deltaTime": 2,
        "channel": 1,
        "note": 56,
        "velocity": 0
      },
      {
        "type": "midi",
        "subType": "controller",
        "typeByte": 177,
        "deltaTime": 0,
        "channel": 1,
        "controllerType": 64,
        "value": 127
      },
      {
        "type": "midi",
        "subType": "controller",
        "typeByte": 177,
        "deltaTime": 0,
        "channel": 1,
        "controllerType": 64,
        "value": 127
      },
      {
        "type": "midi",
        "subType": "noteOn",
        "typeByte": 145,
        "deltaTime": 0,
        "channel": 1,
        "note": 59,
        "velocity": 52
      },
      {
        "type": "midi",
        "subType": "noteOff",
        "typeByte": 129,
        "deltaTime": 240,
        "channel": 1,
        "note": 59,
        "velocity": 0
      },
      {
        "type": "midi",
        "subType": "noteOn",
        "typeByte": 145,
        "deltaTime": 0,
        "channel": 1,
        "note": 56,
        "velocity": 47
      },
      {
        "type": "midi",
        "subType": "controller",
        "typeByte": 177,
        "deltaTime": 238,
        "channel": 1,
        "controllerType": 64,
        "value": 0
      },
      {
        "type": "midi",
        "subType": "controller",
        "typeByte": 177,
        "deltaTime": 0,
        "channel": 1,
        "controllerType": 64,
        "value": 0
      },
      {
        "type": "midi",
        "subType": "noteOff",
        "typeByte": 129,
        "deltaTime": 2,
        "channel": 1,
        "note": 56,
        "velocity": 0
      },
      {
        "type": "midi",
        "subType": "controller",
        "typeByte": 177,
        "deltaTime": 0,
        "channel": 1,
        "controllerType": 64,
        "value": 127
      },
      {
        "type": "midi",
        "subType": "controller",
        "typeByte": 177,
        "deltaTime": 0,
        "channel": 1,
        "controllerType": 64,
        "value": 127
      },
      {
        "type": "midi",
        "subType": "noteOn",
        "typeByte": 145,
        "deltaTime": 0,
        "channel": 1,
        "note": 52,
        "velocity": 64
      },
      {
        "type": "midi",
        "subType": "noteOff",
        "typeByte": 129,
        "deltaTime": 240,
        "channel": 1,
        "note": 52,
        "velocity": 0
      },
      {
        "type": "midi",
        "subType": "noteOn",
        "typeByte": 145,
        "deltaTime": 0,
        "channel": 1,
        "note": 47,
        "velocity": 56
      },
      {
        "type": "midi",
        "subType": "controller",
        "typeByte": 177,
        "deltaTime": 238,
        "channel": 1,
        "controllerType": 64,
        "value": 0
      },
      {
        "type": "midi",
        "subType": "controller",
        "typeByte": 177,
        "deltaTime": 0,
        "channel": 1,
        "controllerType": 64,
        "value": 0
      },
      {
        "type": "midi",
        "subType": "noteOff",
        "typeByte": 129,
        "deltaTime": 2,
        "channel": 1,
        "note": 47,
        "velocity": 0
      },
      {
        "type": "midi",
        "subType": "controller",
        "typeByte": 177,
        "deltaTime": 0,
        "channel": 1,
        "controllerType": 64,
        "value": 127
      },
      {
        "type": "midi",
        "subType": "controller",
        "typeByte": 177,
        "deltaTime": 0,
        "channel": 1,
        "controllerType": 64,
        "value": 127
      },
      {
        "type": "midi",
        "subType": "noteOn",
        "typeByte": 145,
        "deltaTime": 0,
        "channel": 1,
        "note": 44,
        "velocity": 66
      },
      {
        "type": "midi",
        "subType": "noteOff",
        "typeByte": 129,
        "deltaTime": 240,
        "channel": 1,
        "note": 44,
        "velocity": 0
      },
      {
        "type": "midi",
        "subType": "noteOn",
        "typeByte": 145,
        "deltaTime": 0,
        "channel": 1,
        "note": 40,
        "velocity": 60
      },
      {
        "type": "midi",
        "subType": "controller",
        "typeByte": 177,
        "deltaTime": 238,
        "channel": 1,
        "controllerType": 64,
        "value": 0
      },
      {
        "type": "midi",
        "subType": "controller",
        "typeByte": 177,
        "deltaTime": 0,
        "channel": 1,
        "controllerType": 64,
        "value": 0
      },
      {
        "type": "midi",
        "subType": "noteOff",
        "typeByte": 129,
        "deltaTime": 2,
        "channel": 1,
        "note": 40,
        "velocity": 0
      },
      {
        "type": "midi",
        "subType": "controller",
        "typeByte": 177,
        "deltaTime": 0,
        "channel": 1,
        "controllerType": 64,
        "value": 127
      },
      {
        "type": "midi",
        "subType": "controller",
        "typeByte": 177,
        "deltaTime": 0,
        "channel": 1,
        "controllerType": 64,
        "value": 127
      },
      {
        "type": "midi",
        "subType": "noteOn",
        "typeByte": 145,
        "deltaTime": 0,
        "channel": 1,
        "note": 45,
        "velocity": 62
      },
      {
        "type": "midi",
        "subType": "noteOff",
        "typeByte": 129,
        "deltaTime": 240,
        "channel": 1,
        "note": 45,
        "velocity": 0
      },
      {
        "type": "midi",
        "subType": "noteOn",
        "typeByte": 145,
        "deltaTime": 0,
        "channel": 1,
        "note": 48,
        "velocity": 52
      },
      {
        "type": "midi",
        "subType": "controller",
        "typeByte": 177,
        "deltaTime": 238,
        "channel": 1,
        "controllerType": 64,
        "value": 0
      },
      {
        "type": "midi",
        "subType": "controller",
        "typeByte": 177,
        "deltaTime": 0,
        "channel": 1,
        "controllerType": 64,
        "value": 0
      },
      {
        "type": "midi",
        "subType": "noteOff",
        "typeByte": 129,
        "deltaTime": 2,
        "channel": 1,
        "note": 48,
        "velocity": 0
      },
      {
        "type": "midi",
        "subType": "controller",
        "typeByte": 177,
        "deltaTime": 0,
        "channel": 1,
        "controllerType": 64,
        "value": 127
      },
      {
        "type": "midi",
        "subType": "controller",
        "typeByte": 177,
        "deltaTime": 0,
        "channel": 1,
        "controllerType": 64,
        "value": 127
      },
      {
        "type": "midi",
        "subType": "noteOn",
        "typeByte": 145,
        "deltaTime": 0,
        "channel": 1,
        "note": 52,
        "velocity": 63
      },
      {
        "type": "midi",
        "subType": "noteOff",
        "typeByte": 129,
        "deltaTime": 240,
        "channel": 1,
        "note": 52,
        "velocity": 0
      },
      {
        "type": "midi",
        "subType": "noteOn",
        "typeByte": 145,
        "deltaTime": 0,
        "channel": 1,
        "note": 48,
        "velocity": 57
      },
      {
        "type": "midi",
        "subType": "controller",
        "typeByte": 177,
        "deltaTime": 238,
        "channel": 1,
        "controllerType": 64,
        "value": 0
      },
      {
        "type": "midi",
        "subType": "controller",
        "typeByte": 177,
        "deltaTime": 0,
        "channel": 1,
        "controllerType": 64,
        "value": 0
      },
      {
        "type": "midi",
        "subType": "noteOff",
        "typeByte": 129,
        "deltaTime": 2,
        "channel": 1,
        "note": 48,
        "velocity": 0
      },
      {
        "type": "midi",
        "subType": "controller",
        "typeByte": 177,
        "deltaTime": 0,
        "channel": 1,
        "controllerType": 64,
        "value": 127
      },
      {
        "type": "midi",
        "subType": "controller",
        "typeByte": 177,
        "deltaTime": 0,
        "channel": 1,
        "controllerType": 64,
        "value": 127
      },
      {
        "type": "midi",
        "subType": "noteOn",
        "typeByte": 145,
        "deltaTime": 0,
        "channel": 1,
        "note": 45,
        "velocity": 64
      },
      {
        "type": "midi",
        "subType": "noteOff",
        "typeByte": 129,
        "deltaTime": 240,
        "channel": 1,
        "note": 45,
        "velocity": 0
      },
      {
        "type": "midi",
        "subType": "noteOn",
        "typeByte": 145,
        "deltaTime": 0,
        "channel": 1,
        "note": 48,
        "velocity": 52
      },
      {
        "type": "midi",
        "subType": "controller",
        "typeByte": 177,
        "deltaTime": 238,
        "channel": 1,
        "controllerType": 64,
        "value": 0
      },
      {
        "type": "midi",
        "subType": "controller",
        "typeByte": 177,
        "deltaTime": 0,
        "channel": 1,
        "controllerType": 64,
        "value": 0
      },
      {
        "type": "midi",
        "subType": "noteOff",
        "typeByte": 129,
        "deltaTime": 2,
        "channel": 1,
        "note": 48,
        "velocity": 0
      },
      {
        "type": "midi",
        "subType": "controller",
        "typeByte": 177,
        "deltaTime": 0,
        "channel": 1,
        "controllerType": 64,
        "value": 127
      },
      {
        "type": "midi",
        "subType": "controller",
        "typeByte": 177,
        "deltaTime": 0,
        "channel": 1,
        "controllerType": 64,
        "value": 127
      },
      {
        "type": "midi",
        "subType": "noteOn",
        "typeByte": 145,
        "deltaTime": 0,
        "channel": 1,
        "note": 39,
        "velocity": 67
      },
      {
        "type": "midi",
        "subType": "controller",
        "typeByte": 177,
        "deltaTime": 478,
        "channel": 1,
        "controllerType": 64,
        "value": 0
      },
      {
        "type": "midi",
        "subType": "controller",
        "typeByte": 177,
        "deltaTime": 0,
        "channel": 1,
        "controllerType": 64,
        "value": 0
      },
      {
        "type": "midi",
        "subType": "noteOff",
        "typeByte": 129,
        "deltaTime": 2,
        "channel": 1,
        "note": 39,
        "velocity": 0
      },
      {
        "type": "midi",
        "subType": "controller",
        "typeByte": 177,
        "deltaTime": 0,
        "channel": 1,
        "controllerType": 64,
        "value": 127
      },
      {
        "type": "midi",
        "subType": "controller",
        "typeByte": 177,
        "deltaTime": 0,
        "channel": 1,
        "controllerType": 64,
        "value": 127
      },
      {
        "type": "midi",
        "subType": "noteOn",
        "typeByte": 145,
        "deltaTime": 120,
        "channel": 1,
        "note": 59,
        "velocity": 53
      },
      {
        "type": "midi",
        "subType": "noteOff",
        "typeByte": 129,
        "deltaTime": 120,
        "channel": 1,
        "note": 59,
        "velocity": 0
      },
      {
        "type": "midi",
        "subType": "noteOn",
        "typeByte": 145,
        "deltaTime": 0,
        "channel": 1,
        "note": 56,
        "velocity": 51
      },
      {
        "type": "midi",
        "subType": "noteOff",
        "typeByte": 129,
        "deltaTime": 120,
        "channel": 1,
        "note": 56,
        "velocity": 0
      },
      {
        "type": "midi",
        "subType": "noteOn",
        "typeByte": 145,
        "deltaTime": 0,
        "channel": 1,
        "note": 52,
        "velocity": 48
      },
      {
        "type": "midi",
        "subType": "controller",
        "typeByte": 177,
        "deltaTime": 118,
        "channel": 1,
        "controllerType": 64,
        "value": 0
      },
      {
        "type": "midi",
        "subType": "controller",
        "typeByte": 177,
        "deltaTime": 0,
        "channel": 1,
        "controllerType": 64,
        "value": 0
      },
      {
        "type": "midi",
        "subType": "noteOff",
        "typeByte": 129,
        "deltaTime": 2,
        "channel": 1,
        "note": 52,
        "velocity": 0
      },
      {
        "type": "midi",
        "subType": "controller",
        "typeByte": 177,
        "deltaTime": 0,
        "channel": 1,
        "controllerType": 64,
        "value": 127
      },
      {
        "type": "midi",
        "subType": "controller",
        "typeByte": 177,
        "deltaTime": 0,
        "channel": 1,
        "controllerType": 64,
        "value": 127
      },
      {
        "type": "midi",
        "subType": "noteOn",
        "typeByte": 145,
        "deltaTime": 0,
        "channel": 1,
        "note": 50,
        "velocity": 74
      },
      {
        "type": "midi",
        "subType": "noteOff",
        "typeByte": 129,
        "deltaTime": 120,
        "channel": 1,
        "note": 50,
        "velocity": 0
      },
      {
        "type": "midi",
        "subType": "noteOn",
        "typeByte": 145,
        "deltaTime": 0,
        "channel": 1,
        "note": 59,
        "velocity": 47
      },
      {
        "type": "midi",
        "subType": "noteOff",
        "typeByte": 129,
        "deltaTime": 120,
        "channel": 1,
        "note": 59,
        "velocity": 0
      },
      {
        "type": "midi",
        "subType": "noteOn",
        "typeByte": 145,
        "deltaTime": 0,
        "channel": 1,
        "note": 56,
        "velocity": 50
      },
      {
        "type": "midi",
        "subType": "noteOff",
        "typeByte": 129,
        "deltaTime": 120,
        "channel": 1,
        "note": 56,
        "velocity": 0
      },
      {
        "type": "midi",
        "subType": "noteOn",
        "typeByte": 145,
        "deltaTime": 0,
        "channel": 1,
        "note": 50,
        "velocity": 61
      },
      {
        "type": "midi",
        "subType": "controller",
        "typeByte": 177,
        "deltaTime": 118,
        "channel": 1,
        "controllerType": 64,
        "value": 0
      },
      {
        "type": "midi",
        "subType": "controller",
        "typeByte": 177,
        "deltaTime": 0,
        "channel": 1,
        "controllerType": 64,
        "value": 0
      },
      {
        "type": "midi",
        "subType": "noteOff",
        "typeByte": 129,
        "deltaTime": 2,
        "channel": 1,
        "note": 50,
        "velocity": 0
      },
      {
        "type": "midi",
        "subType": "controller",
        "typeByte": 177,
        "deltaTime": 0,
        "channel": 1,
        "controllerType": 64,
        "value": 127
      },
      {
        "type": "midi",
        "subType": "controller",
        "typeByte": 177,
        "deltaTime": 0,
        "channel": 1,
        "controllerType": 64,
        "value": 127
      },
      {
        "type": "midi",
        "subType": "noteOn",
        "typeByte": 145,
        "deltaTime": 0,
        "channel": 1,
        "note": 48,
        "velocity": 59
      },
      {
        "type": "midi",
        "subType": "noteOff",
        "typeByte": 129,
        "deltaTime": 240,
        "channel": 1,
        "note": 48,
        "velocity": 0
      },
      {
        "type": "midi",
        "subType": "noteOn",
        "typeByte": 145,
        "deltaTime": 0,
        "channel": 1,
        "note": 52,
        "velocity": 67
      },
      {
        "type": "midi",
        "subType": "controller",
        "typeByte": 177,
        "deltaTime": 238,
        "channel": 1,
        "controllerType": 64,
        "value": 0
      },
      {
        "type": "midi",
        "subType": "controller",
        "typeByte": 177,
        "deltaTime": 0,
        "channel": 1,
        "controllerType": 64,
        "value": 0
      },
      {
        "type": "midi",
        "subType": "noteOff",
        "typeByte": 129,
        "deltaTime": 2,
        "channel": 1,
        "note": 52,
        "velocity": 0
      },
      {
        "type": "midi",
        "subType": "controller",
        "typeByte": 177,
        "deltaTime": 0,
        "channel": 1,
        "controllerType": 64,
        "value": 127
      },
      {
        "type": "midi",
        "subType": "controller",
        "typeByte": 177,
        "deltaTime": 0,
        "channel": 1,
        "controllerType": 64,
        "value": 127
      },
      {
        "type": "midi",
        "subType": "noteOn",
        "typeByte": 145,
        "deltaTime": 0,
        "channel": 1,
        "note": 44,
        "velocity": 58
      },
      {
        "type": "midi",
        "subType": "noteOff",
        "typeByte": 129,
        "deltaTime": 240,
        "channel": 1,
        "note": 44,
        "velocity": 0
      },
      {
        "type": "midi",
        "subType": "noteOn",
        "typeByte": 145,
        "deltaTime": 0,
        "channel": 1,
        "note": 52,
        "velocity": 49
      },
      {
        "type": "midi",
        "subType": "controller",
        "typeByte": 177,
        "deltaTime": 238,
        "channel": 1,
        "controllerType": 64,
        "value": 0
      },
      {
        "type": "midi",
        "subType": "controller",
        "typeByte": 177,
        "deltaTime": 0,
        "channel": 1,
        "controllerType": 64,
        "value": 0
      },
      {
        "type": "midi",
        "subType": "noteOff",
        "typeByte": 129,
        "deltaTime": 2,
        "channel": 1,
        "note": 52,
        "velocity": 0
      },
      {
        "type": "midi",
        "subType": "controller",
        "typeByte": 177,
        "deltaTime": 0,
        "channel": 1,
        "controllerType": 64,
        "value": 127
      },
      {
        "type": "midi",
        "subType": "controller",
        "typeByte": 177,
        "deltaTime": 0,
        "channel": 1,
        "controllerType": 64,
        "value": 127
      },
      {
        "type": "midi",
        "subType": "noteOn",
        "typeByte": 145,
        "deltaTime": 0,
        "channel": 1,
        "note": 45,
        "velocity": 68
      },
      {
        "type": "midi",
        "subType": "noteOff",
        "typeByte": 129,
        "deltaTime": 240,
        "channel": 1,
        "note": 45,
        "velocity": 0
      },
      {
        "type": "midi",
        "subType": "noteOn",
        "typeByte": 145,
        "deltaTime": 0,
        "channel": 1,
        "note": 54,
        "velocity": 68
      },
      {
        "type": "midi",
        "subType": "controller",
        "typeByte": 177,
        "deltaTime": 238,
        "channel": 1,
        "controllerType": 64,
        "value": 0
      },
      {
        "type": "midi",
        "subType": "controller",
        "typeByte": 177,
        "deltaTime": 0,
        "channel": 1,
        "controllerType": 64,
        "value": 0
      },
      {
        "type": "midi",
        "subType": "noteOff",
        "typeByte": 129,
        "deltaTime": 2,
        "channel": 1,
        "note": 54,
        "velocity": 0
      },
      {
        "type": "midi",
        "subType": "controller",
        "typeByte": 177,
        "deltaTime": 0,
        "channel": 1,
        "controllerType": 64,
        "value": 127
      },
      {
        "type": "midi",
        "subType": "controller",
        "typeByte": 177,
        "deltaTime": 0,
        "channel": 1,
        "controllerType": 64,
        "value": 127
      },
      {
        "type": "midi",
        "subType": "noteOn",
        "typeByte": 145,
        "deltaTime": 0,
        "channel": 1,
        "note": 47,
        "velocity": 68
      },
      {
        "type": "midi",
        "subType": "noteOff",
        "typeByte": 129,
        "deltaTime": 240,
        "channel": 1,
        "note": 47,
        "velocity": 0
      },
      {
        "type": "midi",
        "subType": "noteOn",
        "typeByte": 145,
        "deltaTime": 0,
        "channel": 1,
        "note": 56,
        "velocity": 77
      },
      {
        "type": "midi",
        "subType": "controller",
        "typeByte": 177,
        "deltaTime": 238,
        "channel": 1,
        "controllerType": 64,
        "value": 0
      },
      {
        "type": "midi",
        "subType": "controller",
        "typeByte": 177,
        "deltaTime": 0,
        "channel": 1,
        "controllerType": 64,
        "value": 0
      },
      {
        "type": "midi",
        "subType": "noteOff",
        "typeByte": 129,
        "deltaTime": 2,
        "channel": 1,
        "note": 56,
        "velocity": 0
      },
      {
        "type": "midi",
        "subType": "controller",
        "typeByte": 177,
        "deltaTime": 0,
        "channel": 1,
        "controllerType": 64,
        "value": 127
      },
      {
        "type": "midi",
        "subType": "controller",
        "typeByte": 177,
        "deltaTime": 0,
        "channel": 1,
        "controllerType": 64,
        "value": 127
      },
      {
        "type": "midi",
        "subType": "noteOn",
        "typeByte": 145,
        "deltaTime": 0,
        "channel": 1,
        "note": 48,
        "velocity": 72
      },
      {
        "type": "midi",
        "subType": "noteOff",
        "typeByte": 129,
        "deltaTime": 240,
        "channel": 1,
        "note": 48,
        "velocity": 0
      },
      {
        "type": "midi",
        "subType": "noteOn",
        "typeByte": 145,
        "deltaTime": 0,
        "channel": 1,
        "note": 57,
        "velocity": 72
      },
      {
        "type": "midi",
        "subType": "controller",
        "typeByte": 177,
        "deltaTime": 238,
        "channel": 1,
        "controllerType": 64,
        "value": 0
      },
      {
        "type": "midi",
        "subType": "controller",
        "typeByte": 177,
        "deltaTime": 0,
        "channel": 1,
        "controllerType": 64,
        "value": 0
      },
      {
        "type": "midi",
        "subType": "noteOff",
        "typeByte": 129,
        "deltaTime": 2,
        "channel": 1,
        "note": 57,
        "velocity": 0
      },
      {
        "type": "midi",
        "subType": "controller",
        "typeByte": 177,
        "deltaTime": 0,
        "channel": 1,
        "controllerType": 64,
        "value": 127
      },
      {
        "type": "midi",
        "subType": "controller",
        "typeByte": 177,
        "deltaTime": 0,
        "channel": 1,
        "controllerType": 64,
        "value": 127
      },
      {
        "type": "midi",
        "subType": "noteOn",
        "typeByte": 145,
        "deltaTime": 0,
        "channel": 1,
        "note": 50,
        "velocity": 73
      },
      {
        "type": "midi",
        "subType": "noteOff",
        "typeByte": 129,
        "deltaTime": 240,
        "channel": 1,
        "note": 50,
        "velocity": 0
      },
      {
        "type": "midi",
        "subType": "noteOn",
        "typeByte": 145,
        "deltaTime": 0,
        "channel": 1,
        "note": 58,
        "velocity": 87
      },
      {
        "type": "midi",
        "subType": "controller",
        "typeByte": 177,
        "deltaTime": 238,
        "channel": 1,
        "controllerType": 64,
        "value": 0
      },
      {
        "type": "midi",
        "subType": "controller",
        "typeByte": 177,
        "deltaTime": 0,
        "channel": 1,
        "controllerType": 64,
        "value": 0
      },
      {
        "type": "midi",
        "subType": "noteOff",
        "typeByte": 129,
        "deltaTime": 2,
        "channel": 1,
        "note": 58,
        "velocity": 0
      },
      {
        "type": "midi",
        "subType": "controller",
        "typeByte": 177,
        "deltaTime": 0,
        "channel": 1,
        "controllerType": 64,
        "value": 127
      },
      {
        "type": "midi",
        "subType": "controller",
        "typeByte": 177,
        "deltaTime": 0,
        "channel": 1,
        "controllerType": 64,
        "value": 127
      },
      {
        "type": "midi",
        "subType": "noteOn",
        "typeByte": 145,
        "deltaTime": 0,
        "channel": 1,
        "note": 56,
        "velocity": 62
      },
      {
        "type": "midi",
        "subType": "noteOff",
        "typeByte": 129,
        "deltaTime": 240,
        "channel": 1,
        "note": 56,
        "velocity": 0
      },
      {
        "type": "midi",
        "subType": "noteOn",
        "typeByte": 145,
        "deltaTime": 0,
        "channel": 1,
        "note": 53,
        "velocity": 66
      },
      {
        "type": "midi",
        "subType": "controller",
        "typeByte": 177,
        "deltaTime": 238,
        "channel": 1,
        "controllerType": 64,
        "value": 0
      },
      {
        "type": "midi",
        "subType": "controller",
        "typeByte": 177,
        "deltaTime": 0,
        "channel": 1,
        "controllerType": 64,
        "value": 0
      },
      {
        "type": "midi",
        "subType": "noteOff",
        "typeByte": 129,
        "deltaTime": 2,
        "channel": 1,
        "note": 53,
        "velocity": 0
      },
      {
        "type": "midi",
        "subType": "controller",
        "typeByte": 177,
        "deltaTime": 0,
        "channel": 1,
        "controllerType": 64,
        "value": 127
      },
      {
        "type": "midi",
        "subType": "controller",
        "typeByte": 177,
        "deltaTime": 0,
        "channel": 1,
        "controllerType": 64,
        "value": 127
      },
      {
        "type": "midi",
        "subType": "noteOn",
        "typeByte": 145,
        "deltaTime": 0,
        "channel": 1,
        "note": 50,
        "velocity": 77
      },
      {
        "type": "midi",
        "subType": "noteOff",
        "typeByte": 129,
        "deltaTime": 240,
        "channel": 1,
        "note": 50,
        "velocity": 0
      },
      {
        "type": "midi",
        "subType": "noteOn",
        "typeByte": 145,
        "deltaTime": 0,
        "channel": 1,
        "note": 47,
        "velocity": 94
      },
      {
        "type": "midi",
        "subType": "controller",
        "typeByte": 177,
        "deltaTime": 238,
        "channel": 1,
        "controllerType": 64,
        "value": 0
      },
      {
        "type": "midi",
        "subType": "controller",
        "typeByte": 177,
        "deltaTime": 0,
        "channel": 1,
        "controllerType": 64,
        "value": 0
      },
      {
        "type": "midi",
        "subType": "noteOff",
        "typeByte": 129,
        "deltaTime": 2,
        "channel": 1,
        "note": 47,
        "velocity": 0
      },
      {
        "type": "midi",
        "subType": "controller",
        "typeByte": 177,
        "deltaTime": 0,
        "channel": 1,
        "controllerType": 64,
        "value": 127
      },
      {
        "type": "midi",
        "subType": "controller",
        "typeByte": 177,
        "deltaTime": 0,
        "channel": 1,
        "controllerType": 64,
        "value": 127
      },
      {
        "type": "midi",
        "subType": "noteOn",
        "typeByte": 145,
        "deltaTime": 0,
        "channel": 1,
        "note": 44,
        "velocity": 87
      },
      {
        "type": "midi",
        "subType": "noteOff",
        "typeByte": 129,
        "deltaTime": 240,
        "channel": 1,
        "note": 44,
        "velocity": 0
      },
      {
        "type": "midi",
        "subType": "noteOn",
        "typeByte": 145,
        "deltaTime": 0,
        "channel": 1,
        "note": 45,
        "velocity": 85
      },
      {
        "type": "midi",
        "subType": "controller",
        "typeByte": 177,
        "deltaTime": 238,
        "channel": 1,
        "controllerType": 64,
        "value": 0
      },
      {
        "type": "midi",
        "subType": "controller",
        "typeByte": 177,
        "deltaTime": 0,
        "channel": 1,
        "controllerType": 64,
        "value": 0
      },
      {
        "type": "midi",
        "subType": "noteOff",
        "typeByte": 129,
        "deltaTime": 2,
        "channel": 1,
        "note": 45,
        "velocity": 0
      },
      {
        "type": "midi",
        "subType": "controller",
        "typeByte": 177,
        "deltaTime": 0,
        "channel": 1,
        "controllerType": 64,
        "value": 127
      },
      {
        "type": "midi",
        "subType": "controller",
        "typeByte": 177,
        "deltaTime": 0,
        "channel": 1,
        "controllerType": 64,
        "value": 127
      },
      {
        "type": "midi",
        "subType": "noteOn",
        "typeByte": 145,
        "deltaTime": 0,
        "channel": 1,
        "note": 38,
        "velocity": 83
      },
      {
        "type": "midi",
        "subType": "noteOff",
        "typeByte": 129,
        "deltaTime": 240,
        "channel": 1,
        "note": 38,
        "velocity": 0
      },
      {
        "type": "midi",
        "subType": "noteOn",
        "typeByte": 145,
        "deltaTime": 0,
        "channel": 1,
        "note": 40,
        "velocity": 69
      },
      {
        "type": "midi",
        "subType": "controller",
        "typeByte": 177,
        "deltaTime": 238,
        "channel": 1,
        "controllerType": 64,
        "value": 0
      },
      {
        "type": "midi",
        "subType": "controller",
        "typeByte": 177,
        "deltaTime": 0,
        "channel": 1,
        "controllerType": 64,
        "value": 0
      },
      {
        "type": "midi",
        "subType": "noteOff",
        "typeByte": 129,
        "deltaTime": 2,
        "channel": 1,
        "note": 40,
        "velocity": 0
      },
      {
        "type": "midi",
        "subType": "controller",
        "typeByte": 177,
        "deltaTime": 0,
        "channel": 1,
        "controllerType": 64,
        "value": 127
      },
      {
        "type": "midi",
        "subType": "controller",
        "typeByte": 177,
        "deltaTime": 0,
        "channel": 1,
        "controllerType": 64,
        "value": 127
      },
      {
        "type": "midi",
        "subType": "noteOn",
        "typeByte": 145,
        "deltaTime": 0,
        "channel": 1,
        "note": 41,
        "velocity": 88
      },
      {
        "type": "midi",
        "subType": "noteOff",
        "typeByte": 129,
        "deltaTime": 240,
        "channel": 1,
        "note": 41,
        "velocity": 0
      },
      {
        "type": "midi",
        "subType": "noteOn",
        "typeByte": 145,
        "deltaTime": 0,
        "channel": 1,
        "note": 39,
        "velocity": 80
      },
      {
        "type": "midi",
        "subType": "controller",
        "typeByte": 177,
        "deltaTime": 238,
        "channel": 1,
        "controllerType": 64,
        "value": 0
      },
      {
        "type": "midi",
        "subType": "controller",
        "typeByte": 177,
        "deltaTime": 0,
        "channel": 1,
        "controllerType": 64,
        "value": 0
      },
      {
        "type": "midi",
        "subType": "noteOff",
        "typeByte": 129,
        "deltaTime": 2,
        "channel": 1,
        "note": 39,
        "velocity": 0
      },
      {
        "type": "midi",
        "subType": "controller",
        "typeByte": 177,
        "deltaTime": 0,
        "channel": 1,
        "controllerType": 64,
        "value": 127
      },
      {
        "type": "midi",
        "subType": "controller",
        "typeByte": 177,
        "deltaTime": 0,
        "channel": 1,
        "controllerType": 64,
        "value": 127
      },
      {
        "type": "midi",
        "subType": "noteOn",
        "typeByte": 145,
        "deltaTime": 0,
        "channel": 1,
        "note": 40,
        "velocity": 79
      },
      {
        "type": "midi",
        "subType": "noteOff",
        "typeByte": 129,
        "deltaTime": 240,
        "channel": 1,
        "note": 40,
        "velocity": 0
      },
      {
        "type": "midi",
        "subType": "noteOn",
        "typeByte": 145,
        "deltaTime": 0,
        "channel": 1,
        "note": 52,
        "velocity": 89
      },
      {
        "type": "midi",
        "subType": "controller",
        "typeByte": 177,
        "deltaTime": 238,
        "channel": 1,
        "controllerType": 64,
        "value": 0
      },
      {
        "type": "midi",
        "subType": "controller",
        "typeByte": 177,
        "deltaTime": 0,
        "channel": 1,
        "controllerType": 64,
        "value": 0
      },
      {
        "type": "midi",
        "subType": "noteOff",
        "typeByte": 129,
        "deltaTime": 2,
        "channel": 1,
        "note": 52,
        "velocity": 0
      },
      {
        "type": "midi",
        "subType": "controller",
        "typeByte": 177,
        "deltaTime": 0,
        "channel": 1,
        "controllerType": 64,
        "value": 127
      },
      {
        "type": "midi",
        "subType": "controller",
        "typeByte": 177,
        "deltaTime": 0,
        "channel": 1,
        "controllerType": 64,
        "value": 127
      },
      {
        "type": "midi",
        "subType": "noteOn",
        "typeByte": 145,
        "deltaTime": 0,
        "channel": 1,
        "note": 45,
        "velocity": 86
      },
      {
        "type": "midi",
        "subType": "controller",
        "typeByte": 177,
        "deltaTime": 478,
        "channel": 1,
        "controllerType": 64,
        "value": 0
      },
      {
        "type": "midi",
        "subType": "controller",
        "typeByte": 177,
        "deltaTime": 0,
        "channel": 1,
        "controllerType": 64,
        "value": 0
      },
      {
        "type": "midi",
        "subType": "controller",
        "typeByte": 177,
        "deltaTime": 2,
        "channel": 1,
        "controllerType": 64,
        "value": 127
      },
      {
        "type": "midi",
        "subType": "controller",
        "typeByte": 177,
        "deltaTime": 0,
        "channel": 1,
        "controllerType": 64,
        "value": 127
      },
      {
        "type": "midi",
        "subType": "controller",
        "typeByte": 177,
        "deltaTime": 478,
        "channel": 1,
        "controllerType": 64,
        "value": 0
      },
      {
        "type": "midi",
        "subType": "controller",
        "typeByte": 177,
        "deltaTime": 0,
        "channel": 1,
        "controllerType": 64,
        "value": 0
      },
      {
        "type": "midi",
        "subType": "noteOff",
        "typeByte": 129,
        "deltaTime": 2,
        "channel": 1,
        "note": 45,
        "velocity": 0
      },
      {
        "type": "midi",
        "subType": "controller",
        "typeByte": 177,
        "deltaTime": 0,
        "channel": 1,
        "controllerType": 64,
        "value": 127
      },
      {
        "type": "midi",
        "subType": "controller",
        "typeByte": 177,
        "deltaTime": 478,
        "channel": 1,
        "controllerType": 64,
        "value": 0
      },
      {
        "type": "meta",
        "subType": "endOfTrack",
        "typeByte": 255,
        "subTypeByte": 47,
        "deltaTime": 0
      }
    ]
  ]
}